<mxfile host="app.diagrams.net" modified="2023-03-11T17:22:24.625Z" agent="5.0 (Windows NT 10.0; Win64; x64) AppleWebKit/537.36 (KHTML, like Gecko) Chrome/110.0.0.0 Safari/537.36" etag="Y_f-jJv67bSKl24hSUd2" version="21.0.2" type="github">
  <diagram name="Page-1" id="LysduLf6GLTc2vyyIra-">
    <mxGraphModel dx="3903" dy="1948" grid="1" gridSize="10" guides="1" tooltips="1" connect="1" arrows="1" fold="1" page="1" pageScale="1" pageWidth="850" pageHeight="1100" math="0" shadow="0">
      <root>
        <mxCell id="0" />
        <mxCell id="1" parent="0" />
        <mxCell id="n_tlWCho_spEM-IAygcJ-1" value="" style="shape=image;verticalLabelPosition=bottom;labelBackgroundColor=default;verticalAlign=top;aspect=fixed;imageAspect=0;image=data:image/png,iVBORw0KGgoAAAANSUhEUgAAA6sAAAOMCAYAAACrSyULAAAAAXNSR0IArs4c6QAAAARnQU1BAACxjwv8YQUAAAAJcEhZcwAAFxEAABcRAcom8z8AAP+lSURBVHhe7J0FmBzHnb7lOGaQdmdXssyOmSnGmGJmlmNmyyBLuzMrmW2ZmTEOOxyHmRMnDicOJw6zc+G7XA5z/6v+f2+rSynPzWp7RtrZnZnvfZ7v2e2emoaa7ur66ldVPcX0NMtLa0n7SiPSG6X7pP2lNaTIkdInpKxO75cGpMgLpUekNM2fpEOllJOk/5TSdHdIKRtIn5HSNF+QNpFSrpfSNP8jnS6lHCD9TkrTvVpaWYpMk94hpWl+JL1YSpkjpWlQVUrZQfqelKZplFePSWmaP0oHSymN8uo2KWVD6WkpTdMor26U0jR/l8rk1SulFaVI2byaK6VpUJm8eq9UkSJl8+pk6b+lNF2ZvPq8tJGU0iivTpVSDpJ+L6Xp6vOqX3qXlKZ5ViqTV0NSys7SWHm1gvS4lKYpm1c3Syll84rvpWnK5hXHyfFGRssrzjuFfEnToEZ5xXfTNGybfUQa5RXHyLGmcC5j5RV5Qt6kaci7sfKK7fJbpJTJK35zfvs0Tdm84lpLKZNXXNNc22ma0fKK3z9Nx72UMlpecb2lcO+maRrlFdc113eajrJirLziPqLsSSmTV9y3lHVpmjJ5RZlK2ZpSJq8owynL0zRl8opnBs+OlNHyivI1wjOKZ1WaplFeUY6naRDPxpRGecVzg+dHhGcwz+I0TaO84jnFsz1NVyavqENQl0gpk1fUWai7pOnK5NV3pe2klDJ5tav0YylNUyavnpNeKqU0yivqSSmbSl+S0jSN8op6WZrmP6QyeUU9kPplZLpUJq+oh6ZpUJm8elKaKkXK5tWZ0v9KaboyefVpaT0ppVFenSilHC79RUrTNcqrD0ppmm9L20opjfLqIilld2msvKLs4p74uvQm6QaJchZvYMyEgQmNBe7qEg+wmsQFeq/Ew3lraSUpsrl0lnSTdGciHrarSpEXSEdIaZrLpXrTxPavkdJ0B0kpFNLnSGma86W0UgAUPhQSMc1Cqb4AfJG0QEq3dYyUPngo3F4mpWnmSWtLKRSUaT7cIu0hpXCTXyql22qUVzQCpGkukzaWUhrl1YFSCnl1rpSmaZRXNEKkaa6TyuTV0VJamJbNq90kKucxTdm8OkVqJa8ozK+V0nRl8uo8qU9KKZNX7H+svFpFouBP03CPjZVX/M+DJoXvjJVX7PsoKU1TNq/qK4hl84rvpWnK5hXH2UpekS9l8orvptti2+wj0iivOMb6vOJcxsor8oS8SdOQd2PlFdutr4SUySt+c377NE3ZvOJaSymbV1zbaZrR8orfP03HvZQyWl6lFXPg3k3TjJZXXN9pOsqKsfKK+6i+MlY2ryjr0m2VzSvK1pQyeUUZTlmepimTVzwzeHakjJZXlK8R8opnVZqmUV5RjlOexzQ8E3k2pjTKK54bPD8iPIN5FqdpRssrnu0xDc/8MnlFHaKVvKLOQt0lTVcmrzBWM6SUMnm1jtRKXs2X6hvEGuVVvUkjry6Q0m01yquDpDRN2byiHpjm1WpSmbzaU7pVimnK5hUGupW82l7CnMY0ZfPqbCk1fHCQlKYhr7aSUjC+V0hpukZ5dZqUprlEKpNXu0gp60pj5RXX8SyJz/ABXKv8NmnDBWnYFvmX1puNWWZw4XPRUcDsKPHAikaUgokL9yqJi5MbhIK1vsBaTuJm4iGcKr3BIo3S8f0UluvTlNlWu/eHymyr3fsrs6127w+V2Va791dmW+3eHyqzrXbvr8y22r0/VGZb7d5fmW21e3+ozLbavb8y22r3/lCZbbV7f2W21e79oTLbavf+ymyr3ftDZbbV7v2V2Va794fKbKvd+yuzrYnYX5lttbI/0tCwRKMAwavZ0hkS5jSCMd9HopGRNHgKGh1tXM0ygdZeWh8flei2QKsRLUmxixTdlaKRpSVzpkTktdHNY4wxxhhjjOkeqPMTbcWA4gnWl9LeIngFegXRZZkhFfTCPF5yV2Gz1NDFF2NKF993SlxgjJ3gIqxvfTHGGGOMMcaYeujCTHdojCpdhi+UtpCMaQqipemkEgzSPkgipM8gbyZkIGpKNwBjjDHGGGOMGQu8A2NXGSbIcMK9ir8Rhhwy6RiBMgfETEMwqczoyOQT0YzGsapMjlQ/0Y4xxhhjjDHGNAtdhtO3hvBWESZwYzK7dLyrMTn0GWemSGZKPEFKo6vGGGOMMcYYM14wizIzKzOLOjOWM2FT+lo906MwIBpjyhT5TKD0CulYybNzGWOMMcYYY9oB3X95jRGv9XlQ4jU4vIHE9DiDEjP98g4lXg7MzFz0H/dMvsYYY4wxxph2gg/h1TcXS/Xv5DU9CK+ZOa4QF4cnTjLGGGOMMcZMFEzCxOswGdcaoScor8Dx5Es9xkoSM/4yeZKNqjHGGGOMMWaiYUhi7OmJR+GNJJtJvM/VdDH88PzYzPq7DiuMMcYYY4wxZpJCRJVeoOdJBNlMF0LInIHLO0iMS2USJV5HY4wxxhhjjDGTFXqCniRdLfH2EgJvfh9rl7GmtKfEJEqXSFtK6buNjDHGGGOMMWayQXdg3r16jPSwdI20nUTE1XQBq0i7SZdKNWk/ye9RNcYYY4wxxnQKTAxL0I2ZgreSiLiaLmCqdJjED8tYVb9D1RhjjDHGGNNpMMESXYBXlTw5bJdAq8P6EmNU+WGNMcYYY4wxxhhjjDHGGGOMMcuIOHnsBhITLvmVNh0GYXF+NIfIjTHGGGOMMd0E/mZt6WjpLIkepJ4duENgQiVmyDpFOlFi9ixjjDHGGGOM6QaYIZi3nfA6zhukl0l4HtabSc46ErP+MrXzuRLhcWOMMcYYY4zpJpgV+CLpEWm2hIE1kxjC37tIr5QWSoTHPa2zMcYYY4wxptvA59Cj9O3SqyVeb2MmKRjVF0knS4TDD5WMMcYYY4wxplthnh66ATMEkld2mkkKfbS3lRhovJc0QzLGGGOMMcYYYyacNaRBaTXJA4yNMcYYY4wxxhhjjDHGGGOMmQAYv1qRpkkrSn6VzSRiBWlA4uW4xhhjjDHGGNNL0LN0U+kIaV9pVclMEjaT5kgH5UvGGGOMMcYY0zu8UOKVnY9Jryn+NxMM4e34QlxeV3OGZIwxxhhjjDG9Bt2A3yR9UTpEYj4fM4HQ/Xd36SrpTsmRVWOM6U14HtB4OV1aR1q3EP+zju5RxhhjTDfDs+5i6RXSBdLGkplA6IvND/KENCJtKRljjOkt6GWzjVSV3ih9UPpIoQ9Lr5JOkvokY4wxpluhKzDPQ965elbxv5lAMKvnS7dIB0rMfmWMMaa34FVlR0mY1J9IX5eelj4r0RWK/++XeE74henGGGO6GWYFZrzqztJ6rDATB92+tpN2k2gx9xTNxhjTe2BWT5TeIT0kHSZtLjEr4g7SmdLd0nXSjhLwvFheYnr/laVVJB7w6Tu6ecbQpYqZ5vmc9BHS8Tmt2JG4TdalaVnPOhSfU3yX7SL2wb4bPcP4DvuO6TjelLjtJZ2HMcaY3oJnAM+F9FlkJgAe0jyceTAbY4zpTaJZpQvwAmmGlLK+dKX0com5DXh4z5SY3p+uw1dIN0hnS6SFtaVzJWZUfLPEvAgHS/F5gxl+mXSAxFhZ6Jf2kGZJe0k8n4AW7iOl/SX2yxjaUyWO9y0SY4sY0rKJlEIUmO+xb9KRfrbEq9oibI806XmcI3kWSGOMMcYYY4yZYFKzernEpEopTLRUk+gKzLvniERuLz0o0U34PdIbJL6LCcUAniZhUr8lfVv6knSXRE8eIpwvke6VMMdsHzCb86TXSnOlOEaWtBjOIWlXicgvrxb4nkSX5a9JHDvnwHAWzodI6j4S+/y0RLofSBwrY5Ew5KQjckw0OT0PTCvnYYwxpjchqkoDKvKMwMYYY8wEgmk7QWK6frr6biHFrk/R9BFZjRPx0StnJwlj9ykJY7mLtKHEtP+YQSKqmFEMJBHRYYkIaOxKzKQVl0msZ5vsj7/s5/USxnQtCfg+ZpWIJ+Nmr5eYa+EY6cXS0RIml5kb2S7HHGe6v1UiCsvxcY68pg1jy3cxzYxJYpLBeB6YYc7DL4M3xpjehR48PHsOl+jpYyYAumjtJ1EJodsWLeXGGGN6D8wqXXqflJ6SMK0PF3pcYjbg+RJRyNiNF7P6aonutURbI3S9JcL6Vul0KY4jJWp6o8S2mVmYyCXRVwww77IjIopJxqTeIdGFGPNKhYFju1o6VKIbMoYTo5vCMw3jyfOMqOklUnx/OOcXYXZHzCqTC2KG+Q7nSBQ4PQ9jjDG9C88UhqrQq4hhImYCoNX5ZolWbFqcPW7VGGN6E8wchpEJln4m/VR6thBdeN8nYSK3khhfSuMmZpVuwY9KdO2NEJUkosl6GkQjRDExikRjL5LYFuaTLrcsbyYx4R/RUYwmUVDMI88qzC2RU/ZD92OeW0Ro6Q5MZJVoKsYzNrpSyWDs6bsltv9SiePFmLKMMWV7GGa+z+RRj0hsPzW2xhhjehO6/zKfAb14eGaYCYDQNq3mcYyRI6vGGNObYNDoFkuUlPGiF0q8yoaIJoaS/xlbikFkQiSip0RZ6WJLFHRrCejKu63EeqKaaaSSCCv7IIqJOd1IIi3GlOcQvXwwlZhVjCqTMR0v0Y0Yk8uMxERa6eKL6bxG+qjEWFReucN24lhborEY5q9KjFMlzTPF8o8LcYx0R2ZbRHxvkzC9MRJsjDGmd2EoCN1/75GYF8FMALRU87J3HuiMMfID2hhjehPM6pJmA+b5gIkkKkr3WSZEwuhh8m6SiIoCZhXjyjpMKQY0wj6Ok+hSfKlEJHRQ4lmEWcUQI4wpjamYYmb45TOMKKY5Pa69JcbEvk2i1RvzybZ43Q7vxaPr1sckjCwmnHT8ZUZjjo8Wc7oME3GN5+FJlYwxxgDPMxpVeQ7x7DATAA/1D0lMbhFfD2CMMab3iGaV8aR0k230EnQ+pzfOedKLpBiRZDgJY00jGEC2gVllfGmEmX156DOWFbPKGFWePXQ/plsv0VbGsBJ9pasvXYhZz0y9jBfCHPMOVMR3mZ2R2RoR+2fyJaKtTLbE+Fj2QddeDDKRVtLxXUwyFRCMMl2T2S5Gl/MgcmuMMcYAzwyGpxybL5m2w0OZgcO0KjuqaowxvUtqVolk1r+6hmEiRFaZpZeJjxgTiskjGsl4ntSsMs6HSZPeLmFO45T/PGt4jQzboLF0BYlnz54SRpGIK2aTiClGkrkUmFQpRmIxwXyHMaxsN43a0l2Ld7Nikuk+jCFlme5bvPs1vscViNiSjhkeMbGcB/vnPGxWjTHGpNCoGl+jZtoM4W1amqmkGGOM6V14DjBO9AMSPW6ImNL1lmgnwjTSfZYIJGN44rjR+wrFMavAZH1MfMR6ZgteKBEZfUDCePJ6GCZXimAQSfMZife2xtfmYCJZT3SUiCuVBdazf15jw3tW6erL+FrMMbMD0wBL1JTKBfvA5DIJFJMtkY40TCKFkT5ZwqwywRKmli7FjFk1xhhjjDHGGDNJwKwScWRM6o+kX0g/SfRziXeREs3ECBIRZXIk3nfKpEvpWE8+I5pKhBOz+kOJGYa/KBE5JS0R0ghRVN6DyvaJeDKHAmAcmbGXV+YwUVMcrkLklq7CRIHZLsf3eYkoL9HbOFkg+6D7Fob3s1I8j/dLvFKH6Cvmd7TzMMYYY2JwzxhjjDETBAaTrr0HSrMlDCJRSLoEIyZdYmwpEdUIppKuukQmGUNaD+vYHvMisC3GlDIWlQd/CqaS191gSDGX0WxiSjGSmFYioGkvIJbpxhuPkWMm4pp29wUMLhFg9h3PgzGtGNUI+1nSeRhjjOlNeDYy9MTvWZ0gqJjwcK4fm2SMMcYYY4wxvQyNpBhVXndmJgAmuOCF6XSHMsYYY4wxxhizCHoCMUdCli+ZtkNLwXMSrwYwxhhjjDHGGLMIzCqT/NmsThDMovg7iQkvjDHGGGOMMcYsArNKUO9X+ZJpO0MSmc/si8YYY4wxxhhjFsEES8yCz2R+ZgLYT+JdegflS8YYY4wxxhhjIlOl9Rf9a9rNKhIvWV81XzLGGGOMMcYYY4wxxhhjjDHGGGOMMcYYY4wxpgyMWd1IOiBfMm1nJWlNaeV8yRhjjDHGGGMMvEA6U/pYvmTaDhMs3SR5giVjjDHGGGOM+Qe8ugav9F/5kmk7l0o/kebnS8YYY4wxxhhjALP6kJTlS6btDEvPSVflS8YYY4wxxhhjALN6hxTyJdN2Fkh/ka7Ll4wxxhhjjDHGAGNWT5Jeny+ZtkPmv0s6I18yxhhjjDHGGAPMBryutHu+ZNrO2tKLJX4EY4wxxhhjjDH/gOjqCxf9a0zbyZZbY06o9A2HrSvDYf++4Wx2/3A4a+pI4J1KU/rnhjUHRrLZA1eFBweukPS3UgsXr31FqORfL+gfzg7U+gf4fDppquGWgVrYsfg4Z3B+2FjrrubzfFsLwoP91XDCvguzxTfAutWwirZzWv65VGxrpP+qsE6RJGf6UNhD27ozPy5UC3cP1rK9io9zKnPC2gMjobp4fxLnNmMkrFYkmTJlYfaCSi07lmOJ+xsYDtdqedMiRc60+WE75c9NcVs6pgcHa+GQ4uOcqRdnfVp/4Zh5VQsH5XlV7K90Xo2E46c8mTF2IKdsXuk49xyohruazqtqOHPmwmzVIkn5vKqG7XUcN8dtNZNXa1ZDf5Ekp1FeDQ5lOxQf5wzMC5uOlVczZ2er6vc7I/+82Ja+Uxszr/T/4HB4SfFxjvJlnTHzala2fP/8cFxLeTUcDi4+zimbV3yP78f9lc4rHSfHWyQZPa903kWSHPKlVF7pu4v3J7Ft9lEkaZxXOkaOtUiRw7mMlVfkCXnzvLxS3pXIq5v5LYqPc0rllX5zfvv882JbpfNK11rxcU6pvNI1zbVdMq9uidviHuJeKj7OGS2vuN6KJDncu2Pmla5rru/Fx67jo6wYM690H1H2FElySuWV7lsdx8ji/Ull84qytUiRUyavKMNbyis9M3h2FB/njJpXKl+LJFN4RvGsyj8vttUwr1SO65zuXpxXeibybCw+zmmYV3pu8PwokkzhGazf5oSx8krrdlycV1LZvKIO0VJe1cJmUvN5NRyq0swiSU6ZvOqrhfV07PMX708qlVfD4arpw9mLiiQ5DfNK9aTi4xzyarAaLhkrr/TbH1YZWZSG7Wm7N5bKq+FwTCt5peW9tY97ms6r+eHUDc7KFr8KsnReDYedtK1b88+lJeXV4v3xtxou6Ls8m1okyWmYV9WwbfFxTmVB2Fzprlu8rQZ5xW9APujcj+ybF7bRZzZqxrSfjLB+XlHsUyGkAuVSGdabpHfopn1FZV7YhY/XmhsGdVM/OnhVeHbwckl/dfO/cp3LwvOi0bqhz1fB8X0+n351nubzKlgOLT7OUQHxYhVCH+TzwSuky8KzetBdvdXCbMUiCWnW0P5uy/cl5Wlr2ZP9l4UtiyQ5qtCcOFDNvpYfF8dUC9/QMZxSfJyj5c30QHxLvg22p32q8Ll7g4XZtCJJXqHRdy8bXLDo8+LYP9I/FHYrUuTkZrwaPhOPXefKPi8uPs7RtmcqzeNj5hXmn7yK+6uFz5XMq6umPJ6tUCQpn1e1bJa29UzTeaUH1PMeBGXzCoNZDU/HYy+dVzVddwueXxlrmFdDzze+unZ31foPxf01yqu80aUa7nheXlXD28bMq2r4uvLhZcXHOaosbTFmXunBpnRXcCxN59VwuKj4OKdsXvE9vt9sXnGc6YN4tLzivIskOeQL+TNmXum7+TaK7bFt9lEkaZxXOkaOtUiRw7mMlVfkCXnzvLxS3o2ZV9ouv0XxcU6ZvOI357fPP28mr7jGdK0VH+eUyitd01zbpfJKv388dm3n+9xLxcc5o+UV11uRJEdpLh4zr3Rda/1H4v4oI/S9y8bMK91HWrdZkSSnTF5x31LW5dtoLq8+qPOmN9ViyuQVZbiO6ZUt5NVn6ivdo+ZV0rjGM0rbvrtEXp2i734j5lX+TNSzsfg4p2Fe6bmhfFijSDKFZ7Dy6uox80rPKR375/Nt5fsrl1c6zscG52drFUlyyuQVdROl+2i+vybyStt6s451kyJJTqm8GglbKd3b8/01k1fV8AHlw85FkpyGeaV6UvFxztoyfEr36hJ5NUfHkfw22VMl82p+2mC0/hW5ARszrzCd+u43m80rmcRbBi/JVi+SlM4rndth2t8X8m2NkVeL97corx6ZPi/MKJLkNMorHdf+xcc5Mtp7Kt3H822NklcqS9bVOc7T+odUvs7rmxsOXWNB2DQ14z0G98DzGmGNGVdUuK+8uBKhB7oKr5P6VYBNGwpXclP2U2EvWnC5MfNK21XhqMrlkv7qBt7teVEkQWGnguNIPp9BGiIXda3Aa88JFRVUL+XzfFtS30jeYrW4NWvK7GwFFdQ7xM9Jq+Pbu39hUgkRffOy9fMCjm2RphoOnzqUbVh8nEPFRQ/pvdL9aVs7peZ4SpYtR6Grwmzx/lSR3X9mLRsoUuTw8KCCtnhbw9pWXcWB1tem8qrYX+m8uixs3VJeXd5iXhHt1T6KJKXzSscwk3NavK0m8iptwYZGecX2i49zyuYV5xM/Jy3nO2Ze6f9pI2GD4uOcUnmlfee9FZL9lc6ruuhr2bzie3w/7q90Xuk4S+VVagQE+TJueaVj5FiLFDml80p587y8Ut5NxrziWis+zimdV7q20/2VyStt58j6CmnpvNK9O1ZecV0rzf6Lj11lBGXFuOWV7lsdw96L9yeNZ17lUeFW8krPjHrjMWpeqXwtkuSVfB3XTvnnxbYa5RXlOOX58/JKz8bi45xGecVz4//klZ7F6f4a5RXPqcV5xf4ma14Nh5ekBhPK5FXeoNJKXo1k++n8ntd7o2xeTa+G3UvlVfLcbSqvYmBCjHte0ZMnaaAqnVcLwtoykIfkn7O/JeTV4v3l2wq75PXZhEZ5Nf3K5xtagjAyoQcs3laDvCKyqnUn6rMb9Tverfvh7aob317/jOsRyBcCKvfnS6bt0Pp9vLR1vtTlTNXDnNY4buYpsTBUwZJHVmVQaW2iUpBX4NNKhjHGGGOMMb2A6sZTL8827KORaCibVRkON8m0/qMr/tywEia73uh3KUScecXnH/Il03bOkT4vPa8rWbcx9Yqsjxao/lpY2F8N1+ime/HzWu5oCSPamHSBMMYYY4wxpichgk+9WPVjxvvmY+KLQA4mVXpx3/ywR/9lYd3nzYXSfeAN7pWyfMm0nar0nESLQVfCAPe+Wji/Ug0fqNTCE0RQVxsJ09MxH8YYY4wxxpgSyMCuUQubEW3tq4b7Vb8+ur5LcheBX3hIslmdIOZLf5Kuy5e6jdnZCmtdGQb7q2FYN9SbKkPhwvpxDsYYY4wxxpgmWJitPq0aTlX9+hWqZz/MGOz68cZdAtHkudJX8yXTdi6Uvi0N50tdBl0Wpg5nL+qfG7bquzist2hyhn8MIDfGGGOMMcY0S7Yc3YGnzs1fU/RgZSjcWP+qwi4B38Dryk7Pl0zbIfPPlp43PXvXMCtbkfGqHotqjDHGGGPMsmdaNexbmRcO6OKxq3Rxft4szqZ90FpAeLtroo2r17IBXhbdP/f57/Y0xhhjjDHGjCN+m4Yxo7NmNfRPGw7H9FfDdX3VwDuRjDHGGGOMMe0gvmEjfz+vh94Z8w94+XItvExG9a6+kWz2tGqgi7MxxhhjjDGmHczKlu8fCbv118K1qpcfUqztZDDcO0i87tNMAPS/3lQayJc6FCZSGpgXNq3Uwq1IhnWd4iNjjDHGGGNMm5g2HI5SXfxp6Z78LRyPE2XtWOjWPEf6Zr5k2s4x0uukE/OlDmXqSNiofygcP60aLpFZPYCJlYqPjDHGGGOMMW2Cd7D2VcPlzBLcPxLOGrgqzCw+6kSYpPU2KeRLpu3wyppfS1fkSx3KwHCY2TccXtI3L2wzeEm2uvvIG2OMMcYYMwHMzlaYOpRt2F8Nl/YPh6umVcO2+zKWtTPBrD4iZfmSaTtV6Z+kq/OlTiaffcwm1RjT0VCGMfX/2hJDNLaStk7E8vrSGtJkgMrHNIkhJStJo5XBvCieNKTlFQApfI+hG+m5biaRvpkynTyZLk2V1pTWKsT6RrNT0gOHdwKShr+IfF9P4jjbMaMl50d+sG+G47hXkDGmS8iWk1ndVab12Eot22IrJl3qTDCr10t/zpdM26lJv5M636waY0zng6k7QLpX+pj0eekLiT4nvUJiCAeGbKKZIZ0qzZa2lBqNS8KQ8S7vC6XTJExpfPc1f/nsDik91w9LF0ll5x/AkB4tXS4dLh0kXSfdKh0r1b+onmPiOC6T2Pf50inFMt85Qqo31eMBZp9GCfJvRNpWMsaYroDejqvNCzMqC8Iai4JKHQnHfbDEs8FMAMzS9YB0VL7UacwNK9H1t284bJ1Pk22MMZ0NBpSJHL4ofVf6hPT+RB8thMHaXZroCCuRSEzhfdJOrGgAxpBnDCabcT8vkSivOXbO4RrpnRLnlZ4n8ymcK20kEX0dDQwvJo9tv03CPGNc3yJ9TbpHwkinrCqdJPH59yUabPnOWdKl0t7Skva5LMGskn8fkDj21SVjjDGTBxo86fFjJgAqC7Rc022qs8iy5ZhYqVIL8ytD4eK+y7POOwdjjHk+mNUh6V0SUT5MGF1bo14kXSI9KBF53FxKIVJH91lMJOL/Rg15GLzYVZZ0TH5B19dGaTFtdFElHen5Ht9H20h3Sa+SiEayP9anYFaJdj4k3SARSSWCTGQTo/pGaa5E99tBifPcQ8LAvUHidQF8NhocGybztRLHsou0sXSV9FXpvRKR1nS8FOdCJPPn0pckzDTbIR/WlcgLjjsS85XP+S4VlzTyStdt1vFMjd8jHzDFfI/nU9w/rfR8l3wkPefLb/4eifzZUarPQ2OM6VjyLsCL1KnRVWOaZ82Fob+vGg6tDIcHBoZCrW+2zaoxpuOJZvXN0ulSo66oe0qYvGulvViRwPul75boRotul/aT6qOEW0gMA3lS+ohENPNGie2l+6Riwfcxjh+U3iFxfJhmIp4Yvq9ImD62dYKEOUvBvB0qsQ2isLyvjujhSyV69mC8ibamYJoxoJhVukRzzo3g+DC/j0rvk4hKYyY53+Mlju1ZiS7IfVKE8+d8iaw+Lm1XrCPP6ZJLxDc1jESNOQ7y4EMSk20cKWFGOVbOm+0waSHmEziOMyQiyox3wpwD+UN+MLEhRpzI6mHSq6W3SkSTMcvGGNPxTB3Kpk2vht2nLQh7983L1u/gsavGNMfg/GyH/mq4Umb1ocq8cCrvWi0+MsaYTiU1qxgdIpD1EHXErGL8osnDWNHVlUnz6ELLuE+M2selm6RdJcpIjChdmYjO0k32M9LTEqbtKYntYkQxmBhKjCXbxIiSjnGlRDAZe0q0kvREL38jYRZfJjUaH5qaVSKHHMtuEl10McALJMxvCr1+ZkmYR46jEZhSoqKYyHdLmL74LMBgckwYaUw7ZjRCN19MMtFMjCyRW76LWSTP2CcVKsbgEt2mYYDz/JZEXtFNG6ONkee7GP9fSOQ9vw/fxQC/Rvp/0nckzC15wXkS9WU/nD8TShEJpisyDQd0Z95AMsaYjof3rA5Uw8n9w6HaVw2Hz6xl9GLpJCi36VVDw6iZAGiVpmtSx4Xlpw9nB1aq4X6Z1ZumDYV9/G5VY0wXgFmlSyxjL/mLiaGLKcK40k32bAnjRxQxjqFhPQaU7risx7hi1jBRRPYwg3QZppJAFJCJIvgMY8U+iHI+JhEdxIBhaokEzpeulDCmmCrSsX26KNPtl4jnLRKmjEgmEy6l3W2h3qzywKe85ljYDkbu6xL74hg5Vwwnf+kxQ0S0UYQZ+JyJkTB5mGhMLfsDIpsYdYz7ExLnABj7MyWMKusPlNgOE2jQSEBEmugm+U23ZyZtYh3mlsmvMNkcN2nJRxoMyAvG3WKaGXfK70EDAb8j7+b7oUSkmN8XE8uYYxoL6MpNnrEvjolJtV4p0b06nocxxnQsa1ZD/7RaOLJvONyqevvllaFQP3xlsoNHoiGWhlUzAdDViQpLfVeySU9/NezO+5t00R+96nCY6X7wxpgugDGMzExLhI6Zfxm7+iaJcZ10E0WYMqJwmD7SE13kfyJyGKp0RlmMKGaLrsEYLdJj6CjzMWIpmGMMJRFGzBbpGWdKpBeTFdlEIjLJX6KffH6zNNpMtvVmlecOEUvWY6jpOvt6ibGl8Xw5x3nSWBNaYEiJjDIRFWY7drUFDCDGkYgr+Um0FFPKud0p/UAiOkqkEzOMmWVSJ0ws3YExyeQr64g6nyxFyEPyBsPKxEycO78Jx85xk+/7S3QZ5t18vCKOcye6S/7Svflhid8B446B5liJ3jLREnnkZ5oxpvM5K1s5r7MPh0f6a+FNg/OyTvMclM8M5fi3fMm0nYslZkKkm1dHgUHtGwnbTJ8XZjDZUrHaGGM6GbreMo7xU9JPJKKO3yj+/l76D+ntEhHOOKaSCCQzu2N+YkQW44UwXZhEzCAtw9EAEdXcWcKQko7PMHtsgwjjhhJdcIm0Ev0bbYZauqvSRRYzHLu/1lNvVonG1r/ihigk0Ua6GnO+RFoxjZwLYzpHi6xi/tg/3+P4iUhG2C/HRLSZ/CMKionkvIlqkr9ESDG1HA8mMppVorV0++K1N3QlfkYigkzecC4YUsw1Jpnu2phqorFEaulyzO/D7/hZ6TmJ/ZOXdFkmAs73yDO6XAPnx/c5JrpvMyEVx2WMMZ3NwuwF00bCBjKqV8uwvmL6UKBc7iR41tKwScOjmQBo0eZBSjevzmJWtvyU2ZkqGDaqxpiugQgmZoYII+YK08KDna6qjG/ElDFjbDqmEVMTu7Dy3mwMz/ckXn3D5EI/kojwYT6JwrIPonjs49sSaYky8ixgoiVMG6YOs0UEkG6/SzKrGFCODRNaP5ETNDKr9aYWs0iEk0hmPF+6BTO77wUShrURGE8mPvqyxCRLqVkFIr9MpPRLiag0LfoYUbpzca6YUaDrMl15o1nFvK8v0XUXw/k3iW2Qp+TXjyXymrGr5BNR5uMkIqtEcumxxLF/WmK/HBsGOeYVY4UXSnQBBn7DaFYxtvw+nmTJGNMdzA0rDQyHvfuHslkzLs9oDO0kMKs8Z2xWJwjGMf1F4qFpjDFmYsFIxgmWMCzp+E+MGUaVLqyYrDi7LZFVzCCRRSJ2RPf4H2EQiTzShZXoH91mie4R1cM8Yc5eLhF9/KTEd4nSEvEjKovRGiuyigHDmGFC6WbMfjgejjdGUDHTmDSeNXRxxYgxdpPxnnTLbQRdhNk257sPKxrA7Md0f6bLNN1yGVebgnnGcGJmiUgTqSXyyf9EcuPETeQzEyBFs0p+8QobfgPy9FcSXYkZ/8tMwJwvk0sxzpTzYFIpzp98JDLKGF66MmP2GWPMfomW8xljaGk84LjiZFD8PU/6qfRN6USJvDTGmK6gsiCssdpImL5uNXRarxF6JFHW05vGTAB0X6KCwhipjqJ/bliTLsCeBdgY00VgVuliyqy0RBTja1AAc8r4SEwQkTreJ0rUkjJwX4kxNRioNLpI91IMKjPWsm3GVjLpECaWCGosP2npJpJLN2C6BdMF9hiJyX4ulTDEEUwUEUu6EhNRxAxjADGXpGO7HB/fixFUtonJ4xgxiHwXQ4YZxSSmr5WJYALp9UOLNt2VG4FZJoqJAcRoYl7re9tgIjGZTMJEZYOoJlFlxrqSN1BvVjGpmGi68/JbMGYVcxkjx+QBkVfyNZpK/uf8mC2Y42E7jOUlmnuSRISWyZb+JJGvaVc48o3tE7UlGsskV/VdpY0xxrQfnik04NLjx0wAdLtiEggqHB3FYDUcOjAcrqoMB7qNGWNMNxAjq4w9JaKJaYzwwMQQMZEPhpXIJ91IafWl2y6vQ8FsYlwjRDlpjKRrMa+MwShiSjGraTqioET7iP7R9ZhIKtFQzBvdaDFmwARFfD4iEd3FHPK+UKKfMZLKMwUzxvHE19jQBZlJojCfGONosDHOGDrMWQoGkNfjEB3m89HKeUwupp65F5hJF2MYx/JGMLSMTSW6+s8Sk2RgJKl4xLGwmGrMKpFlxqjSik4e0P2YsUoYXH6XGBHAALNNukhjqoFtYXIxm3+WGHdLPnG+RJOJZP+vxGRLNCqkXeE4X76LKSaqzm9Vb7qNMcZMDDRojjZ3gjGNqdTCZQPV8KX+WkYlyBhjugHMILP38goUzBERzBSMGNE+utRiWDE4GB1MFBFNopB0QSXCh8kkDeMoGf9JVJXtYcQwZbw7FeOKmeVzetnw7k+2iQnEqBEdZYZhuszShRdTiiFm+0Q7McMYMiKVmEpMHPvBaNMtF6PHeiZ44lgY18nxYsSYjRiDyOfsg20SpUXsjy61HB/nFcd21kPlgS67vP+UrsBsr763DaaTKC4TNzHmCGGmOfYIEVNevcPrZzCMRF1Zx3c5Zo6dbsBEjMl7zpcoLeeedj0mWkq+sg+69DI+lqgp+yKyzHrMKvmTRpNpDCCijuEmz0Ybo2uMMR1JpZZtURnJ9hvgDR7G9AKVkXCLzOqvZFYZD2SMMd0ARo6xi0QUGaaRdgOOYNxIQ6QOYxtfQYNJYzwqEwcxUQ9iQiYisbzXjpZhorC83gXD9TOJNEwIRJQQc8zM8ERM6R5L2tjNli6spMUUYrp4dQ3RSCLBTEbEsRCt5Lj4LgYOY4th43uYYMZtsr0IhpWxq0xsxNjOeMyIiYzIAwwxRny0KCPnRCQXg8grX4jG0sU4BYNPRJnxt7+VMLUcZ2oWORcirfdLRJM5p9gNl3PE7HIO5BnnRKSVvCeizTFEOD8iykxcRfdhukYDjQTMEUH+0SiAqU7HbRF5ZRwxUV22O5o5N8aYjkT19osGauFNlWqgwbXToGHUk96Z5tAFf2elFv7QPxKodBhjTDeA8cEA8SqX+P7PejCRdCHFpNH1Nh1PilEjEkm5iIgKbimlXWMxSXSrJcJKGsam0pUVo8V26WqcbpPXw2DWSEvX4ziREnAspKcbL6aTqCoRScQ+mCmX72Gi641dhLGhnAvpiPIijDr7GatygIllu3QvJqJMt9zUEEc4Xsb4kh/si0hmmiecB6af/CQ6yjZYF+EYyVfOh1l7GTtMtDRNA/xe8V2qbCfmE3nOerpQY8CJLMTvcg7kHY0AdM/m/9TIGmNMxzMwEm4bqIbvDVbDCcWqToEymmErnox2gqBiQgtHfNdbxyCzer7M6tsYu1qsMsYY03tg7DCARCbpTkyENE6ENNmJJpnuxESXZ0uY/9EiycYY05HIqD5cqYbfT68FesB0EpTT9IxhVngzAXDBMA6HluKOojIUNq+MhP375wZeL2CMMaZ3oZst3YwZi8qYW8b+dgJ0NabLNK8k4hVCRH3ro7XGGNPx5JHVWvhuB0ZW6YXD68r8ntUJgvFJvAieLlQdxc6zsxU2WJitPGXfrFG3MmOMMb0DzwHG4jKDMa/u6ZRZG6kEMT6V983SlbrRGGVjjOl4ZFSPrAxnV0yrBmaR7yQop+MEeWYCoOvRHyRmXzTGGGOMMcaYZcoac0KlrxbWm3JJxizrnQRmlRnzf5AvmbbDawmYeZG+2MYYY4wxxhhjFsEcArtJvK/cTABMl89rCXgNQUcxOJTtMDgUjl9zbmAmSGOMMcYYY4xZ1jBDfnxNnGkzTO7ATIrxfXIdw2AtXDxQDe+bVgu8r84YY4wxxhgzCVmzGvr7LwvrzhgJ6avRjOleKtXs+ko1/LAyP/DeP2OMMcYYY8wkpH8kHK96+40DIxnvszam+xmohbsrtfDngfnhgmKVMcYYY4wxZpJRGcmuH6iGr1aGwzHFqk6BMatbSMfnS6btMCMXfbDXyJc6iEo1XK6L/it9I+GkYpUxxhhjjDFmklGphfsGauGXqrufXKzqFHj39fnS5/Ml03YOke6XOm7c58Bw2LsyHC6aMRJ4p54xxhhjjDFmEjIwEh6UYf1tpRpOLVZ1Cry65hbpf/Il03bmSb+QLsuXOojKgrCGjOr0dauBCaKMMcYYY4wxk5CBkWx2pZq9bqAa9i1WdQqY1YelLF8ybacqPSddlS8ZY4wxxhhjzDJkjXlh076hsMdq88KMYlWnECOr/5kvmbYzX/qTdF2+ZIwxxhhjjDHLklnZ8lNmZytMWZgxBrST4HiZFOqRfMm0HTL/9VLHTVJUmRPWZrzqGnNCpVhljDHGGGOMMcsKZgMmGrx9vmTazoDEdMyD+VIHMTAcThqohgenjYR9ilXGGGOMMcaYSUe23JRM4q8xvcBALVxdqYVv6u8pxSpjjDHGGGPMJIPxqswEPDg/bFysMqa7Gahlt+ui/6f+Wji3WGWMMcYYY4yZZFRqYb704cFqOLRY1Ukw5HDzRf8aUxIZ1ZulX/SPhLOKVcYYY4wxxphJxkAt3Kl6+48Ga9msYlWnECdYek2+ZNrODhKRyZ3zpQ5icCScWKmF+waGw97FKmOMMcYYY8wkY6AaHpVZ/eP0aji9WNUp8Oqaa6V/zpdM27lAeka6NF/qINathnWmzQvbzaxlTBJljDHGGGOMmYTIrF5TqYXPDtTCkcWqTgGzep+U5Uum7QxLz0lX5kudBO9p4p1NnlXMGGOMMcaYSUtfLdurvxrOHFgQNi1WdQqY1Qckm9UJYoH0F+m6fMkYY4wxxhhjliUjYbWpF2d9U+aGlYo1nQJjVmdLn86XTNs5T/qyNCdf6iA2OCtbubIgrDFldrZCscoYY4wxxhhjlhX04NxSOi5fMm2HzD9e2iZf6iAqQ9l+g9VwKeNWi1XGGGOMMcYYsyxZUVpj0b/GlGSgFmqVavhM/0jAbBtjjDHGGGMmIVOHsg0HRrKdV/fEqKZXqNTCTdLP/Z5VY4wxxhhjJi/91XBOpRoeH6xlexWrOgnGrXrYoWmOgZFwl8zqnwZq4fxilTHGGGOMMWaSURkJt6je/u3BzusRyZjV3STeoGImgJnSztI6+VIHoYv+El30H6gMh6OKVcYYY4wxxphJxsBIeFD19t9WquHUYlWnQFQVo/qjfMm0nVnSO6XT8qUOYvq8sJ0u+qNnjISNilXGGGOMMcaYSUbRI/LHA8PhpGJVp8B7Vu+Q/J7VCYKWguekK/OlDmKTuWGlwUuy1Xf2q2uMMcYYY4yZtPTJpMqs3loZCbsUqzoFzOojks3qBFGTfiddnS/1Di+UNpC2t6weEa+n6pNMeZimntd7NcpPy+pGbSx12gv7JxqGUzXKS8vqVs2QmmbV+dlaa9TCZn2XZ1OLVZ0CZhWf9Jt8ybQdIqu/ljousrqUUGm/RfqSZfWIPi4dJpny7C69R2qUn5bVjSJ6sJ5kysFYtoulRnlpWd2qpZjYNGOyok6DY95X6jWvNGl4qXSTdHC+1EFUatkW/cPZgX210MqDdS3pIxtvvHF2wQUXZNVq1bK6Voceemi28sor033lgvzqN2U5+gUveMG/7rvvvg3z1bK6RXPmzMm23XZbyohnpC3yq9+UAbP6wODgYHbKKac0zFvL6haddNJJWaVSoZy4M7/6ewuiwfTINBPAKlK/tGq+1EEMVMN5lVp4i8zqIcWqZpguvfPoo4/OfvGLX2R///vfLatr9cQTT2T9/f3/qmve7yRujsNWWGGF39x1110N89WyukV/+ctfsvPOO49K6GekzfKr35QBs3r79ttvn33hC19omLeW1S369Kc/nW255ZaUEzfmV3+TzBgJq61ZDf3MOVOsMqa7GaiFhTKsz8qwtjKTMWb1yVmzZmX/9m//lhnTzbz73e/OBgYG/qJr/oz86jdlOVRm9RePPfZYkZPGdC+XXnopldBPSZvmV78pA2b11p133jl79tlni5w0pjv55je/GXtgXJ9f/U0yMBIOU519/rRq2LZYZUx3I6N6V6Ua/iTT2krf+dysHnvssdlzzz1X3IbGdCdvfOMb6bpjs9o8uVm99957i5w0pjv529/+lg+J0TVvs9ocuVndYYcdsq985StFbhrTnTz99NPZVltt1bpZrYVrVW//fGU4HFWs6hQYs7qhtH++ZNoOoXhmvOy4kPzASLimUgvf1sV/SrGqGWxWTc9gs9oyNqumJ7BZbRmbVdMzLK1ZlVG9R/qZ6u0vK1Z1CtznZ0ofzZdM29lPukE6MF/qIKbXwkG66BcMDIedilXNYLNqOpdQqCQ2qy1js2p6ApvVlrFZNT3DUkdWR8LDqrf/XvX3VobvTSS8uobJaP8zXzJt51LpJ9L8fKmDWP/irI+ZgAcvyVYvVjWDzarpXGxW24XNqukJbFZbxmbV9AxLa1YHa2FupRbeIR1QrOoUMKsPSZy7mQB4z+pz0lX5Uu9gs2p6BpvVlrFZNT2BzWrL2KyanmFpzWrfSNimfzgc3D83rFus6hQwq7yux2Z1glggUYldmC/1DjarpmewWW0Zm1XTE9istozNqukZltasTpmdrTBlYbay9MJiTafAfc442zfmS6btkPnvlRg43FGsPSdUZgxlG/bPDWsWq5rBZtX0DDarLWOzanoCm9WWsVk1PcNSm9XOhdmA15P2zJdM21lb2lXiR+gopg+HYwar4Za+obBHsaoZbFZNA5ocDNoh2Ky2jM2q6QlsVlvGZtX0DD1sVoF7fYVF/xpTksFadsVANftaX2tTYNusmgbYrJrnYbNqegKb1ZaxWTU9w1JPsDSU7TBQC0f2zcvWL1YZ091UauFWXfS/6R8J5xSrmsFm1fQMNqstY7NqegKb1ZaxWTU9w9Ka1f5qmDcwHN7VP5x13OsyBW8eoTeqMeWRSb1NhvW3/bVwbrGqGWxWTc9gs9oyNqumJ7BZbRmbVdMzLK1ZHaiGO6RnB0fCicWqToExq4dI9+ZLpu1sIR0rbZUvdRCVajhdenWL72uyWTU9g81qy9ismp7AZrVlbFZNz7DUZrUWHlGd/Q/TVX8vVnUKvLrmSun3+ZJpO3Sh/Zx0Yb7UQcwYCRv1V8Pug5dkaxWrmsFm1fQMNqstY7NqegKb1ZaxWTU9w9Ka1Uo13MhcM5VaRpCsk8Cs3iNx7mYCqErPSVflS53ErGz54p1NPCyaxWbV9Aw2qy1js2p6ApvVlrFZNT3DUo9ZHc4OrAyHOf0jodN6c2JWH5JsVieI+dKfpGvzpd7BZtX0DDarLWOzanoCm9WWsVk1PcPSmtW+2dnU1eaFGVOqYZViVafAfT5PeiZfMm3nIum7EhHWzoKI6sLshY6sGrNkbFZbxmbV9AQ2qy1js2p6hqU1qx0MEyztKJ2ZL5m2Q+afJ+2SL3UQM4bCbv3VcGalljFJVLPYrJqewWa1ZWxWTU9gs9oyNqumZ+hhswpEgyuL/jXthoKWvtitRCcnlMFamDtQDR+tDIdjilXNYLNqegab1ZaxWTU9gc1qy9ismp5hac3q4PxsrYFa2Kzv8mxqscqY7oZZxaSfVEZCKxXwpTKrIYTs//2//5frf/7nfxaLZT7rdibbOXI8//u//9v242Kf471ftr2027dZbZmmzSq/VVou8L/pHEa715q5B+M9iyaiXGoFm9WW6VmzyrWdlnUsTySddL91KktrVmVUT1G9/Z7+kbBbscqY7kYX/d2VWvjzwPxwQbGqGVoyq//6r/+affazn83uvvvubN68edmFF16YP+Cj5s6dmz3++OPZ97///eIb4wMPhm9961vZe9/73uzrX/969u///u/FJ+PLv/zLv2Sf+9zn8jz44x//mP3617/OPvShD2VvetObsi996UvZf//3fxcpF/Gf//mf2be//e38OL/2ta/9n8+XFh5Kf/7zn7PPf/7z2dvf/vY8L8bjgRnP433ve1++j//6r//K/vmf/zn7+Mc/nr3lLW/Jnn322SLlsoPz+NOf/pR94QtfyD71qU9lf/jDH4pPmsdmtWWaMqu///3vs1e96lXPKxeuuOKK7BOf+ETb7tFuhnuC++CTn/xkXu5Q/iwLKEfYLuUa5RvlXMrvfve7vIyJ9//f//734pN/QBnxox/9KPvwhz+cfeQjH8mfAU899VT21re+Nfve97436SvQNqst05Nm9ctf/nJ2xx13ZBdffHF+3Vx00UXZ7bffnq9vN9xbf/nLX/JnJfUA6hpuJBwfltasqs5+k8zq1/ur4bhiVafAmNXtpbPyJdN2+qVNpI7rhz0wEqqVWvZU/0g4vljVDC2Z1d/85jfZzTffnPFgWn/99bMtttgi23rrrZ+nI488MjesbBdTOR5QaaNQvvTSS7M3v/nNuYkeb9gHD4P7778/Nz/kBQ/nSy65JNt1112zBQsWZL/85S+L1Iug0kdljcr7K1/5yrxCtKzBILz//e/PHnjggezTn/70uDyk/u3f/i1717velec3xhzTjZEk72m4+OpXv1qkXHbwG3MNvf71r89uu+22PO8xya2wFGb1hRKFdLfA+TRDKbPKb/Xb3/42z+ejjz4622yzzRaXB7vvvntuWDFBXP+kNa3zk5/8JC+DL7vssuyb3/xmsXbp4P6mks29TNnNb5ny05/+NF9//vnnZw8++GDeQFbPP/3TP+UNV9VqNbvlllty40uZcc899+QNeV1sVuNQom6B82mmnOgps0o9gPvu1ltvzQ466KBsm222WVzWHXjggfm1T4NOO+okKTQ2feADH8jrATRmjVfdq9dZ6m7AtfDAQC38hghrsapT4D6/RPpGvmTaztHSa6UT86UOYkY17FqphdMqQ2HzYlUztGRWf/GLX2SXX355dvDBB2fXXHNNXhn52Mc+tlhUVoeGhrL58+dnH/zgB/Po43hAyz6m6bzzzste85rX5K2K4w2RxYcffjh77LHHsu985zvZf/zHf+QP59NPPz2bOnVqtu++++ZRhTSCRPSRPDnnnHOyl7/85ePyAMM4Evn42c9+luf3eFQKMd1URKmsEjnjHPkNMOxUnjnPZQ3nQbTmM5/5TPbQQw9lb3jDG/JoTStmp0Wz+iKJSutK+VLnQ4V6Y2mz4v8ylDKrVJRe+9rXZi972cuyOXPm5A00sUygsQGzeuONN+aNKeNxrfQKXPs/+MEP8rKXni3LqpGI+/jd7353xu9MmV7/G7H8zne+MzvllFPyRjkiqPXlzHe/+93spptuyn//J554In9WYHopH9pRPi8tLZrV1aUtpbXzpe5gTYl3QJY9p54yqzS6UZ5xndNwg0GknIsNxkRaaUiisaadDTTtqAeYZRJZvU9G9ZcD1XBysapToM5wm/S/+ZJpO8PSr6Ur8qUOYubsbNWpF2d9m8wNrVSmWzarV155ZW6+aL2rh6jek08+mVdoKLh/+MMfFp8sgu5g9913X3bVVVdlN9xwQ542jUbyP4X8N77xjbyCFAtcKj2YlmeeeSb71a9+lf9PRHPnnXfOTjjhhNy4xvMg+vbFL34xf5CwHyp2VMTSrm2xe+nb3va2vGJF1OA973lPXmmrh2Mg8sBD6dprr83TxVZLIgZUGl/84hdnu+yyS543dE+O/PWvf833wQPs1a9+9fOM7M9//vN8vxwjuu666/KKfTwGIqbkBRUAKnsxLzCJVBaJhGCaSc+2aM0lbyI//vGPs9e97nX5MVMJpSvyRz/60fyY2XaEShoPWvIp5hfREPKaffI5D2OMKvl90kkn5VFtKqFUnKkw85BMYR3RULZHSzP7JvIS4YHKufEbUDleuHBhdvXVV+e/GetSU89vRSMAXa7YL79FszRhVmdIh0uXSY9LvNKqT+oGVpYYMvAa6WrpWGk9aUmMaVZptMGEDg8P5w033GspVKJiLwiuRbqopRCluOuuu/JrhYgh30/LJK4brkXKBLqico9QdlCOcA3RFZZrmmuW7VMWEAkEzB33AfvkvqTMosGJe+0Vr3hFXh7VRyC4rjHeXI+k4x5iGxEaUCinKGPo7ooxp/sfaek9wX7qu8lyPBwX2+Q8SZeWjTFaw31G914+J+3111+fl5HxfuU+f+SRR7IDDjggj1hzr7I/fgM+o6dD3Ac9QMivMg1kNAKxT/KEe7e+BwPlAHnIMA8q6ZS/7DNCPtPVG7NHYyZlFtFXygf+T39PynJ+Y86N4+Q5wW/LPhB5SxlAeRZNLvviXMgbfgvyl7Q8I9g+1wEVdH4blmncYtuI64XjGKvHSZNmdRvpNOlmiXKCMqNboPH7dukBiVf77S2tJo1Gz5hVri/KgyOOOCK/3+ufe9SPaKin4ZpnWdrow3XNc4j7k3KKRt90uBTXNGUZ1zINszSKUzehkYi6R7wfYmMt5RZlFfUAGtLTegDHEaEOwjCaO++8M78faFDiXkrLKM6L8izeN5Qr7Le+0Yp7l6EANDySjugyZeDSDNHpNJbWrC56g0d4qK8W9ixWdQqY1Uckzt1MAFRG/0mi8tZLLJVZPfvss/NCqr4CQEHKeswHFVAqg0DBSiUDw7H99ttnG2+8cbb55pvnRpOCmUKYbTHGie1ToSR9LJipjGKAqaBSqBJNpctNX19fttFGG+UFJy37VLKovFER2nvvvbNNNtkk22CDDbJZs2blFR0Kbio5pKV1lErfMccckx8HDx/MXz0cO2MyeUix//SBzPGyLx5Qp512WnbmmWfmldLYTQ5zGs0qx0yli+3xUKJiyEONY0TrrbdeHrHGvGHIyDsMHxVh9skDBXiA8BCjYk9FmfygksoDBtNJnpEGc8z2yOuXvvSludk89dRT84cllX/ym4oslUyOe8MNN8w23XTT/C+FMfvmOHlAcax77LFHnt90d+Jhy/eoOHPuPGABY0Lesg9+X86LblLRxJAfHB+meWRkJP9NuZboTv6iF70o23bbbXPTw++dXlvkBedLBRxDzm/YDGOY1RWlQYkIyYXSx6V/l/4qUTjzWTfAtPM3Sf8i/af0OakmMQ4Fk46ZrWdMs8o1glFkzBbXXNr4FKGMwQxxj6XXCvcVFR+uN64V/hK9w6BhHrhWMDJ0T6VM4bo744wz8jKEyjENVtxXlCv77bdffq8ffvjh+e/NPcQ9Q0WP77Jvri0+53rba6+98uOOFTvuS46dHhCHHHJIfj1yP/A/1z+GMd4zNJ5g2k488cT8eNgWwyIYDkC5R2MMx46o0FJ2HHfccfk2uR8pmyhLMLFsk/1ybVOGYJiOP/74PN3MmTPz46XsYr8YRkw/ZcXAwEBeaabxjO3Q84FyjO9x3JhZ7kPyj3NbEnH8HcfJthqlJ584NwwrBpDfPUJDIGUQeUGeUnFGjz76aFar1fKygrzgN+V4KW/4DThOGsD4fai4sx0q0vze5EeszFMG8fvxPSrRbIdjpKzh2qRsoEzDlNI4Rv6ybfKCYSkYAxo9OIbRKGFWiaISbcS83Sl9X/oP6edSN717cAfpY9K/Sb+X3iTR82x9iYY7zGkKwyR6wqxyD1K2cJ9xXdOwU3+vvOMd78jvUcq7eM3RkML3KC+4LinreCbTUMPzDOPIs5H6BI3fL3nJS/IuxlyPPF8pt2LdIzYSUZdhm5hP7n0aePjLPc+zlv1SxvIspQGJsol9M0SDug8Gl88RdSYaAPfZZ5/82ChHOUfKTuoSlFHsl3KI3myU02xru+22y+s2NAKynWafy53I0prVvnnZ+tOqYfs15oROG3qIWeWcqUeZCYDK2u+ka/Kl3mFczCqFOZVHxi0RNYwVQSo2VIYoAKnsELmgMsJYTpaJvFEZJEJDN2IqRVQ8YuWCAoK0FKgUsrFwxYzxYOBzInBUzGjRxAjRkohxpOJDBRizFrvp0vrIOWDAqARRuPMgaDQWi/R0aeZ4qSillTQqYbQusk8ePBhXjp0KFw8xHkKYVSrVVASpQPPgIo/OPffc/EGEWUdU2M4666z8L+dBKymVLB4+PIRi6yUVW84do8dvQESGB2PMR7ZPhIauSLGrUozqUInDOHJ8HAsPR34rHoqkYz+cJ8t8l3yhsk2eY4bJb9JjOPgNMNKzZ8/OJ1riQcVvxvFT2eY3wFSTHzzgWCYdeczxkf9cD2yX46clmco6D2nykt8zwkOfBgx+Uyql/CbNsASzSkVrL+kW6UPSdyUqoDyMnpZIv6rUDfCwYVIHzPj/SH+XflAs3yMdJGHcU5ZoVrn/uZe4Z7kOuJ6otNTDfUyljGsmRiNojKKixTXANcW1gtHh2qNyxrWNecGQ0BjFWFj2w7XMdcp3uFboesw9zj2EUaHXB9cUxo7yiAoW1xUNU3wHU8X9x/Fyv2GeuBcwRJRZfJ90XI9cc5QvVMi4hkjD+bH/nXbaKTfMHDMNTNyTGFKOn0oelUmudSIR3Kvcj9zPlAOUZdwjGGO2SU8JKpR77rlnXlZwLtwT7BezhaHnHqQMYF8nn3xy3sgWhyQQOeG+Yz+cG8dHXnDPEdXmXhrNqPEbkteUD6SNDXr1UGll35RZnGsaIee+p+GK/XG+5BHnRZlPucv2OQbKdxocyF+MLL8F/3MupKXxgvPkM66N2M2Za4X9cq1wfuQrZQDlENcmESGuPYwCx4B5JQ/Ia/KVchlDnkaD66kzq8xjkTIgnSq9SqJc+JVE2j9Lr5O6aWbPdSTqQ89K8Ry/Jj0pjUg06qX0jFnlec51RhmBYeE+ZDmFMot7kkYfrjeue65Dns/cxzT0cN9TllEOUCbwrKdhjfuEMgTTyLOObfPM5NlMPYWyL/ayoB7CPcL1Tr2GegCNhewn3sfxXuK78X6jXKBcYZn9UiZTznF/cQ+yD8o0GrZ5brNtzoFzopylbCZ9rCtw/1JuUr7X1we7kaU1q1MWZi+YMitbfkqWddpcGDRSHSLRFdhMAIdJD0utvKt0QpkxlG3YXw27Tp8XiIo0S0tmlQKJBz/RBh7sRN8wFlQWiD5QyFEIU4jSokdlkQIM80V6TCNjPoAoKJFBTBsVOSomVD4ww2yPClysYNFqSCGJMcQAs00qRRSUFMxUrngwUJEhwkPhyb4jVOpo1WQ9hT0VbCqrVH6I8i0JKmk8bHh4xEliIphVCn8ePlTEYsWUQp3IAg8gji+aVY6Jgp9KFfmVRqHYT3yIUcHmoUd3O/KDyiEVOc6TvGQfPPhYx2/CtlnH94hCYhB5iLEc85CHDhV7HkCxqy1/eWjVP3B5QJK3PIw4XiBqG/Ob/MdAUlHkePk+FVR+P6Ir/KYxSs15UfEmKsJ5xMo1D0zSYbAjGIKjjjoqr9ByXhG2wX651nigN9vtqDCrf9I1f0J+9S+KkBwoEUllzHqsfEb9TKLLbLeMV41gWGdJ35bS8yWC8hZprnSotKEE+8is/nQ0s0rljWuIhg2ujfibjwXfo8GEBguui2h8uCa5llnHNcD1jRGizMHQcA9yXwDXKBU77ut4D1OWcY1w7XO90mODVn+2R4SSylyEzzGi3KsYYiptfA8Dy7YjNFSdd965eVrKNEwSkV+6/R922GF5WQKYM+4Xrmv2wzIVSMpCzHYs94D7hGsfU833uWe5zzHfVExjYwyVf8wW+47DLihXqFSSJ+QPlVIaxPgNuM4jbIN7hX1h7hoZUNaRR5TDHAvnPZqp5TfjWCl3qBBT9gHboPGJchDDGqOhlLNEgygfOHbyguuIcgozH6E7NOdHRInyjjKR8yHPOJ5/+/dFvUwop3hO8BfzSv5SJlC2kI5KJM8ffkP2FWH7/Nb8xiXN6keldfOrf1F3X+oG9Lwi2vhfUnrffFB6sdRt0JvkDulvUnq+35LulTDudGNcQ4LresGsAtcdho7hMLvttltuWGm0jfUg7rf0XuO6437huYt5jPAc53qm3KRcoT7EdUwvMMogvgfcjzxfiYbSIMV6tk95xfdZxz1HuUCDH+u43qknYU4xqtxPNMhBvN9ZR/nBdyizqHvEshWoK3Es1FOoi1HGYmgpL9Pz457lM8pem9Wuh2jwFov+Ne2GyQQYtzUtX+ogplfD6ZVaeJV0QLGqGVoyqxSIGMYdd9wxW3vttfMuuHS1ouvoWmutlXcfoVCmIkPhS6FGJYACPBasjLOIUPDSok9LJZVCKjWxG3BqVunqilnFHNMayLaJcvIQ4MFBxYyIDRUmHiJUaKikUDATaaTApXJIZYqKDtE5uvHQ6k/hkxa+9bBdtse+MdSxOy5wnlRG2S4VdcT5UHGkAkd+EY1gmQosD4yYJ2yXCh3HiCGkIkhli4cXlUz2w8ONBwQtsFR2MW2YTiqwGHC2gaJZJRJKXkczSx5GyA8qgJw3D0fMJflI/rANjoHt8/vQakp+c16sp6LKecT8ptLHdUPlk3Q8sPguDy22T2WabQIPMKIapKMhAVOPiWaZY0wrOHyfNJjt1KxiYshPjocKavpZGQqzSoTgXInubBdLT0kYWCKp/09KK2U/kujat5ZEY1C3iPM5SnpGSs83SOTDP0tflBizu5F0jMzqz0Yzq1xD3Jtcs1z36fW2JDBYVMwwFkTBYm8F7nfuTdbTmMS1TKWO+xrTg0nkmgWuOSpZ3H+xBwfXBQ1WGF3KE0wa91I8Pox1JBogrsF431AhpPxJz4P7ge9irDFZNNIQjaWHAvdZPHbuE46PfdNzBNPFNYsRY5tc2xwP9zuNNdzDGETWc47kAxHg2IUPiM5QCaYMiGaVLsak5V7GlFHB5FzZHpVl8oJ7kf2Qz7EcbgT3NeUCeUbZk0ZLG8G5k2c0vlEhZrvsn4ouvxn5wn4hmnfuc/KBcya/+C0oS9gWx8k+Md7x++Qnn/M9KtU/+elPsi99+Uv5OVKOUzZQZvPswNhTqeZ/fk8+5zlDA1jMA0R5S0+XJZXziVn9hIQBpTvs/RLdfRkSQNf59J5B75J2khrda52smRKVcc47PV96Y9A9+DfSOyTKkg2knplgCSj3uDdpjGG+ilgP4i9Gk3Im9qziWqV+QyMu9wDXI2UF1z33MNccZSH3KvUJ6iRc+7EMoizgPufeIS3lVHzWUl5RV+JeogEX40k6Gs35DuUmZpXj4Zgj1Jeoi/AMJw2mlGcrDYMcH3UCIr4cN9vHGLNfylrKHrYd7y/uf+oDsczqdpbarM7OVthgYbZyHl01phcYqIVrB6rhO5VqoJWzWZY6sooppUWRAptKF+MsuImp2FIpi2DIqIBRGSEykkYTKWT5PmaMyg+VmlgAp2YVc0Ulh/1RWYvRDSpNFNAU9FSO+JyxWozP4BgZ00Wkji57jJGiQsdDggoxhTjHhElcUkFL5Q+DzoOFh3Fa6PNwobJLJTGOuaJSRYWVShUFPBUnTB6Ff6xoc7w8UDBmHCNRn/333z/v/sM6WlI5JvKHhwP5wwONhwYmlYcGppUHDvkbH1KYTPbHQ40oZprX/M+2yINYqaDyRkWZcyCfOA66+jIGj6gVJpgHEsY5zW/MI0ac35rfhfOkkknlErPK78cDOcJvxjHHCBHHSAWcSm7aeEF+Ykqo5EYTAFQk+R7nzj6iOSkLZrW/v59K1hMSk4fQrQ2DllbEUlFJ+7z0XukDEhGUbhDn82kJ497ovKO+JzEu7xGZ1T+MZlapjLUSWeVepWWfa4X7n+s8wnXK/cY2uQ+4Vmn8YB3L7BMwq1TqMHPcA8B1xjVLGRW7r3E/cq/HCEGE647utlz7XNOUP1x73Ofp9cX1H8so7lmOj21SdrA+XudUFjFbcXuk45rF1FKh5d6mSy/3O+NrKSuJCtP4Q3mEWeT+4LyAe5OGOa55DBgVXdbR2Ma9zf0TJ0MiHd0LMfiM5ec+pjwg75Zk0LivKVu5D2lMo7K6JCj7+N3Id6I25Du/OcfHvomWx+gKz5XUrHJelB+UzzwrOEbE8ZIX/KWMpJGL8oSGTfbB//REofyj3CCyw29LIwllCuaZ64cylfzgWqHBkm2T31TCKavGIjGrmNO7JLr8Mp9F/b2R6pcSwwfeJ9Xfay1quUKNPmuLKO/eLRFFxZw2Om9E4xZpb+BvL5nVCPc4zxauc8oCnvtcQzRu0bhMfYD7ll4hjGlnjgruf65LelFw3VNPoeGd657ygvs2bYDj/uX6xVRyj3EvUQ/gniUdZRHXLgYz1gMohzBV1DsoJ6jzxLpHCt+hzsRwKHqKpHUmxpIzvpXvU0fgfua+o5yP9y51wNiw3issrVmtjGT7DQxnsyu1zBFK0xsMjIQ7ZFR/3z8SzitWNcMyGbMaK0IUhFSWMFoU2rRyx0oLlTgKYyqmmNW0Ikglg4Ke7xG1oCBm+1TQaLmM248FLwU2FVJa8lLzxEOBbVGpplJI5RDDxRgw/lIIE7UggkAkAYNKhZaKKce6JKgIYvI4Lh7Go5lVoqAcLy2OVIKpbGPaqCTzP/lDoc6DhQcMBT2VtniMVOJ4aFApJvoI5CtRmhgtwPRzLGyTiiWtt5x3fEhRueNBRess58fDNEK+83CjMYDzIA+JSFDxpaJIlyaOBZF/PGCp+HM+ZcwqDRnsn2XOmwdhJEaD+A15eHMunBPnlkZJaS2mws41lJpV9reMzOpbpYckxqbWV75SkZbK2mckJiLCuHaDPith1JlkqdF5R/1EYnKpV8ms/nE0s8o9zr2EyaMiFbuDN4JygGuW6yI2bHCt8FtjXiNcD1SguA7YHlF5yg2OAYMSzSr3CNcTjULRjFBmcI9jdBqZVe79CNc+1xMVTO5XjChdUbnPuecjXP+xjCIN1x49Ayg7MEqYWaCyianivkvNKhGVeG/F+52GKe4vyg7uHcoOzCplZIz+0liFMaVsaWRWSRvHdAL7Iy/iPqhwYtyoqFLmNGqQw+BxLxKhxKynv8NoxDIaE4gBjQ2R5DHHFuE3Sc0q50k5GMu6eJwYdyrIlF+UpzTA8TuRh5Q5NMBRnvAZ2+B/DDO/BfuMPVaA/MEkEHFn2zRa8qzi/ud3a1RhjyRm9YcSZcSbpbEadTCz3FeMY62/11rUcoUafdYWUd7R64TeJf8jNTpvhJH9pISx/2i3m1WuLa4RrmvKqNhVP4XnMeUP0dU4FpUygK7CRF4pB7juERMs0SDMM5kyjuc49zgN/5QFsUwDntU8iykHeL4jnqcYVhrJKRMpf2I9IPYUoTxbklklqMC+MNGY0/o6E8O26GYf64g8h9kHRjWWY5SDlMWUk+4GPDYyqVcM1MKnBqqhE2cQp8fFzov+Ne2GQcOE4+tnuJv0VGrhBunHlZHQzLsjI0tlVimMqQSmBSDjH6hQ8hl/Y7SDAp7CDJNEwUyFMkLllYol3U0wq7Sex+5sMeJGJYuKFOPOqJzw/dQ8vUEVTfZBYU3Bi1HDBNH6SCQFxbFvpCEt3Vh4KJQxqzxEqCBhlGMkI5KaVVofI1SyqUxSOeMYqTBRwcJUUxGjQot5puDn+FhHhY5tUYGnMhwhT3gwUannL/lFfvBw4AHKQ43z5SFF9znymn2T12nUkookFXPyl2gK36MSR+SHfCVPOBYenFTiMQt0saPCX5/fsQsRvzOVUSqtPPgwCDwciX7E3z8aGtZT4eeBTEWTBy8P9rJmlXzAHHAcqQkvA+dZTLBE99+tpSslXm793xJdgOujrJg1XttA6ycTinSLOB/e7/ZNKT1fRD5QOSWydKu0nXSyzOrPRzOrwO/Efcdvi3Fo9Ntwz9Fghenk2uOa4vfkGsCYxooZ9zrGjWsU88t1xT3H99gHRq4Zsxq7AXPtcT+k5o5tcR9SLnHfcM/yP1GR9L6hzGN73MPcd5wv92c0bLEXSb1ZjaYWI8/xs33uc+4xyiLKJPKK+5j15AP3flmzyjkRkQXWUy5xz/E5+6C8IR9j7wUq0vVwD3Ov8/uyLSrFY0HFN/Y0oTyiXMQUkzeY3wj5lJpVykrKKPKH34ZKdiz7yAsatMgLzpuGDc6X+5ZtI6K2fIdKO+Ya8ZvyHKKMIQ/4y7XGvtk2ZTJlCb8Vz5cYBW8E3yvMKj0P9pGY9ZfJk+jyyn1RP1QAvV/aV+qmcoJzQfRA+VcpPV/yANHzhInZTpcoT+/udrPKtcWzirKC59Bo58rnPPe572gQo5zi/uU+4B7guoxlAKIM4PlGoxfGlvuK52f6/OPa5rvcb9yr3HM8szGtlD98zr3MvcE9xvOV+5l7jWc+z/S03sK5UI7SOMW+qDNRdqd1pnh81H/4LvugDGF/3Kuk4XnN9infuNcalh/EG0bv3NFxLK1ZlVG9u1INPxkYDicVqzoFPBLH/PZ8ybQdZvHjXasvyZc6CJnUo2RWb+qvht2LVc3QslmlMCVaQOsdlYsIhoaCmYghpiaOi6TyQcFJ5ZPvxUKeApNtUFBSSSM9FTpaA6k0xooYBSWVQrqnUhBHs0pkhv1gXoCCkooqDwU+Y/sRCmEqkLQ2UthSsGJWqcTwQFkSPEQwgxTIVCRjKz5Es0rFCUMWoYDH1DGjHl2Q6fbDcbJv0vEww3ynRpl84byp3FLBjnC+VPpozSTyShSDvIrnxwOU8yZvqBzTLY/xtSzz8ItQYcQgYyo4j7jd2N03QkWRCjK/F9Eojpm8JU85bs6D35TKOQ9Ojpffjd+Jv5wX0WEqoUALNFFl1mMEyHsqqzzAaX1Ozc1oZhWTTyWALp+cI/tuhsKsMj71+PzqnzLlRRITDTHrJePOmGAorZT9WKIi1o0cIWHU0/Ml0koXQLr0MayASisscYIl4Nrgvue+i68oSqGCw++NseTa5TrnWuEapJGK8iJOPMJ9TSSNBi+MFtcy9y73HqYUw9KMWeXexRRTxnD9YWwimGcMKPcvDTXclzTyMLadciLCPc73uW+I2nE/sG2Oj0YsliGaVfZNWUO5yrmyfY4foxXBGGGeEOaSz0hDOcg5wmhmlfuKSij3EiaPMpjj4jhTM0ZlkrKa347/680qy5R9GEH2wf3G9seCCi4VW8o0Xkt16KGH5t/nWDlmYDtsj/uY64JyCJPLOZIf0ZBHOHZ+D/KBawPRsMBvy+/BeVDmEZXn98Sscy3FcXY8Z/hL+UHFPCX26uFvSbP6EYkZcamc8Wyl5xKzZX9Bqm/Ueo+0ldRt8F7VG6V6s0rUmQnphiQmp+yX4NpuN6tc29zrXPs8RzGs9dFVrkPqAtSreFZxD1B+cf1yvWLyIpRjXMs8T7l3aOihTKNOwnWfPv+A73Kf0QuBekAsK2I9gDIwmlXKOcoJ7j+ufcrkWG5ynVNOMfyAe5JnPNui3I1pgLKBOgzmjH1z/1GHSM+Bsp9GNowz9yvl9//BZvV5yKw+IrP6R+acKVZ1CvHVNUy6ZiYAIi2Mz8KwdhQzRsL0gQVh06lDWSuTQ7VkVimoKHQZa8VEN7ELXISWfQo/zAqtfxgTClNMLhUMjBGVLFrhMTAYHbpsYYSoBFFZ4XuYWtJRyFIxxMTx2hX2TYWUhwKVDyq7mE4KXY6FigoFPZU7IgaxEkQlhH1TkeV8McKkoSCPFeXRwJzSVY5KH3/T/MJUcpy0TlJYp5U9ohl8xntJ6TLDvnkgkYdU2MhDKoocI2L7mFsq0LSMxoofDwDM1uabb56/W5G8oGIWoasREVAq7nyP34D8JfLCg4uHEtvnwcWDjrygsogp5QHFPvkuFWcKYn4XDCMzJcfxgOQ3vzcVflpSyW+MNsfPb832OXcecFTieS1HjHpgSGlUoBGC42J77It98hulXS5JjzFgu2nEle+Qlt+WfE4bDMqQRFbrHxC8W/RgiS6vX5J4ZyLRViIpH5Ywt90yI3Ccev6dEu+RJULCLMh0C361dJwUZ/eMHCKzusT3rALXEg06zDZNgwb3MxUbxPVEZYjfm/U05ACVKSpxXCsYPH577hGuPcS9T+UQI8m1RFQBExkrVFxzXMuUF7FiR6WPe4F7hGuNMoF0XFPc/6TFOPEZ9wYNMpQP3Jdsg+uda5wyheud+4NygnR0h+OaJArC9ym7yJdogDgvzo99cwyYV/KF7VDOcI7cnxwP58K4SkwnFXxMOdFKysJolLn/ySMiyuyLvOQeo/ygckg5QWWSCit/OWbuD9KxD8ph8o0yi2OM5UmE86BxiXKZc0sbHpdErGTTlVHXR/5uZO7xNKrKcdIIxX1M3mEiuYcpL6mMk0dU0jlO8pxukphaIunx3iZPSEeZxV/KbMqhGHmnQYO8JT1lJJ/T+Mb2MRRsm4YtDDJ5SJnVMPJTkJjVRq+uYXZgZg7n3mEm7T9IpP2t9KDEu4q7BeoGmNE4CRuVU0wqE0/RmNWoG2DPTLDE/cn1x3XGs5VrmnuOa5yyjvKPe5PGVa5XGliIsnJvcx1SzlF+UGfgGqYcot5CgyzXLHUcyqn6HiqxIW/LLbfkWZaXS2ljN+m5jylnKTu539gXdRDKBobocJw08FAeUgfhnqChi+NiexhwjoFj57lO2Rx7qfHM5juIiC7pOH/KGBrnKBvTAEG3stTdgEfCApnVjwxWw6HFqk4Bs/qAxLmbCQCT+pxEt8BeouXIKhUHDA4FWn0Fh9Z6Kg0YJcZkUdDR+khLOUaGyhkvkqbAxcSRhkoVRpXvUpmgAkUUg8H9FApUdihsac2MswFTKMYoLmNUeXhQiaHiQsFPJRhzyz7YDmMrqFhS+eNYKHx52PA9KkVLguNi21SkaTWNEV+g0sY5UUlifVohZD88HKgAUeHiPFnHQ4e8o7LK+XGM/B+jDjwkqMiRNsIDEvPIpAxUxNLIIr8JlUUMAQ8RjpcHJBVmxqKS15gIjhNzz2+D4aPSSWMCDynGq5COcTQxGsPDlcomLbZUPjkXfnfSUFnmIY0B5uFI1Af4/dg2D1zMNdvcfvvt8/3zoOV64fioQHO85En6UGabGFsenmnLMr8bD3COi/Otr3iPRWJWG3WZ5z2qvKqFKMoCiQjK/0pU0hi7xjsWu4FVJCqbcYZPoqsLJbo8bizVG1VY4ntWI/we3MPkM+9D5Z7jukbMHE7lLUa2+P0hGgzuQ+4DrhWMD404VPowmtznVKgwcrTgU7GKZpVrjophvEaBBiLuBRpUMCpsg+uWa5z7ijKE8Vnsj8gg9zTXGdc3FUsikFzT3GecA8cUXydDZYx9cw1TceM+Yn0aWcU8sW+ua5Y5frZPZZV8YZI38oQx4RhyyjAqqTTAcY406HCOQJ5yPJg59kXlEDDAlBWUacziSZ7zHfIhTlbEPhhzRuR3tC7AlBHcb5SpmOxGY/BGg0ZF8pPz4RhoUEzvSfKT8+Y+5n6mIs8x8HuwL8bC8VtznDwPaCCgTCQvY4WX7/ObU2ZRwY4RHf5isNku5hbYN2aZ35zjYqwq2+b34/ux4WJJ5UadWd00v/qfD69t2FxiBtxHJSZXosGH11x1Uy8MjDfRZWY/pgxk8qhzpG0lIs4vlFJ65j2rwHVGLwyuTXo7xeuY+45GaRpduN5jIxbXM9csRhLzR28E7hvKABqhKMcoU2g8oiGNOgn3cvr8i9Awxf3GO6PTsaQQe1jxXCVyyv3Gdil3KX95xsd7gv3SYM0+ue5jnYm6FGl4dvOcx1DTe4N0PKcpx6izcQ6k43yps5AflJ+9wFKb1eHw4v5qOG7qUBZfD9cpYFZ5bZXN6gRB5ZRKLJW2XqIls0rhR+WPShmtelQ466Hwiy14VMZS00XFk8ocBhSTQ8WSClkKlTcqg1QwMa1E1CjEWUcByzHEyhAtiDw0MMUxQkeli/RUaKh8UHlhG+k4NCqSHGNs8V8S7IsHFAaLY6fiEyvMbJOHDcdFZZ20KVS+MJoYNR4IsbLEg4V1VEI5Rh5OVDjJH6IvRJPiPoCoDRUxzCgPjzTfyQ8q/XyetrTyu1KRxVjyW9BFiBZVHlRsH2J0hdZRfhPynH1g5qnIxso0kL9UNDlWtouB57z5XWJFEsgDzjlGrogqkZ5zjnCcHC/ny/FHiIyRvzyUY6SGz6moU6mmdZhjbhb2vwSzmsJrbRjTyTsGeQn+VRKV1G6AKDLvUaXb833SWVKjSnlKKbMa4V7inuae47pGNFxQXjS6z7hWmDSJBjCuFSp6tNKn0Xbuc0wJ1xQVpmhmuOa4Vqg8xGuF+417gfufcoX1pKGhhuuWyhfXZSwT0us2wrVJ4xNpMESYxXSoAA0y9Gzg/uDYY7SOco907JsGG5YjmDuiFpwjecLxUG5Eg8g9xr1GJCQ23pA3VHjZB/vC0ALlKfcHXQIx1tyDnHfsVRL3wf3C/TVaJZLjoxGIfOWcGxna0eB4OX7KXe7/tMEJOHbScJyUZ2kZT1oaIyj/OU4q56SJlfsIecO5s33Ko5ifbJcyi/IjNlJEKNcxvTSAsG3ygnIvLXtGg+3zHV3zo5nVlF2lS6XHJCZtO1bqFujWTCPdGyTeL8tEMEvqvUWPjZ56dQ3QLZYGJuooXDcIw8e92iiCz7ON5zCNwFyX1CW4h2L9iPuUe5w6CWVafO6mUIbSMES9hzIl3Q/pMY3cF2kDPOUnEVDKYY4RM8vzNC0XaOSn3MJ4koayj4YujjmF8o1yk3KRdNxnfK+VZ3KnsrRmdcpZ2cpTLslW5xU2xZpOgfucOgONV2YCoPLKw+mCfKmDqCwIa9AVeN1qIGLSLC2Z1WbAmNWbN2A9FSMqnY0+j5CONEtqDQc+b7SvsvspCw8CKodETXgYNDLqzcKxxWNcVvAQotLGw4zKKhUIKnccNw8hIpT1lfRm8mq0/K5nafOf73AuVFhp0aXSicluJa+aMKsRuv4SSUCYvG6AiAhjUXeUGkVRG9GUWQV+t3hdN3NNLc21MhoYHhpYqETS04CGnnhsS9oPx0O6ZXk8bCfmCdtfWthe/X0Y83FZ7WO84Jjj78DfZUm6bZTmz5Jo0qxGeI7yTtZOi5IsiT6JcyIPiJqORU+aVUjvtzLXMunjtdnO+7Ps/RbPhzSj3Tfjee92AkttVjsXygJ6YB2UL5m2w0QrZH7Zh9OkYXAoHFKphssHRrJWppIed7PabRDhI/pB17bYfXAyQrSB42OyG7oK0o2RLj10HyKyhOlu1PI72eChSLSaKAwGOx3P1iwtmFWgcF6x+NsNxPOhclmWps3qZAKzSg8GIgB0m6uPABoTadGsAo1AnRYlWRJ092tmnH7PmlXTe/SwWQXKulaCY6aXkVFdMFALX+ivZcxq2iw2qy1AVzW6D9Ndj+jlZITjotsl49+YVAYxJpYJXuie2CnQysv4PLpK0RUQ49oqLZpV0+Fmlcg83YLpZko3+7G6/JveZSnMaq9js2p6hqU1q5WhsPnAUNhncH62VrHKmO6mMhJuqdTCL2VWzy5WNYPNaotQAWacSTu78TQDx0UXZcawMKlIFJWxTuu2w7mQ36hsd75G2Ky2TEebVaC7GtcPY8An6z1rJh6b1ZaxWTU9w1Kb1Wq4cKAW3lAZyvYrVnUS9LhYc9G/xpREF/ydMqt/6B8JvAeuWWxWTc9gs9oyHW9WjSmDzWrL2KyanmFpzerASLhNdffvDlbDCcWqToFhRPtK1+VLpu1sINHCwdjVjkIX/PmVWvZki+9rslk1PYPNasvYrJqewGa1ZWxWTc+w1Ga1Gh6u1MLvptfCacWqToH7fL7EK7vMBMAFwzvFeI9YRzGzlm3RP5wd2FcL6xWrmsFm1fQMNqstY7NqegKb1ZaxWTU9wzKJrFbD9zowssrEa3dJnLuZAKrSc9KV+VIHsfPsbIX8tTX7ZvUv6S6DzarpGWxWW8Zm1fQENqst07Fmddm8lMr0Eks9ZnU4HNVfDVdOHcp2KFZ1CpjVRySb1QliRPqDdE2+1DvYrJqewWa1ZWxWTU9gs9oyNqumZ1has7rGnFDpm5etP+WSbPViVaeAWaUb8A/zJdN2LpV+Ki3Il3oHm1XTM9istozNqukJbFZbxt2ATc+wtGa1g2GCpd2lOfmSaTt7SERX98mXOojBoWyH/mo4bupw1srkUDarpmewWW0Zm1XTE9istozNqukZetisAtFgvx92glhBWk1aMV/qICrD4aKBanjPtOFwRLGqGWxWTc9gs9oyNqumJ7BZbRmbVdMzLK1ZnXpx1ldZENaeuTBbtVhlTHdTqWbXV6rhh9LpxapmsFk1PYPNasvYrJqewGa1ZWxWTc+wtGaV3pADtbBwYDjsVKwyprsZGAl3VWrhzwPVcEGxqhlsVnuZHptZwma1ZWxWTU9gs9oyNqumZ1has0qQSXX2r1SGwzHFqk6BMaubS5123F0DXYBnSJ02M9eUyki4fKAWvirTelKxqhlsVnsZm1VTDptV0xPYrLaMzarpGZbarNbCfTKrv5ROLlZ1Ctzn50lP50um7Rws3Se1Mu5zQpFJ3UcX/sXTq2HbYlUz2KyansFmtWVsVk1PYLPaMjarpmdYWrOqevuDqrf/tlINpxarOgVeXXOL9Pd8ybSdedIvpMvypQ6if25Yc/q8MGPm7JYGatusmp7BZrVlbFZNT2Cz2jI2q6ZnWPpuwOFCmdUnBqph32JVp4BZfVji3M0EUJWek67Kl3oHm1XTM9istozNqukJbFZbxmbV9AxLHVmdFzbtq4U9V5sXGH7YSWBWb5X+M18ybWe+9Cfpunypd7BZNT2DzWrL2KyansBmtWVsVk3PsLRmdcq+2QunzM5WmLIw477pJDheJld6NF8ybedY6Q3Sy/KlDmJgOMzsGw5br1kN/cWqZrBZNT2DzWrL2KyansBmtWVsVk3PsNRmtXNhNuC1pB3yJdN2BqQtJcxbRyGzelKlFh6YNhT2KVY1g82q6RlsVlvGZtX0BDarLWOzanqGZWNWM4yfMb3BQC1cLbP6zYGRlqbAtlk1PYPNasvYrJqewGa1ZWxWTc+wtGa1fyTsprr7y6YPZy8qVhnT3fTXstsr1fBP/bVwbrGqGXKzeuKJJ2Z//etfi9vQmO7kne98ZzYwMGCz2jy5WX300UeLnDSme7nkkktsVpsnN6s777xz9r3vfa/ISWO6k2eeeSbbZpttWjarqrOPVGrhg4O1cEixqpNgyOEmi/41piSVkXCLLvpfyrSeXaxqBszqO44//vjs97//fXEbGtOdvOUtbyGy+i+65s/Mr35TlsNkVn/1wAMPFDlpTHfyX//1X9mFF15IJfQpyWa1PJjV23bcccfs61//epGbxnQnX/ziF7Ott96acuKG/OpvkoFauFOG9YeDtWxWsapT4D4/WnplvmTazvbSWdJO+VIHEcesDoy0NGaVgdIfoTvDlVdemd16662dqdsarLOsOp100knZKquswgPmgvzqN2U5evnll//bEUcc0TBfLatbdP3112e77LILZcTXpS3yq9+UgUrsAzNnzszmzJnTMG8ta9nrtgbrxl80aE2fPp1y4q786m+SgWp4VGb1j9Or4fRiVafAq2uukeihZiYAKq9fky7NlzqIdeaGdadVw/YzaxmTRDVLRXpA+tFyyy3XuXpBg3WW1UC61r8qMfW6Kc/e0qcb5adldaN0vb9e2pCL35QCs1qTGuanZY2PXtBgXXvEtS7NlZpmYCRcI7P6dGU4HFWs6hQwq/dJGHUzAQxLz0lX5kudBO9pmpXpAmppZrEVpW2kl1pWjwjjRY8CUx7GqOwhNcpPy+pG7SitIplyUP9gsphGeWlZ3aqNpKaZNhz27h8OZw3UwmbFqk4Bs0qAy2Z1glgg/Vm6Ll8yxhhjjDHGmGXIjJGw2tSLs74pc8NKxapOgR4UF0qfyZdM2zlP+orUcd2AN9HFPnhJtvqU2dkKxSpjjDHGGGOMWVbQg2Ir6fh8ybSdLaUTpW3zpQ5ioBr2rQyHOdPmhe2KVcYYY4wxxhizLGH44JqL/jWmJAO1UKvUsqf6R4JbOowxxhhjjJmkTBsJG6juvuMaVwQmOTWm+6nUwk2VavhZ//zgd0caY4wxxhgzSemvZWfLrL58sJbtVazqJBi3+sJF/xpTkoGRcJcM65904Z9frDLGGGOMMcZMMioj4ZZKNXxrsPN6RDJmdVeppVf2mKWHV1nsIM3MlzqI/mq4VGb1Q9LRxSpjjDHGGGPMJGNgJDyoOvtvZVhPLVZ1CkRVh6Qf5Eum7TC50tulTrtwpgxWw/aVWnbs9OGMd5wZY4wxxhhjJiEDtXC3jOpPZFpPKlZ1Crxn9Q7J71mdIIal56Qr86UOYoOzspUrC8IaO/vVNcYYY4wxxkxaMKn9w9ntlZGwS7GqU8CsPiLZrE4QNel30tX5kjHGGGOMMcYsQwaGw8w1hsLmU4eyacWqTgGzik8iuGcmACKrv5E6LrJqjDHGGGOM6QSy5Rap4+CY95OuypdM23mpdIt0SL7UQVSGwuaVWjig/7KwbrHKGGOMMcYYY5YlU6UNF/1r2s2qEi/nXS1f6iAGauHcSjW8ua8WOs5oG2OMMcYY0yvMGAmrTb0465syN6xUrDKmuxkYCdfJsH6/UgunFauMMcYYY4wxk4y+oXBYpRpGplXDtsUqY7qbgWq4Sxf9H2VYzy9WGWOMMcYYYyYZAyPhmkotfK4yHI4qVnUKjFmlCzDjVs0EsKJEF2D+dhQyqdfqov9uZX7HvVzYGGOMMcaYnqFSDfdIP1P9/WXFqk7hBdLp0ofyJdN29pGuk/bPlzqIwaFwiC76ywdGsp2LVcYYY4wxxphJxsBIeFj19t9P77zhe7y65kbpP/Ml03YulX4sjeRLHcS61dDfNy9bv7IgrFGsMsYYY4wxxkwyBmphqFIL7+qfnx1YrOoUMKsPSVm+ZNoO71nlJbd+d5AxxhhjjDFmmcPESn1D4ZAOfOUkZvUuyWZ1glgg/UVamC8ZY4wxxhhjzLJkVrbilGpYZcrC7IXFmk6BMasnS2/Ol0zbIfPfJ52VL3UQa80Ng4Pzw8ZTh7JpxSpjjDHGGGOMWVYwG/D60kvyJdN21pF2k/gROorptXD0wHB2e2Uk81TSxhhjjDHGmPGA6OoKi/41piQDtXDuwHB4V4VZxeaGlYrVxhhjjDHGmEkCk6H2V8PufbVwiP5fu1htTHfTP5TNqgyH18qszum7OKw3JcsI0xtjjDHGGGMmA/tmL1yzGjbhdZPSvaq7v7j4pJNYXZq56F9jSjIwLxwpo/oK6QbdBLtOmZ05PG+MMcYYY8wkYcZIWK2vlu3VNxxullG9dbAati8+6hQIhh0s3ZMvmbazmXSUtGW+1EFMr4Zt+0fCOf3VcObUoWyHKY/brBpjjDHGGDNZUD19nUo1XCKj+lBlXrhEdfYNi486BV5dc4X0u3zJtJ2zpc9Ks/OlTuKsbOXVa9nAKroJ1qyG/ikLMwY/G2OMMcYYYyYBvLljoBqukWm9a9pwOCKvs3cWmFWiqn7P6gRRlZ6TrsqXOhUbVWOMMcYYYyYVM2vZwPRaOKh/ODtwlTlh7Q4ctodZfViyWZ0g5kt/kq7Nl4wxxhhjjDFmWfBktjzjVqcszFYs1nQaBMSGpK/nS6btXCx9TyLC2qFky9FKs8FZ2cpTZmW0fhhjjDHGGGPM0sIESztKDJ00E8BO0gXSrvlSB9J3eTZ1oBoO7x8OcwfmBi4mY4wxxhhjjFkWrCJVFv1r2g2h7RcWfzsSBmr318JcmdX3D8wL581cmK2aR1uNMcYYY4wx7WVh9oKpQ9m06fPCdoND2Q59s7Oprpub3mVh9sKptXDAtOFwT181XD51OOyUdwk2xhhjjDHGtJV1q6F/2kg4olINNw5Uw7y1RsIGxUfG9CZrXBEqU4ey/fqr4Tre5bTW3DBYfGSMMcYYY4xpEwMLwk4DtfCYjOpjg9VwKDMCFx91IkSEt5POzJdM2+mTNpY67Z1H/4d1q2GVynA4bWA4mz1jJEwvVhtjjDHGGGPGmyxbrrIgrDFtJBxVqYbHpdOLTzoZhkoyIa1nA54gjpJeJR2fL3U4A8Nh5tShbMNN5oaVilXGGGOMMcaY8WZ2tsK0eWG7abVwdN9QOETGde3ik06GN43cJv1vvmTaDu8N+rV0Rb7URdAV2BFWY4wxxhhj2sCsbPmBeWHT/qGw5ZTuCRxhVh+RsnzJtB3er/pb6ap8qVvIsuUGFoRN++aHPdacGzami3DxiTHGGGOMMWYZMWMkrEb3X2YBxrDmf7sHzOoN0j/nS6bt1KTfS9fkS11Dttzqc8Ng30g4rFINC/qHw8HFB8YYY4wxxphlwcJsxf752YH9tXDQzNm8PrLrwHgfKt2ZL5m2c7j0qHRsvtRNLMxeMK0attfNc1WlFh7or4YzZwxlGxafGmOMMcYYY5qF96hekfX1j4Td+obDSZWRcAmBoS41q8wGzGzGW+RLpu1MldaXmBW4+zg0rDRQCzvqJnqFDOsHK8Nh/+KTvKtw8Z8xxhhjjDGmBDMXZqtOGw57q259a381PIphXbMa+l23NqYFmBlYN9MBMqxnTB/OXpSvXJi9gL71Wy3MVsyXjTHGGGOMMWMyOD9bq68aLqxUs+srtexY3sRRfGSMWSbIrK5SDesMVMO+3GT0sx+ohc3o0qDPXlikMsYYY4wxpreYlS3fNzubOjg/bEwPxenVsC0GNdaR17oyDPZXw3EDI2GfPH33s5a046J/TbshXM8sVz0Wts+W66uF9SrDYX6lGj4nfUTLtYHhsPcac0KlSCSy5bgxic5usDBbGWl5xXyms8UozaKZz1aMafL3vOY3dNIdgpnRZmcrxDQbnKVtaTlfH6H7xKj7S7Y12v7S7hdxf9rP87aV7q/B+Y167Mn+Rj12rWt87BGl0TIR7Zhm1P11al7V7c95VbetZvOq2F/jY49om092SF7Ncl4t3l+H5NWY+4vHXqRpPq8SxjuvdD7OK+fV4v05r5ZdXtXvr5PzSt/ruzxbn6FzMqo1mdJ7VE++vG84vGTxmFRtd+pQNq1H3rZB3syS3pYvmbazqzRP2jNf6iH654Y1+4ezA3UjLuyrhoelG/tr2dmVWrZ4ADUzCk+rhSNlYu+cfnV4QmmfqNTCfN24u8YuxIOXZKsToe2vhWsHFijNlaTLble6o3nXa74hwTundLNfKD1ebOvlAyPZ7HR/vBdWhcMx2t4d+XZGwhPa7tWY6Bmnh9VIQ+HDgHZt/zKOh3Ta5r2DC7JZOq518g0JujwP6ny07mH2p/SvGqyFuYPVsH0slIgka90h+v7NA5dpW5L+v3F6LRykgorxzHlBOjg/20HHMCS9ptjWQ9rOmTMu/0e3j3UuC+vquE/W9+9flAeN86oylO2nzxbl1RX5Od6mcz5qzLyaHy6oLAibF0mmTJ8XZoyVVxTC2v/udXl1T5m80rbmTp8ftosPqLJ5pf3sKA1J5fOqmr2OvKqMhF3K5NXMWsZA/xxdC1vpexdp/SuWmFe17Fh9dmfTeVXLZlXm/OOl3rSylsqrajj0eXlVCzeMmVfV8KC2c3qaV2vXwnpj5RVd+vX5S5Xuuibz6jF95wL93axIssS8ig9pHvB9Q2GPynB2BZ+PmVfD4ZHFeVUNl9JCPVZeUTb9n7yqhuEx86oWTtE53j/A+ZFX1TBSmTd2Xul7R67eQl7pfI7T+rsW59VwuGqsvNI27tb2T1S6mfmGRJm8YjyUtsEM77c0m1fS6WuNhA3yNGJJebXz46q4icV5pWfEmHlVCxdL/8irkXCevrNpkWTUvOqbH14SK3t5XtXCnqXyaiSco88W5dVIeKX2PWfMvBrJrs/zanaRV6psahtj5tXMedn6+jzPq/z8quG1pfKqqrwaCUc0nVdXKq9GwvGl8qpWl1fVcEKZvNKzdptYgc/zqhoO13245LxaEHbSvqqc/+K8Gg6nlckrPet33jc3DUVejeQmYIl51XdZ2FrfvWRxXlXDo6XyqhquTPOKv6Xyqho20fpz2U+pvOK4ySu6gep8qFPlG1pCXs2UAcrTCPJK60/VPh4olVf8NuyzFm4tlVdV5dW8f+QVUcGyecX6pvKqqrzS/vvyvFoEgQ99vsS84jw5X22rprRN5VX+nZJ5lQZhOMY8r3TMo+WVytNF+9OxS4+rfny/8uBM0sRnSY9Bo8D10t/yJdN2LpK+Kw3nS73Ik9nyq2OOVLHVjX1k+iDQzbmOjNO5+uz9g1eHb6mg+KbWPTY4HA7OW6wELUuqNB6nz55QYfEtFRDf0nbeo5v/Ar6fb0ioENklLzhq4QtsS59/XoXYzdr2i4skU1RIroeB1WfvYzv6zrdUuL1uukxZLNwoTDFN2s7LVYh8a+CqfFsf0fKQKr6LxuQKCiQVUtfoAfVUvr9a+IrS36sCd289THKzmpvjkXCG0jw5cLnSXMb+wluV9pTFlXzlj7azj87vPlXovlZs61M69iupeORpBIWY1lPgfoxjGi2v9L0TlO71yudv5fscCe/Wd84bM69q4SYK5iLJlD4qBWPkFRVmbf8wHcvji/OqFj4sLTmvqnle3aOKzkuayqtFD+l9le5+HVszefUNnf+jmLkyeaXrbLEh6r8s7Kr1VKC/uKS8qszPzf/7/5FXejCWyatqmDc1jvUW01Qh1vprS+VVNbx9cV7Vwlv0vSXnVTV8UoblCp3Tlnkaoe9sJi0xrzYgr6jQ18IbmsqrWt6r4kb9Xdy1Z0l5RWWANEwsoW0frvVU5sbOq2r4TMwr6S79PnuOmVdD4ZS1rygqGMorVZ730/oHxsorbUuVPeWV0uR5hflTpXusvJIhPzetjOl63a1UXmE80ryiQWuMvNL/H6KBY+pI2CjfkCiTV3nFfH44U9t5R5m8kp6JeaXtXq5rdnHDoPZVPq9GwhvHzKtadvvivBoJT2t7N9DIVyQZNa947gwuzFYnja6F1fTdI8bMq3lhO6W7TnmzKK9q4cvSnWPm1Uh4s/Li5LVjxXV2tkKZvKoMhc31+Xzt4+Ok0f/l8qqqvNLzs+m8oqI8klemPzBmXtXCq6RFecUkijJXU5MGnNHySs/sPaIBy01MLTtbx/vOJebVgvBSrcfMf73Iq0/omC4bM6+q4WF9b/+tiFKK9S/O+mgwHTOvqmF3rb9D+hLb0jl8Vttbcl4pL/T/q7X/I8kj0pTNKz1vttf3FrKfpvKqqrwaCSepbtKfb2hJeZU0ouZ5VQ0L+GzMvKqFN7GvfJ+18C6lO2fMvJIxHBz6R15NGwkbcM6l8krr+bx0Xg0rr4bDnTTMFUmmcHxj5RXnyfnm591MXiltq3nFMXKsHPNoebXm/LCxvnemdKV0qb5zyKqXZHSD7VUwqw9IWb5k2g4m9TnpynypV5mVLU+Eg5Y6KlfFWio+K1PJ0M2668CVYV8VFPtSqcqjgEWlgIKZAlyFwo568OxLOhUgu/AQofU3TyMwHzzUVMHcizQycS9hmfVFktyI5gUqZo39aXsUIGyfSlieSMfKWIHpPIR1PKSjAqBCdqP02Kks6vub0kqYb0smtW84bJ3P1ha7hKiiocruuhib/NiR/tf5rqP9Fa1n2XK0yvFdtsG2+vTwUmG9CftYlGZRIU+EUt/dPd/fKHlFofl/8kp5PGZeqeBeHD0RZfNKxzVdD9um80rptlqUVwVl80qV5jyvFjSRVyNhn6XJKyLRZfJq8XXcbF7Fbj8Cc6vvl8orPXBfnB87Gg47jZlXeoiSV7FCCuOeV6oEtJpXeYWlhbyirCmSNJdX88I2+nyJeUUkqT6v8gaCEnk1he5gBVNV8SmTV8rTDZvOq6GwG+Zr3PNK58+2FufVJZMvr4i4tpRXMtuqZOZ5xX7L5pXKhrW1n0V5lZXLK/5vKa+0b/2e67Utr5QeQ9FKXnGcpfJqUcPmP/KKyG2JvMqjgElese0x80rH+Ly80jmMmVfKC/IkzyvlUZ5ovPKK/aV5pfPK04xHXmkfzeYV58I5FUlK5xXLLeWV9t90Xuk8Od9W8orvlM4rHUueRpTJK+pH2tc6lD38XfRZUW/sTbg+7pNsVieIBdJfpIX5kjHGGGOMMcYYoEHgbOmD+ZJpO2dKT0mz8yVjjDHGGGOMMUBUeRPpkHzJtJ2NpYOlxZNmGGOMMcYYY4zJYQjC4q7gxhhjjDHGGGOMMcYYY4wxxhhjGsBka4snyjTGGGOMMcYYYyYaxqzuI12TL5m2w8us+QEWv8PNGGOMMcYYY0w+G/B86Zf5kmk7p0ofls7Jl4wxxhhjjDHGAO9ZvUvye1YniKr0nHRlvmSMMcYYY4wxBjCrj0g2qxPEiPQHyf2wjTHGGGOMMeYfYFYvk36cL5m2M1f6mcSPYIwxxhhjjDFmEUywtIc0L18ybWdP6XJp33zJGGOMMcYYY0xkdWntRf+adsN7g1Yr/hpjjDHGGGOMMcYYY4wxxhhjjDHGGGOMMcYYUw7GrG4mHZUvmbZDH+y1ir/GGGOMMcYYYxbxAuk86el8ybSdQ6T7pCPzJWOMMcYYY4wxsIJ0i/Q/+ZJpO+dKX5QuyZeMMcYYY4wxxsAq0r1Sli+ZtnOS9D4J00qfbGOMMcYYY4wxi96acqX063zJtJ0zpc9Jl0krs8IYY4wxxhhjTB5ZPUi6IV8ybedg6WHpdIkfwxhjjDHGGGPMlCkvlAakTfIl03amShtK/AjMdmWMMcYYY4wxxhhjjDHGGGOMMcYYY4wxxhhjzJLhtTX0Qq1I/awwxhhjjDHGGGMmmhkSkysdJx3ICtN+VpQ2lo6S+BHWlIwxxhhjjDGml9lcqknzpWNYYdoPMwC/RHqV9IC0nmSMMcYYY4wxvQwe6bXSQmkbVpj2w3TMG0mPSa8p/jfGGGOMMcaYXuYE6RvSHdJqrDATw6oSL7p9QtpH8o9hjDFmNBgusrN0ijRXonvU5YlYxzu8Z0oTzfISr2bjFW1MkNFu2D9jnmidP1zaWlpJMsYYM7mh/H6p9LB0KivMxEFX4PMkWg0YuzooGWOMMY14kUSXKFqbfyv9QvpJoq9IN0rbSxMJ7w7fTDpaYnIM/m83y0m7SPdLH5QulvokY4wxkxtmAsYTbSLR6GkmEFoOmGSJlnIqIURajTHGmEZsJT0ifU/6uHSzdEmic6R9penSREJE81LpcelCaX1pIthDeoP0dYnI80REeI0xxjQHDZ40OBpjjDGmg9hSuk/6kLRAWkcaDXru0Cq9U6HdpEMkusRiemNFYC2JGelPl86SGCfELIw0pkamSeybiC3f5S/boTsyrxbAjMbtrS2dLX1G+rn0NulMiYbZuE32eajE+jOk/SW+F1lD4hh2kNjfthLdm9nfYRLbouU9ZWWJtMwaybkQ1T1NerX0lDRP8rv6jDHGGGOMMWYcwDDeK0WzuqRZ5DGyF0kvL/SQ9BYJ84gp5WXrdIvFAL5H+oH0Y+nbEhHb7aRoQDGLV0lEdZlngf/fIZEeIzhbilHLOMv976S/S3+S3iXRHZgxt3TpukD6lETX5Z9K7B+DS7cv9okZrUrs7xbpSumNEsf4JYmxumm0lu/Q5Ze8+Zb0Q4l93i29Xfq0NEeyWTXGmMkNjZq83rO+QdJMMLQI022LyoMxxhjTiBhZZQwm75+ju+1obCBdKzGO9csSr0hj3Oa50q4SUUgMIkb29dKdEuNh3y19TcL4YRqBoSpMdPGMhAkcljB/mF/MLZME7iURzWVIC599TiKy+hGJ9BheJn7CQGNw6cZ8l4SJxqxyDLMkzomo6q0Sx44xpwsv3YmJkmJGMcpEZleXgO1ian8kceyMUyV/2Aam+GmJbtI2q8YYM3mhjN5TohH1AIleNmaSwFhVJqCgWxWzX/nHMcYYU88WEtFCzBfmDgN3RCG6+NLdN05Gsa40IpEWw3iylLZUE+n8mIQZPEnCaAJdgj8rYRSZhZFoKO+4w8xiFIlU8pxiTBFjQt8kfVRissA4Vpbn2aMSRpEZimPElOPDaH5fIhoLbIf/McHsgzQY3qslxpp+WKJLL63tHMcrJLZLt166DnNOHA/nglnlnGn45TlKN2BMMcbZkVVjjJnc0KhJoymNqzReMgTFTBJ4CDO9/z0Sk0FM9EyOxhhjJh+bSrdJdIf9g0QX2mcLEVHkAb+7BHQRxrh9QCJ6SvfcCBFJuhEzm/D7JCKnEUwu3YAxoEQm6Q5MBeJ26YsSZhFDCZhnIq4YRbZHNBcYK0sX3k9KmEQqHLya7USJ48EgMwM+YGJZT3SW42T8KpFVzOrnJaK3vNoNODZmz/+EdJ2EqcWAMrEUx4ARxrhGmGyK7TJ+1mNWjTFmcsPcBPSgoWcMz7AXSmYSQUswlQEe7kw6wQQUxhhjTISIJWaNiCNjN4lqYhYREdfzJYweMKYTA/lOiYhlakgxk5heIpxEQDeSIkRm6apLBBXDSfdeJjrCuBLlpLtt3AfvLqXLLeuvkDCPQBdjZgJmrChjT3me0VUXw0iUk9mMiaRy3OyfyC+Gm7/HSxhkzCqmlu1Hc4wZZv8YacbOch5sm5mH3y+xvdjYSyWH7s6cA92OhySbVWOMmXxQXvPMouGRZxkT95lJCF2h+HEIf9MazkPWGGOMicQJljB110hENkcDY3eZxBhUeu0wG3AEM4np/arEuNF0siK68jK+E7PKeFIisjtKmFW2hSmN5paIK2kwq+wrrq83qxhVJnyitZwI8J+ln0mY1u9KvDeW7soYy/0kzDHjbTG0N0mYYmD7NOpiVnlWMqaWMa5EbzkGWuRjZJnKD+f8mGSzaowxkxcmVKKcp7HyWCltQDWTDKKrL5aIrO4tYWCNMcYYqJ8NmG6xo5GaVb6TmlW+d6OEYWToSWp6MauMMyUi+6DEZBfRrGIemeyIYSswllnFJDK5EoaScatEfumuSw8iZvhlnC3dvuiuy/FxfsxQTKXleon9cZxsDxqZ1WiuMcakZ5vA8Bq2Sddim1VjjJm8MByE+RHoKUM5jXk1k5jYuhC7UxljjDHQamS13qwyqR9dfel6i/GLY0KBLr5M3kQ3Y77Ps4hIJ92G2RYmM5rS0cwq618jYRKZBCqdvIkxq0zgxISCEaKuRFQxxTTa0t2ZManMEsz42dEiq4zhZfwtY16Z8ZhILbMdR5gxGNNN1BYDbrNqjDHGLAOIqNIqTEuDMcYYA0QYMYfMhkvkEfM6GkQ/eR8qr7nhO8zcm0LvHcaLYuZ4bynvKWUMKOM/6aqLAWWyIrrTYiLpSsy26J4bG1MZH0rkkkgp+4rrMbx06f2ChLmkay4RU9bTLZcJohiXxNhUjouuvm+V6DJMtBSzyvkRQeb7zAIMbJ/jIIrK2FXyg+ck5piJmJgwiohuHGdLVJdjoLsz42Xju2CNMcZMDmg8ZRI+R1M7EMxqbI02xhhjMG2YPSKFRBxj99hGEIXEWNLtlu/QnTeFygFGkW62RCqZeZdZc78pEVll3FB8bQBGli7BbAsTGd+/iiF8lUSklEgokU5gkiaMJyaRrsZESHlvHtFeDPArJd7ZyuzCGGP2jaEmuso+MeF0O+a1M9HUAvtlwiUmaWLMbZxMiZmGOd4npR9KvHbndVKcXIl9cTw2q8YYMzmgoZFnBUNBeD7QWGo6DFoYmPSCd+OlU/EbY4zpTegue4ZEV1wmouA9o6NBJYD3kzJhH98ZrSJAFJJJluiei2l9o8S4z3TOBCKavLOUbWEK4/tU4+yNTLrEvhibCkRjMbgYWF4n81rpZRLHREMs3Y4xp3RnJoJL9JRxq7FlnfPkHXtEfPleHJvLfqnUEMXl3bDpxFB0Bz5SwjwTkeU1PnRBZqwqpp0KEWmMMcZMPJTHlO+UzzxfYs8c00HQ4kDrMhNG8J44WqTTF7obY4zpLTB6RBEZ10nXKZZHA7NJ7xwmreA7GMhGYBCJOGIQMYUYzpWkFL7LNthWul/WU+FodDw8r1jPhBlscw0pGmA+w7iyT1Q/oQbbYXvx2ON2+Zuef/05cdxM5MQ2+cs+EenJCw+tMcaYiYfynh4zDOtg0j4aIu1xOhQqEMxyyGyNdL1K35NnjDHGGGOMMZ0CjYa8npOeL0x8Ry8c0+HQGkyYnNYHZjakNdmvtDHGGGOMMcZ0Gkzwx/AUJt0zXQJdpAiXM+MhY5RG685ljDHGGGOMMZMNgm1EVhniQe9R+5kuhB+XmRIdWTXGGGOMMcZ0AgTbmIuHeQdMD4BZZcIlZs7yhBHGGGOMMcaYycbKEt19D5Po/suEd6YH4IefLV0jYVqNMcYYY4wxZjIRX2OGb9lQctffHoEpn3nH3n0S75s7UGIiJmOMMcYYY4yZSHit2XHSbRJvNEnfpW16BPp8HyO9QsKw8sJ3t1YYY4wxxhhjJhImUMKkPiLtIdmj9Ci8VH1P6UTppcWyMcYYY4wxxkwUK0k7SXQD9qRKJp9hawepL19aFGZfVxrMl4wxxhhjjDFm2TNd2kcicMb/xvwfmBF4BSm+0oaZtugiTMQV00qLxvKSMcYYY4wxxiwtvFJzU4l5dG6VrpZ4PY0xY0KE9RLptdLN0iyJGbhsWI0xxhhjjDFLA57ibOkt0qMSvoNX03hIoinFqtKh0o3SA9K1EjMGxz7jRGDpS26MMcYYY4wxo8EbR5gwKe2pyd850rslJnrdTDKmNJhRLqiZEoObT5YOl+KLeDGq6xWaJpGWca6xG7ExxhhjjDGm94jDCzGpMyReO0PQi16aMdhFGpaZM4e5czzbr2kZLqYNpI2leIFx8TGNNC0hT0gPSqdKpOHijNi8GmOMMcYY051Q1ydgldb/eUfqftKIdL+EV+B/xqfalJq2wEVJxPUW6XPSZyUGRtPXnAsUMLnrS7tLXLBHSAdLDJxeQ4owuHob6QCJNOjFErOBxa4C3AC0vuwlxTTMGraRtLIUYfbinaVDJNLwl20T/Y0QBd5CYsaxuC2OkShyvNG48ZhYCkNORJk0+0u8i5Yu0hHG9m4vHSSRhrS0EPVLnD9wfHyPVqW4v5dIRKXTlxuvJe0mHSaRhhYojrOVvCJfxiuvOEbyKhY27LdsXpE3reQV2x/PvOK6jWnIK661MnkVexpA2bzid+d1UTGvSD9WXnGereYV+281rzjvVvKK75bJK66TuK1W84o8KZNXPCCXVV5tK3VLXlF+NZtXpG0mr/gsbov7aDzziudLK3lFQyuNsBHKwbJ5FZ9vqGxebS7FZyWUySu22Upe8dzdWiqTV5StZfKq0XXFfkhTNq/Ybit5xXm0mlc0vI93XsU0S5NXdIdsNq8ok5rJqxhMYJsvksbKK56d7c6rHaXJnlf830pese+tpLHyino05UpMw7mWzSvqEjGvKN/K5BURTurES8qrWPfld2NiJHpfcs1w7DGvOCaCWIxFZUzqq6UzJfLGmLbABc2Fyw2DKWICphMkbux4M3LBcvEulN4gfU16WrpMSvulcxMwJvYz0vcL8QJgKkvx5qcCdJr0Timmeb90hkT3ggg3NGNsvyqRhn2yfyo1EW58Wnc+LsVtvU5ijG6saBFBPk56o/RdiTSfkC6SKGQjFA63S1+QSPMd6U6Jd0LFhyY3Jt/7gBT39zaJ/OJmBvKTQuZV0jcl0pBXHCcVzkijvHpYIp9jXlHpIV/Gyit+t4ekmFf8vU4aK6+YdIsCOOYV+y2bV3dIX5RI00xesf1m84qKM799mbx6lxTTvE86XWo2r3hYzZfGyisK9jdJ35NIQ/oLpSXl1beLZR5+Ma84vjJ5xf55SLSSVzyEW8krvsu9R5ol5RXXSdzWayR+12bzikYzrqOx8upi6YNS3N9bpTJ5VZPSvKIiNlZeUQbyUE7z6r3SWHn1FYn7m0pNBCNSJq8oT94sNZNX35Iovyi3y+QVFRSgbKe85DjYBmmWlFc0ZsZtcR9x3mPlFeV9mlfkb5m8WiClecXvOVZefVS6QKK8A9Lw/CGvYtk+Wl4xIciHpLi/MnlFfgxLPD8jZfIKA32WVDavnpFI82WJGTbL5lWslLJf3ghARTPm1cck8iq9rsgT8upLEmm4f26TuN6WlFds91gp5hVpqSCPlVdU8K+XuObitnjuj5VX75GoPKeV5TJ5heml3vJJKW5rSXkV08TrCjMQKZNXVPgZx/dhKW5rtLziGRPzijKJvMJMRZaUV7GnHNtkkhvGDcY0jfKKe4K6WcwrzoHedWPlFc/qgySMLGCayuQVdYO7pGbzinubt1nEhveyecV53CA1m1f8f4pUJq/4PSLs+3LpU1LcVqO8on5NuRLTkFfnS2PlFcEk6hLRPGLYL5XGyisMKnnFs5Q0T0n1ebWdxHVFPZMykjRxFt9otDkHGmbIP9JTz6AcoIHSmAmBVhkKDW7W+LCg8seFy43GhX6vxMOeigItNxFuuJdJFEK0wCAqS1RuY2sPNyytQVdKMQ0VFVp14k0G7G+2xL5Ic59EIULlOEIrGYX+TVLcFsfHQyS2rHMz0bJEpZ4ChzTMikyBx/cj3Lw8ECkkSEPlgoKMFuRYQFAZ43tU2OP+KKBo0YoVKPKKQmWuRJdq0lDh5jgpYCKN8grDQiEb84rWNvJlrLyi0KQyG/OKv7SOjZVXQxIPi2bzisoGedNsXvHgI2obKwXN5BW/fZm84iES01xTrGs2r7j2qaSOlVf87piPmFekpzJbJq8wAjGvOL4yecX+50kxr7gHy+QV50texQdLs3nFvUeaJeUV10ncFsfI7zqeeYUZiPtbIHHdNptXVNLHyise0rSWt5JX3N/RNEGZvOJ6biWvOE/Kr1byivKybF7xWdwW58t5j5VXlPdpXpG/3L9j5RUNHM3mFRMJ0lCBgSMtjTI8R6gQjpVXRBxbySsqiO3Kq3ukk6SyeRWf4eQVDcCcU31epbN1kifnSHdLpIl5xfXWTF6RtmxeYaTSvOL3GiuvqExjImKDOpTJKyrY1FvK5lVMQ15haJlUJlImrzBEGAbMQNzWaHnFMybmFWXS0RJ1sUiZvGKbRBPJn5imUV5RJ6NuFvOKcyiTVzyrMS3N5hV1g1byinubCCXXAJTNK86j1byiEbxMXvF7RGJeYSrjtsrkFYa6TF5RjpFXlEFAw+yR0lh5RUMvdWKepaSh12R9XlFWUl5Rl+Vz7mvKf+r28bfB+FJviPs3ZlLDhVqveuJ6LnJUNs1Y6cqkGS1dXBfTNUoDzaYZj23V0yjNWOnKpBktXVwX0zVKA82mGY9t1dMozVjpyqQZLV1cF9M1SgPNplmW+4vp6mmUZqx0ZdKMtb+YLv5fT7NpRksX18V0jdJAmiamq6dRmrHSlUkz1v5iuvh/Pc2mGS1dXBfTNUoDaZqYrp5GacZKVybNWPuL6eL/VMbOk4iUUDkkmlKfpp64Pt1ffbq4LqZrlAbSNDFdPY3SjJWuTJqx9hfTxf/raTbNaOniupiuURpI08R09TRKM1a6Mmkman/16eK6mK5RGkjTxHT1NEozVroyaSZqf/Xp4rqYrlEaSNPEdPU0SjNWujJpJmp/9eniupiuURpI042WxhhjjDHGLCMwq3RVpQs0EQdjjDHGGGOMMWbCWUei29+TEt3g6IJnjDHGGGOMMUZgkOL4KNNeGE/GOFEmKmNMos2qMcYYY4wxxggm1dhVYkINJkZivJBpH0wCxqQozFLKDKNuNDDGGGOMMcYYQTdUZnfm1R31ryMx4w+v3cCk8rokTKvNqjHGGGOMMabn4d10vF+Pd+79m8R7DomwmvbBa0V4dQTvBac7sM2qMcYYY4wxpufhHdF3Sr+XMukXEu9EjS+jN+PPZhLvYnxCukCyWTXGGGOMMcb0PLwc/ivS/0iY1X+VXikxhtVjV9vDFlJVep10rmSzaowxxhhjjOlppkpXSn+WMKooSD+XrpX6JTP+bC2NSIwZJqpts2qMMcYYY4zpWVaTDpHeK/2vFM1q1Dul7aXlJDO+bCstkF4lnSkxjtgYY4wxxhhjepJ1pXul30j1RhV9Q+Kdn2tLZnyhUeBy6RUSszHbrBpjjDHGGGN6lp0kZgCm228js/of0lPS4ZIZX3aUrpAel06RbFaNMcYYY4wxPQnR0kskZv6N5vS/pb8Wf+O6f5eukSqSuwOPHztLV0mPSS+TbFaNMcYYY4wxPQem82jpQ9JfJCZX+pH0LekZ6WvF/3+S/ia9S2JsK2Nczfiwi0SjwCPSLMlm1RhjjDHGGNNzLC8xPpKxqj+V7pF4t+d90hukhdJ50u3SlyWMK+vWkcz4sJt0nfSwdLzEb2SMMcYYY4wxPQVG6GSJyXyulpiJdoY0R3pQYszk+tKWEiYW03qORBozPuwpXS+R/8dKNqvGGGOMMcaYnmRA2kDiPat0C+6TmPmXMZNEVTGrrF9ZIi1jVv3uz/FjL+lG6X6JLto2q8YYY4wxxhgj+qUhidloL5Y2kkz72Ee6WeJVQkdINqvGGGOMMcYYI4ieXioRWeXvJpJpH/tJt0p3S4dJNqvGGGOMMcYYI+jme5H0qESEdTPJtAe6Wx8gMTb4TomZl21WjTHGGGOMMUZgVplMiVenVKUtJNMeMKsHSRhVDCv/v0AyxhhjjDHGmJ6HMavnSpjVEWkrybQHzCrRVLoA3ybtL9msGmOMMcYYY4yYJp0tPSRdJm0jmfaAWWWcKpMr3SIxftVm1RhjjDHGGGMEr7A5Q8KsXinx7lXTHjCrzAB8n8SMwMwMbLNqjDHGGGOMMQKzeor0oHSNtJ1k2gNmlXerPiDxrtWXSDarxhhjjDHGGCPWlE6S7pcWSjtIpj1gVo+ViGpfL+0h2awaY4wxxhhjjMCsniBhVm+QdpJMe8CsHi8xudV10m6SzaoxxhhjjDEdBu+fXEOaKW0kbSxtkoh1g9KKkikPeXqcxLjJm6QXS6Y9YFZPlB6T6IK9S7HOGGOMMcYY00FgROmu+rj0UelT0qcTfUCiGytmy9Gp8qwuMW6SGWlvlXaVTHvgOn2ZxDV9lURU22bVGGOMMcaYDoNIKu+j/K70bekp6eOJWH6vNFd6keQIazkwq8xIe490h7S7ZNoDZpXJrV4pXSExXthm1RhjjDHGmA5jU4muqk9K50hbSesl2ltiRlUMLZPWEIlNWUHinaIVqU9aVaqPwLKMeSMNIv3KUjQQfI4JZltoNalfYnurSI2MBukYF5ruN03HNl8osV22QbfcuE22T/fnFNLF8yAd6dlHPWwzbou0/F9/vsA+DpXIN8QkP6Y98HucKr1KulxiJmabVWOMMcYYYzoMzCrRv1dIe7GiDkwcEwXdJl0qEYmNYOYOll4tvUd6ozRP2lxK2UKiK/G7C71cIvI1IMF06XDpKOlAqSa9TXqzdL60jpSC0WW/vJqE7cX9pseG8dxZojvohdK1Eukw5THaFqk/j7dLvJ8To54aVozqnhIzzL5LYt+3S9tL9WCeD5LukmgM4PUppj1gVk+XXiMtkLaRbFaNMcYYY4zpMKJZpcvkPqyoYyWJiCrjLlNDiBmjaytm7SvSl6SvSpi4iySiskQ015aI2L5P4nPSflbCwGEGibgykRNmEnNBFJKIGGm+Kb1VYkwt5hOIpu4nkY40Xyv0Ton9MFEUphIDPFv6cKHXSp+Ufip9RpojkZbzIPJG9PiLEufBMX5QqkocG4YVg4zpuUyiWzTn8oz0eelqiW2QVxHOfX/pTol3rTbKWzM+YFbPkl4nzZfoLWCzaowxxhhjTIeBWcX4UbFnQiCinbFLLqaPz6nwk4Yo5QwJtpSIMDLjKl0uMQSHSZhXXhnCOmYSJmKJGR6RmJUVU8csuYyBxYRuIDEWlolwPiG9QTpZIlrJjK5EYfl+nOCJyXIwgJhPzCivJTmmWMexnCbRPXeqRAT15xKTRHEcbPMS6fUSEx9hetk3kVfMM8e8tYQJP1vC0L5UYlubSUSW2Q/RXo6HSZNixBgTizGPYG73lRivSn7wv2kPXCc0XPA7E6Wvj/QbY4wxxhhjOgAMJV1en5aYDRizSISTSOtDEjOqYhiJlhJlxIQR5WTyINYTESWKGMGUYViJNmLozpSekIjOpmASMa6YY6K1GMt3SJg/PgO2i6nlODCumEG61nJ8dEvG6AKmGuP7JglziHFmu0RGiYBiTInIAueAscQAY5o5Bl4twz7Iiwj7JpKK0eG7dFEmLzjO1JRyjuTVLRIGPo6FJcpKt2ryAhON6TXtAbN6nkS372GJBhdjjDHGGGNMh7GhdIP0DelnErMCf0f6sfRX6TmJaCIGMMIYUkwoxhYjdrxEl14MGSYBUxe7+TIGFTM4JDHhEAYOg0j0M0LUEtPL+E5McOzyiwklaspn50pEZlkmUomJjQYUdpQYw4qYzAgjy3eIGGO0iRYDRpioKaaYbWGUz5Awv/yl6y7fx+DQRRg4DrqV0sUZUztL4tw4lwskuipjfvkeZh4wqyxjVhkPfIBk2gNmld+FMc/1Y5mNMcYYY4wxHQIVeaKRGDFmTqUrL6aTCWqYaIj3rmLUmPU2Qldgulky9hMz+z2J1958S3pW+r7EuFPMGrPvYliJbjIWlHRvkYiUxm1Gs4qBpAtujNRiEumaTBdhTDAGkW6+RFaJmKXHxHlgijG87BdTyjlgIulWjIEB0nE+0axieBm7irFlUifMOmNXMehETSN0gf6I9BOJ8+Vc0Q+k30kYVqK+0eDSjZouyoz1JS/IA9Me+K3p2s11RqNGGjE3xhhjjDHGdAhxgiWif/Uz1hIxxWReKTE+M3ZxxdxhVum2y7tY6ebLGFJm0yXyeI1Et9k4vpWoJt2AiYiSln2xTWYAJkqLWWUZs8lEREy6BJhWZg2miy3jUzk+TCPfx4TEdMA2iI5yvMzYi1llDCpGHGMcJ9jhfDGmjLflmOJ6IrFEfzkPorH3S0RkmVGYLsXkBeb9QxKfkw49LHF8GGK2HWcP5i9mF7NKOsbMmvaAWWVsMo0PjDteXzLGGGOMMcZ0GBgsJk8iWnmIFCODgOFjUiGihpjJaD7XkhgjSvQRUxDXY2aJpK4rYWgxk0QuMXuxeyzmEBNH90zGf2KCOYYFEmYWc8o7TIHIKenoaozBpCsyBpdl0sd0gMnFxGIy6S6MQSEKS6SVY42R1dSs8koejje+fzWacf4/UmLcLd1JMcKYb46P82Wm4wjnR+SOc8ZcR/OLQadrMkaWiX7oAm3aA78j1y2NCxdL/DbGGGOMMcaYDiOaVaKFGMF0HCjRQaKZRA8ZC4ohXE3CeNIll3GpjHfFvEYwokRB6YLLzL1sE8PAu1YjdMUlDZFM3nfKMuaTSBgGMXbbxBQy5pPIZDw2ZvDFWHNMRD1hUGIfTLDE9zHZGGiOgXOrN6tEhekGTJSWGYLpFoyxTV89w0RRzILMNoj+0qWXiagw7cwYHOF/1hGFZfxv3A95x9hcvsNx0b3atAfMKo0cvM6I7sDphFjGGGOMMcaYDgETSaSSKBTdYnlNSwpRUSYeYtwl3YUxrxgyDABRR6KZGFleEUK0EtPL7LhELzGijDnFWNI9mDS8wobxqYw5ZdIh3oeKuWS8LBPiPCphgElLl162hfEgDWBsY3ddIp2MZyXCS/diopiYTCKymFVeMcO5cfzRRHK+GEtMMFHcbYtlujCzjv0S8aUrM+NkMZxETDHkRGLZFyadNKQlaso7WTl+THaMzjLeFiNL12bGTjJxlGkP/AZcX7xSiGs0bUwxxhhjjDHGdAiYQMwhZpJJgNJJiyCaLowg3YEZm0kEMhpWXg/DTMJMPPQjCeOGScSE0hWWqCTLH5NIg3jvKREvPmM7GFCik5hAzOBTEul+KF0n8bqZaAL5S3pM72eln0pMeBTHhRLRpCsuZpWI6o0SJjyaVc6Xsay8vob0RGvpXszYUmZBZr9MAoUJp1t0nOyJ77NNZhLGBMVz+YJEBJZX3JBXEY4TY8z+n5ToRmzaA3nP9fFeiWuPyLsxxhhjjDGmw8CcMraSWXgxn3GCoBQMG1166crKu0RTU4ZJoxstYwSJUGLK4vtPAZNH91gmKCINIkKJkYvbYUwokUyMHV1zMYSkIypGZDMazQhmlP2Slgl0MCR0D2asaYSxt0Q6OTfGr8axpJwvhpWIKuNqAVPN+RFJjfvFuDeKyHEunCNjV0nLMWCm64+RZboc0xBAd1RmHjbtAbO6QHq/RIQ/fU2SMcYYY4wxxpSGyC2RTWbzZWxoN4BZJQJM12giscdJpj1gVumWTZSfho+0EcMYY4wxxhhjSkOUlLGnTI7EpElp5LZTIZJLhJmJnIjwEU027QGzyvX0YelMKZ00zBhjjDHGGGNKQ+SL183wGhu63jbqityJMJsxY26J8PGuV9MeMKt0K/+oxGzO6ft4jTHGGGOMMabnYQwwMx9/RGKyJ9MeMKs0Enxc4pVE6buDjTHGGGOMMabnYfZgInzMhMwsyqY90I2cscKflHg9Ee8FNsYYY4wxxhhTwDtqMauYJl6XY9oDZpWZpT8l0UjQLd3KjTHGGGOMMWaZ0C8xadSnJbqjmvaAWeW9wOQ73a/rXytkjDHGGGOMMT3NVOlK6bPSGawwbQGzymuQPiN5YitjjDHGGGOMqYNZaDGrn5fOYoVpC5jVO6SnpeNZYYwxxhhjjDHmH6wiXSF9STqHFaYtYFbvkmgkOJYVxhhjjDHGGGP+wYrS5dJXpHNZYdoCZvUe6YvS0awwxhhjjDHGGPMPeN/nZdIz0vmsMG0Bs3qf9GXpSFYYY4wxxhhjjHk+C6RvSrPzJdMOMKsPSl+VjmCFMcYYY4wxxpjnM1/6tnRRvmTaAe9VfVgion0YK4wxxhhjjDHGPJ9LpO9InmCpvdwvfU3aK18yxhhjjDFdx3KFUlhmLB5d7aLiMhGNKJbrv8vL+dM0qP6F/Xynfltsvx7WpWlG21/9thrtr35bLI917Gx3vI89TYPGe3/122q0v/ptsTzWsbPd8T72NA0a7/3Vb6vR/tgW3YB/KM0rlsc6drY73seepkHjvb/6bTXaX/22WB7r2Nluo20xC/MrJCLaRFaX5tjTNKjR/jo5r5blsadp0Hjvr35bjfZXvy2Wxzp2tjvex56mQeO9v/ptNdof2yIdf/m8Po0xxhgz4fCQGpC2lHaXDpB2kFaVgAfaTOlkiQlM7pVGpLkSL+F/VaKrpfWklH0kuufFNI9K+0kp60i8mzLdFpPTrCZFeIjOktI0t0hbSCk7ScwKmqarn3ClX8JIpGmGpYqUcrj0Simm4dx3llI2l26W0m2RV1QAIuTleVKa5ipprLx6RNpXSuE7Y+UVv+nLpDRN2byqH+9XNq/4XpqmbF5xnBxvpGxekS/kT0wzWl7x3XRbbDte29AorzhGjjWFcxkrr8gT8obX1vyL9AWJvBsrr9guv0VKmbziN+e3T9OUySuuMa61lDJ5xTXNtZ2mGS2v+P1jGu4h7qWUmFfptsgrrrcU7t00TaO84rqmLHpW+rP0IYmyYqy84j6i7Ekpm1eUdem2yuTVTdJmUkqZvKJ8biWv7pZ2lFLIK8qCNB15lZoU3hV8gZSmaZRXlOOU5zENeVUf1W6UV8ySTeNChLw6RUrTNMqrF0tpXtE4USaveFa1klc8E2+V0nRl8opXV60tpZTJqw2ka6R0W2Xy6kZpUymlUV7Vd4/nt2GoAnl9scT9sb+UXseca/osM8YYY8YNHkA8sFNTw0NofYn3EhINolLBw/JEaZoEmNWNJdbzWojPSTz8eNh+WPpuordK9YaIbfEaj5iGCVCodKfwoH2jlG7rdmmqFKHiyVjANM0HpV2llAOlp6Q0Xf3YQcw3FYc0zcul+goGD2+6c8Y0bPdgKWUX6f1Sui1eXUJLdmRNiUpPmubN0lh5xf9UjlIwBmPlFb8rM9KmacrmVf2kQGXziu+lacrmFceZVoZGy6t6Q0S+lMkrvptui22zj0ijvOIYOdYUzmWsvCJPyJt/kv5b+q1E3pXJK36LlDJ5xW/Ob5+mKZtXXGspZfKKa5prO01TJq+4h7iXUmJepdsir7jeUrh30zSN8orrGoP6F+m/pJ9LlBVj5RX3UX0lv0xecd9S1qXbKpNX75PqG3DK5BUm8XEp3VaZvPqUhPlIIa8oC9J05FVq7Cn775TSNI3yinKc8jymYSbm46WURnmFWcbkRXjdE2Y4TdMorw6RPiPFNETRy+QVjQ9rSSll8orGW66rNF2ZvHqDtImUUiavMMet5NV7pfoGnEZ5RYNKCvsjbzj310mvkeZIfVKE63h7CXO/h7SVtKGUGlpjjDFmqcGk8qDh/YM8eCJUrl4qUYl7k3SHRIs9D+30AUlFj+8dKvEZLdAs7ykRiY2i0rqGlEKllFblmIb/61vo2Rctwem2tpZSw4dpprKUpuGc0gcrDEq0WKfpNpJSVpY4/jQN0WTWp/BQ5nxjmr2l6VIK++c40m0REUhb36k085BP03C+kzGvOOeUZvIqTVM2rzhOjjcyWl6l1yOQL63kFdtOTUzZvOJcyuQVeUMF8DmJBh3ybqy8Yrv8Fill8orfnN8+TVM2r7jWUsrkFdc013aaZrS84vePabiHRsurdFuN8op7N00zWl6xP4xFNKrjnVeUdem2RruuOHfKWIRRTA0tEAl8iUS6mJYGxJSVpO2kuB3SNcorInMxDaJ8Zvsp43ldEZWuzyvKuLHyqtF1hVGMDaaRMtcVUchldV3F52aarmxepY3CMBnyiusjhe9wHDTQIMbYHySlx861d6H0celd0mMS91d9g5gxxhjTEttKNYkucgsluielXdp4KFEJOlWiKxPdE2mh5SGaPiCNMeUh2sOYVbrwmfZB4wCvDMIsGGPKwbOeRhSe+xj29NnP/3QfpkGbegR/6YWFiY7QmE294SiJ+kV9A4kxxpgeh1ZeHhY8ZNKxLazHfH5M+rTE2DJaTmkFjpAmjklBdG9KW42NMc1D74QfS5fmS6YdUI4xLo9utESwljWxQs9Y2/oIY4QumkQuiVgRcSMqRYSLYRREoojK0T2Uv3SPpcLPeqJubJNynIgf3TPjZ6QlkoZY5vtE/GK5zb6ImLE9RJoo9kvatNuqMc3Cdca1zDXK9UikOjWkdEenmzPvOaZ31nES1yvXszHGGLP4QcFYEyKpESooVGx4cNDiyQOGSk1911NjzLKFCV5+ImFaTXvAHDKWnvF5dHtc1syQGEbBa4mY1Kd+0iwq9JhDoulMgENXXhoGGV/4EYnJtp6WGB+I+P/zEo2JTBpFwyLfo6slafmMMYekZUwrcwWwnu6Y9IJhDCYm9wyJIRyflfg81UclGkzqu38aszTQpZrrPcL4VSKrlHu8PuohiTHcjMemUcUYY0yPghHFhFJ5okWTSR7S7m9uTTdmYrBZbT/jbVZfJDFW79USv+u6Ugr7Z7zhAxLRpW0kopukZeIqJqLCQP6xEBM3MUEdE+owRINJo5joju2T9hPSD6TfS1xLGFbWv006TcI8E31lxle6nH9dYswuaaIwyUSbT5LoeeNeM2a8wMByPdKgw+zL3CuMh43XHNcfY4kZduSIqzHGdCmYz9SA0rrPGC1m1LxeYsbK+hkPjTHtx2a1/Yy3WaV77pDELLy85oOoZgr7J7pEoyHj+qi4s46eLHSZpDswkSZm1WW22GMkIp58RuWdyj4RKiK2pMXsUuF/rXSdtJvEeir9zDXAttkHr1zBwBKV5VUkpIliQidmk2UICA2ZdFM2ZrygfhK7C9NlPp3Uii7qzEZMmcjMwlz7o3WnN8YY04HQ5YZZD9NxIszISwWF7mP8T3dgKjDGmInFZrX9jLdZpfylSy29WHj1EJPRpLB/ymEmoaELJONO66E3THxXNcMylgSVfsp3zC8TdtV3Owb2wee8m5WZf+vBDGB46WZM5NZDQMxEwfXLfck72mmwobcBEX/3ADPGmA6Gyg+tj3Sl4X1szMiXvtKAyZTSCZWMMZMDm9X2M95mlcgqZhWjebpU/2oSYMzqDRLRzEZmlcgrr/4gOstrRZZUftPNF5OKOSaiSzfkFMYCsg+6HHPevP6mHqKrRGXpgUNU12bVTCREW6nPcA/xbljGXtObgK7CmFZ3UzfGmA6CQhtjSreZ10uMO6KbL5UPY8zkxma1/bQrsorx4y9RUgxrFLPyEt28SxrNrO4spWaVivpoMKQjNasY4ZTUrNKtmPGuzPwbjwdjwGtEOF7G0fIuTncDNhMN1zx1G8auMrMwXeBj92H+59rlXjbGGDPJocWdSCoz69GFi+5gVEzqX2xujJl82Ky2n/E2q4xRZcZ1Ji36ssSsvczCG/UWiQmOeE0YZpWKeD3L0qzSoMkETnQ75niYNZjJmtLj+aD0iHSCRKTWkSszmeB6pE4TX8PEBExViRm1Pf+GMcZMQmj1pnWRApyxRodKVI78gntjOgub1fYz3maVMaqUx7xO5lcS+/lGom9Kz0rPSJhVIq/1LEuzCtGsciw/lb4lpceEcT5bIuprzGSH+4N7g8YWutrT9d0N9MYYM0kgkkrXGLr5xlZGZn1k0iQMrDGmc7BZbT/jbVYpn+n+y+y8zPbLa8P2SIT5PEtiyAZmldlP61nW3YDZB8dClJeIFOMB02NijCzPEWM6gTim9SaJ+4T7iVdEca0bY4yZIJjdl3fmLZD2kxiz4a5axnQ2NqvtZ7zNapxgKQ7LaNSIyLhWXiPW7jGrzAaMOTWm02H8Ku8rPkdino7NJBrvjTHGTAC0eFMYv11iGnfMqjGm87FZbT/jbVbjBEtMVoSJZAxoCuaRSWN4bU27zSrRXmb7JQ+M6QYYFkVUlbHimFWudyKvTCLmicKMMaZNUKGiyxjTuGNU03eoGmM6F5vV9tMOszpXeki6UBrtPat0yx3tPauY1ZdLGNYyZpVXe7A/rqfRzCrvWX1CYo4Dj+8z3UScJZjeZhhWGoNmSWO9o9gYY8wygEoFrxWgxXwvVhhjugab1fYz3mYVs8hwjddI/K5EfVLYP90XiYQyi/s2Uj27SbxmhteR7S/xmo7RwAwTyWV/V0h0h0zBrLIPXk3zTuloye/dNt1K7B58o0RXe8a2+r3BxhizjKEVHVHoUsjSnYVZf1k2xnQPNqvtZ7zN6noS4+iY/IWZSuu7ARP5wTxeKWEuG726hsgQkVdm8MW4LslcMtneqRL7ozvwBlIKZpV9XC1hjl8qeTI+080wydnF0uskTCs9Czye1RhjlhFMnERLIC+Np4LiMRfGdC82q+1nvM0qDY28SgPDSZfg+i63mEfK+a0KNYr68AoZujCiirSkhkq2j0Flf0R166OwdI1kH1tLzPqLeXbDp+lmuCdooKERh9dI0UDDGxOMMcYsBVQoaP1j9sgzJWZs9LgiY7obm9X2M95m1RgzOaDRh14MjBHHrFLP8lsUjDGmBWjl5nUHVFyZQfIQiaiqC1Vjuhub1fZjs2pM78D9Tm8D/iJ6KvRJrl8ZY0wTMEHGJdLN0rHFsjGm+7FZbT82q8b0Jsz9Qa81RNTVGGNMSZgMALN6XL5kjOkVbFbbj82qMb0JZnV36TTpBGkTyRFWY4wZAwpKZmbkXXlMumGM6R1sVtuPzaoxvUl8w8KJEq+OwrS6S7AxxowCkyfx/j1eS2OM6U1sVtuPzaoxvQ3vIj5DOlvizQvMkO1X2xhjTAGvLeD1AntJvEbA06kb07vYrLYfm1VjDOXAiyVea8Orn/w6J2OMEfHl7POlayReVePX0xjTu9isth+bVWMMMEvwgMS7kd0V2BhjxG7SLRJjJV4mMVbCGNO72Ky2H5vVxvC6tK0l8mQLyd0iTS/BvCF+E4MxpudhUP+bpLMkVwSMMTar7cdmtTFM8HeydL90vORukaZXoNcbDTT7SttIa0rGGNOTvEiiMGRiJWOMsVltPzarjcGsnim9QqLnDxV4Y3oBugDz3tWjpLslAgvGGGOMMT2PzWr7adas0guG7oF7SEdIRB2pzO4s8doxWE/iPdn8npdKRxfr6uG1GUyud7FEukMl5i7YVtpKwjDyPbZN4yZdcyM0cu4qMZNpOtcBM8ofJM2VhqRTJLZZPwZvHYn98U5vjvM8aUeJc+C4mGjm5dLnir/7SKxHvJvyfInv8f39pemSMd0E990jhQ6WfI0bY7oeulFREaBi4S5Vxph6bFbbT7NmFcOIGcTAfUh6h/RmCfM2KGEWeV/je6SfSj+W3i/xaoyKFCOUPAcwqo9KP5TY/+MS18ANEuZ1c+lw6UbpJIlxdJHDpLukcyS2C0wMgwF9jfQDif0/LY1IG0o8dzCtGM5jpddL35O45r4uLZQwtsyGitll3b9I35GYCJAJAZkxlf0+I/G970vk3yES5+SJaUy3wH1CQwzX++0SXYKNMaZroTWeMRAHSi+RqNQYY0yKzWr7acWs0i32E9LHpMukWRJRSUweXWfvlW6WqhIGEPPIRHqk4x2OQESUWeAxundKRCgxiPdJ75SulZjgiO8Q2SHymQ4ZIZr7OonoaZzBFAN7h0TlGnN5hYQBfqV0gcRr0hh/x+R+C6R7JNJwvXG8D0kYbYwtkVSM9Gcl1pM3O0hsh3PBUPM9jpN0HAfRX8+/YLqJ1SXuF+pu3LtujDHGdC10uaLl/XKJh767kxhj6rFZbT/NmlWih0Q5iZZi2oh+RjBzj0mYy3Q90RnSMvs70RkM75HSa6VbpWhCMbs16Y0SZpIo5zES5vN0KZ2dlK7F7Ge2xPNkfQljTLSUinWELsUY0Qek/SSeRXQNZr+nSpEVJbo0s11mpuc1HphyjDfHSqV9F4lzYD9pgyvbpdszZpX8NMYYY0wHQRctumbdJtF6zkPerc/GmHpsVttPs2aVCCamjogo3XPjWFS2Q/dgjCaRRkwiXX4Z+rGTRDdCZtYlSoOxPFciHd1942yjbBtji5EkYouxXZJZfViiETSOa8VYMsM84+t4xiAMJMaX6CrfYd90AcZw8t2ZUjxOTCpdH1lmvCxmFpPLMWBWMeNEg4mqbieRjvPm+EmP4XXkyXQzXPMexmWM6TqoONAaTRcvKjDGGNMIm9X206xZJeKI6aN7LWNBY4SRaCmzh9I1+FmJMasYxzdI75K+KdG9l+cBJpSIKM8Fopdx4qRobK+WMKs8L0Yzq0Q7idbSPRizyqRHRGp/Jn1UwjSjt0lflj4jkZYuw3QHprsvRhTTzXEy6yldmSPMhspr1TDUHCMRZc6VSaUw3vF7RJLpfhzPwZhuBaPKxGf0JOA+MsaYroEKDBUPWqWNMWY0bFbbT7NmlQgjZTrjOOkpk0ZFMZAfkX4hYU6/ITFJEWYRA0k0kwmKiEoy9pMIJVFaIpKA4eNzopepWWVMK11343hXopdERzGSbAezyszAnMdvJM6F/bL/r0qflojCMlkT5wsY1islTCzpmPWXYSp0PeZciLIy/pZ9EGGlog6YWIzuByW+9xWJsa9EhPnMvYZMt0JElTKCngr8pTeBMcZ0BbTA0fWKlmljjBkNm9X2s6zMKn8Z7oG5Y5Ikoo0YSMRYz+0lJi6imy3jWS+UiGwS7WQd8IygmzCmNppVTClRTwxinOsAU3u2RNSWY2CsK/tgbCrdfTG2bCfun4gpM/kyU3Hspst5M1aWSC5p+A6mmG7Jm0hEUZnBmHGxJ0vR5PJ9nmkYbr5HXmC6Mb4skz/GdCNc+9zHlM9XSdzv7lFgjDHGmJ7BZrX9tGpWiVTOkWJ0BaPJu1cZl3q9RGQywj6YXZfXuzDBEaYRc0i3YMaZsg4wvEQz6WJM9IbZgE8olulyHCdiwkheJxHFZUImXmmDwSQii1GuH26CISWqShrS8socug2nFW2ionTvpWsyM9ezD46FrsZ0/SXaisneV2IcbAoGl1mI6R5ps2q6Ge5rygkmMqMM4F6LDTnGGNNR0FLOw57xTcYYUwab1fbTrFmlbCfa+QqJ3ys1pUROibgQXSXyyaRHe0oXS+yDiZOIzBChIQrJeM+3SxcVy8yoS5faJyVePcPrbTCHrCNiSjSWiCnjXtkHr5XB1GJ+MbpM2sT7Xzku9kuXYiKyVKoxnZhJDCsmFGPLMWKwiZJyTphsxqkSwY3GmXGwXI+cC4aXrsJEfckrvsdf1mHcMbOuuJtuh+743Cs0THH/MNbcGGM6Dl4dwFgixqn64W2MKYPNavtp1axiHvm9MIoRoquYUQzkeyXGi8bxoFRsMZkxPdth9mBM7w+kr0mMa8WEEknFEBLBJD3dcInC/lh6WqJbMBFUjC4mkW65jCmlOzDdipn4iHGyz0gcA+9jZZIkoqrsl2PErBKZZb+keUriuImqkieMPSWqy+RQTBrFZ0SHMbNvlb4k8b3PS3QfxlTTOBu7GRvTrXCv0ZDEfRTvPWOM6Rh4yNOliy5bzOBIa7knnDDGlMFmtf00a1aJohBRxEASqaR7bD1EIRl3SoQUQ4m5ZNv1ERjMLTML06XwHRLjYJk1nq64jAFlEiRgzgNmD8aEkpZILJM5cQx058WARjC4XD/M1ss2Mb4Y1dRU80zCXLIfZgsmHSaZ80mfV3RDJirMa9eYZIlnG5V0uv0+IfE9Iq9sn55ExhhjjJnkUKmgaxXdvWjhTl81YIwxS8Jmtf00a1aJHDIrKDP4YuwaRRL5nCgj40AR4zhHa7Rk/3S5JR3dCzGRTJREN0OinMA+MLaMj0WMNeV7jY6B//mcdGwTIxtnG07he+kxkq7+GDkP9ks6/rJtokjp9jl2d4M0vQz34mj3tzHGTDqYvv/dEi3pzL7YqJJgjDGNsFltP82a1fGGMalEMjGsvNPRGDN5oRGHHgi8O9mG1RjTEVDRYFbEk/IlY4wpj81q+5lMZpUIJd1seX4wXtQ9c4yZ3NDrgHuVrvkY1kbDAowxZlJBKxtjdzx9vzGmWWxW289kMqt0s+V4eH5QCXakxpjJDXW+EyV60zEJGe80NsYYY4zpSmxW289k6wZsjOkcGNfNkK9rpU9Jl0jGGDMpoUWc7h+0hnsac2NMK9isth+bVWPM0nKIxOzfNYloq+uBxphJBSZ1I4nuH7xqwDMjGmNawWZ1fImz2fI3wjLvTP2O9FJWFJAmyhhjlgQzefMeZd5FPF2iEcwYYyYNO0lXSRdIm0geZ2SMaQWb1fED00kl8hiJsWWMM4uTodwvPSNRlsMOEr8B7xjlxf9ugDTGjAXlBK904nVOdA82xphJAa+mOV/6rIRh7ZOMMaYVbFbHD8wq78HmHdi/kz4jYVh3kd4kfV86S9pZukf6rfS0RLTEM3waY4wxpuOg+9h6EgPrPyGdLbk1zRjTKjar4wumk1dM/Kv039JXpE9Kv5D+Kn1Z+rj0nJRJH5BeJLlcN8YYY0zHQVSVcarM/sagerqLGWNMq9isjj97SB+T/l3CkI6mX0r0lqGcN8aYMjDUgN4ajF1lDhOPeTfGTCiMT9hK2l2i9d1dxYwxS4PN6viztsRYVMaoNjKpiCgrMwTvLXkOAmNMWZi35DzpPukkyWbVGDOh0A2YgfRrSC6QjDFLi83q+MMsnTQuvkVqZFQR3YDPkFy2G2OagQmWDpXeINHjzuWHMcYYY7oGm9X2QAXyMunX0t+l1Kj+i/RRiSEexhjTLFtKr5HulYi0ejZxY8yEwIQbjGVCfvmzMWZZYLPaHjCr+0qvlf4spWaVSZYulWZKxhjTLLx3n4k3mXl8P4loqzHGtB26kR0iMaaJMVA2rMaYpcVmtX1Mk+jq+yspNatPSJTvnljJGNMKq0vbSrtKG0qOrBpjJgSM6l3SmdK6ks2qMWZpsVltL8zgTpdfXmODUf2DVJWMMcYYYzoWjOn50tul4yW3wBtjlgVzpR9Lc/IlM95UJBoGviX9TmJSFF5tY4wxxhjTkTBWdR2JsQi8PP5wyRhjlgU0gv1QOjdfMu1gULpZYnZgeswYY8yygJnHHcwwxrQdCp8tpPnSnRIvfzbGTB4Yi7iDtFsHinfz/Ua6J1lnjZ8YU0Yk9Ubp1dLJEmV6o7STWcw+urJkjJk8MESMMmYbqV/ya2yMMW2BF8SvJW0nMYC+TzLGTB5eIn1Y+mYHivd7Mn4Sw9roc2vZ6hvSM9JPJfL8u9LXpUZpJ7NeKa0vGWMmDzQk8YostI/kKKsxpi0wXtWvqzFm8nL0C17wgr8deOCB2dVXX21ZXasFCxZkO+64IxNDYbDp8WOMmTzwruarpcclZh5fRTLGGGNMj3PYCius8Ot77703M6ab+dvf/pZdcMEFmNWnpE3zq98YM1kYkI6VXi4xyzivtDHGGGNMj3OozOovHnvssaJKb0z3MmfOHMzqpySbVWMmF0zIuZP0sHSNtKZkjDHjznrSERKTcjB+1RgzucjNqiOrpttJIqs2q8ZMToiuniDx5gh3AzbGjDvMBHyY9GaJcQiefdGYyYfNqukJbFaNmfQwAzB1Rwc3jDFtgffxnSa9XhqWVpKMMZMLm1XTE9isGmOMMSZle4n3qz4k8T4+WsuMMZMLm1XTE9isGjPpiZFV5LdIGGPGHd6ZdZV0u8S4VXfrMGbyYbPaJYRCpjE2q8ZMejCp60i8WmoDaTXJGGPGDSZX2lvaV9pIciuZMZMPm1XTE9isGjPpwZxSb7xYOkvyfWqMGVfozmGDaszkxmbV9AQ2q8ZMeni3KjMB3yfdK/EmCWOMMcb0MDarpiewWTVm0sNEnAwhu0F6UCLKaowxxpgexmbV9AQ2q8ZMepaXNpZ4gwSTc+4nGWPMuDFDotCZli8ZYyYjNqumJ7BZNWbSw/CxfulIaY60g2SMMeMCY1XPke6X3DJmzOTFZtX0BDarxnQEvDmiIjErMGNYjTFmXMCsXiN9SDqaFcaYSYnNqukJbFaNMcYYE8Gs8o7Vd0sHsMIYMymxWTU9gc2qMR1DfJsEf40xZlygkHlA+rrENOTGmMmJzarpCWxWjekYpkubS3QHNsaYcYHWsPOke6SdWGGMmZTYrJqewGbVmI6B19fMlnbMl4wxZpxYQ6JVbMV8yRgzGbFZTQiFTPdhs2pMx3Cq9DbpuHzJGGOMMT2LzarpCWxWjekYatKz0oX5kjHGGGN6FptV0xPYrBrTMQxL35HoCmyMMePG8hLvy/JsbsZMXmxWTU9gs2pMx3Cs9HLpsHzJGGPGAWYDniVdLm3JCmPMpMRm1fQENqvGdAzrS3tI6+RLxhgzDvz/9s4DTIoqbaO/rmHXrGt2jZhzzllURAXFDJgziqiYMOeAmHMWFXPOWRdzzq5ZQAUjZlQU7/+d65Tbzg466HRP9/Q5z/M+Q1VXV1XXDH3rrS9coqoXhN4Krc0KEalKNKtSF2hWRUREpACz2j80OLQuK0SkKtGsSl2gWRUREZECzOqA0LBQZ1aISFWiWZW6QLMqUjMw9eG0oQnzkohIGcCsHha6LbQiK0SkKqlLs/rTTz+l4cOHp7fffju9+OKL6dlnn03PPPPMr3r++efTu+++mw1OOfn555/TV199lT788MP0xRdf5POS8qBZFakZFg9tHVooL4mIlAE6AM8ZWiI0BStEpCqpS7OKUb3qqqvSVlttlZZbbrm0xBJLpMUXX/xXsW633XZL99xzT/ruu+8a3tXy/Pjjj+nBBx9MJ510UrrtttuyYZXyoFkVqRm2C90X6paXREREpG6pS7P6/vvvp4MOOigtvPDCadFFF00dO3ZM66+//q9aa6210jrrrJOOOOKIHHn99ttvG97Z8lx//fXZRF188cVlj+TWM5pVkZrh4NBnoT3zkoiIiNQtdWlW33vvvXTAAQekDTfcMF1wwQXprbfeytHWQq+88krq27dv2n333dOll16ahgwZ0vDOX/j+++/TsGHD0qBBg/Jrn376aRo5cmTDqyn98MMP2RxhcomeFrANab+sZxved95556XNNtssHXvssen111/P6wu++eabX48zePDg9Nlnn6VRo0Y1vPpLOjPbsP7jjz/O2/JvjsN2nMMHH3zw6/s5Xun+6wnNqkjNsHfo7VCPvCQiIiJ1S92a1QMPPDBtscUW6fbbb8+1o42544478jb9+vVLL730UsPaXwziAw88kFOIV1tttRyVPeSQQ9KTTz7ZsEXKZheTe+utt2azWBhMTPEll1ySbrzxxvTyyy+n6667LhvmmWaaKUd5jzzyyPSf//wnb0tKMK/vsMMO+Tirr756Ovzww3MtbQERYtKZiRLvs88+qWfPnum0007LtbjUwXIO3bt3//X9hx56aHrqqad+Y6DrBc2qSM2wRejm0MZ5SUSkDFCzukiofWgaVohIVaJZHY1ZZT3R1+OPPz4bSyCKSY1p796901JLLZVWWGGFXN9KyvBxxx2XXnvttVzjyjZEZYmWYlyLxkmPP/542mWXXbK5ffTRR9M111yTNtpoozTjjDOmhRZaKB1zzDHZrBIdve+++7IBxQyvvPLKua62Q4cO2YxiejGcmOhdd90119l26dIl7bjjjunkk0/OTaLuvvvu1KtXr7TGGmukVVZZJS2//PJ5m9NPPz1Hg+vNsGpWRWoG7h83Dy2Ql0REygDdgI8L/Tu0KitEpCqpW7N68MEHp0033TTXir7zzjvp888/z/ryyy/TG2+8kbgme+65Z7rssstyBBMwiRjITp06ZVOIEX3kkUdyxHPbbbdNZ5xxRo5qso7tiMpiPguz+sQTT2QDSYST9R999FG66KKL0uabb57NLqm6pAgTucXQEjElOst63sv5YDiJmBJ5feGFF9J2222XI6dnn312Pj/2iYnl/Pfee+/8fs6fcz3zzDNzM6fnnnuurI2jqhHNqkjNMG5ogoafIiJlAbN6WWhoyHlWRaqXujSrQ4cOzVFMIqPLLrtsWnfdddMGG2yQo5ykzXbt2jVtvfXWOYqJccXYUetJxJJUWwzi008/3bC3lO6///4cMSWyidF86KGHclQWQ0u0tTCrpOASlaVxE6aWiC7pxqwjnZd0YaK3mF6Oj5EtrTElLXjLLbfMr2O4mWKH88F033vvvQ1bpWxWMbr77bdfNroF1LXyHj6/kVURERGpVzCrl4TeC3VihYhUJXVpVmlERCSTVN4555wzLbLIIjmVdoEFFkiTTz55FuaTyGUBkUxSc/fff/901FFHpTfffLPhlZQbGLE/6lhvuOGGX7c75ZRTfmNWMbh77bVXrk3l/SNGjMjbk8qLMSWqS60p6cNrr712NrFEdm+++eZ0yy23ZANMVPfoo4/OhpQIKcfZaaed0sMPP5yPgeGlrvXCCy9Mffr0yYb7pptuylPjYLzrsV4VNKsiNQMR1X+ExslLIiJlALN6duiV0FqsEJGqpC7NKmmxpOKSUkvX33//+985anrXXXdl40daLbWddM8tICrJNDOk4mIWSbktIPWWaOfOO++cjWVhVk899dTc4bfUrBaR1cKssk+MMeYSQ8y+MLkY6VlmmSXNNddcWfPMM09ebteuXU7vJUqLWSUFmWX+XUA0FpNMZJd6Vd4///zz59Ri0oFLOwrXC5pVkZphttDKoZnzkohIGaDBEiZ1h1A7VohIVVLXDZZIqb3zzjsb1v4CRpP0WaKYNCkq5lhlShuaLu277745hZg03gIitRhD6laJlJKSi1ktalgLc0j0s2iwVKQXl5pVamaJrLIvmjZ169YtN2qiznWPPfbIBhsDTNoxhpvIL+uIoDIfbGNeffXVXLvK+0lR3m233dJZZ52VG0aVc+7YakSzKlIzbBC6ILR2XhIREZG6pW7NKjWdmMFrr702m8QCjCcNjKgDpUlSke7L3Ko0OSKNl+ho0SEYiMpiYrfZZptsaDGTRDtJ5y2mogFqTjfZZJP8GmaVfbIOs8oxMa+YYqK6PXr0yEaWGtYCzpPzoeaU9RhUPgfHLlKWieKyHZ+j9HOxbxoscf6kBHOcekKzKlIz9AlRRtYzL4mIiEjdUteRVRop0diIqWIKMHvUg2IAiUaS1ouxoxkSKbSYyPXXXz/PlUrElPdecMEF2ajSYRjTyBQ1GFpMKOYVU8p2dOJdddVVc4QTs0q6LmaV9GFqVkkLZh3RWUwl6cB0Ki5gPQb68ssvz/O3YlaJ0rKuiKxiYpkWh0gt54hJK+A8Mbc0gSpdXw9oVkVqhgNCH4Z2z0siIiJSt9SlWaVDLrWnNCsiollamwoYPowe9asYHCKRmMhPPvkk9e/fP081Q70rEVKaI2222WbZXJJCTDSTFN3zzjsvm+H11lsvHwvjyfbUkJLaSy0rzY7YN/tjW5opcW7Uw15yySU5fRdzjLFmHzRdIuJ79dVX59pWOvsW5/Dss8/mc8fwYpj5ndK1GGPM+9kOA87504DJbsAiUqXsHHostFVeEhEpE1OEpgvR0U1EqpO6NKuk0TIHKkaOeUhL02WBKCodftkGE0lEErPDerbF8C2//PJp9tlnz42PMJuY2yJll+1ocHTYYYflTsNzzDFHrmflOmMYqRvFlLIdJpP62A4dOmRDyjLrMZQY3DXWWCMfB2GQSVsmSss2RGc5R2poqU8tjo0RZfoczO5iiy3263lybFKWR44cmbetJzSrIjVD+9BhoRXzkohIGRg7tGvorNDirBCRqqQuzSr1m0Q26aCLcW3KvGH4MIN0CsZ4lm7De4iIDhgwIF155ZXpkUceyVHXUojEUq+KiWW7Bx98MO+PVGKMaNHgiOlqSDummRP7oeswkI5MhJV5WIm4sg/OpTQKjAHjc3Ccr776qmHtL9BZmO7DpBnz/iuuuCIbYd5Tj2hWRWqGf4b4P0rQQ0SkLDB1zaWh90POsypSvdSlWZX6Q7MqIiIiBZjVi0ODQuuyQkSqEs2q1AWaVRERESkoIqsfhIysilQvmlWpCzSrIjXDlCHTgEWkrFCzyvxYZ4esWRWpXjSrUhdoVkVqhpVD+4WWzUsiImWCAvnpQ3YDFqleNKtSF2hWRWqG3ULPhrbNSyIiIlK3aFalLtCsitQMh4SGh3rnJREREalbNKtSF2hWRWqGPUKvhHbISyIiIlK3aFalLtCsitQMG4X6h5xNQkTKxlihDqHtQ+1YISJVSdnN6nfffZfeeuut9OSTT6b//Oc/acSIEQ2v/MKnn36aHnnkkXTLLbekZ5555n9eh48//jjdfffdqV+/fmmfffZJe+65Z9pjjz1+1THHHJPuu+++9OWXX+btf/rpp/Tss8+mO++8M73++uvphx9+yOvLDYaIz/nvf/87vfvuu/l83njjjXzuzz33XPr+++8btvwvo0aNSh9++GF64IEH0oMPPpivR2vz888/py+++CI9/vjj6aabbkovv/xy/j1ynvyuBg4cmH8nfwWO8c0336SXXnopX68hQ4Y0vFIeNKsiNQP/P9cIzZqXRETKAFPXnBV6ObQWK0SkKim7WcW0XX755enss8/OpqQwlIBRw9wdcMABqVu3bunUU09Nw4YNa3j1vzz//PNp1113TXPNNVeaaaaZ0hxzzJH/XWippZZKe++9d97XyJEj07fffpvOPffctMsuu6Trr78+ffXVVw17Ki9Dhw5NXMsDDzww3XPPPWnw4MHpxhtvTD179sznU/rZCzhfjPV+++2XrwPmthr44IMP0gknnJC6du2aLrvssvT555/n8zzqqKPSoYcemk3mX4XrwUMKHjbcfvvt2RBjYsuBZlVEREQKMKuXhN4LOc+qSPVSVrOKaSRiePTRR6dLL700GyDMWQEG6IYbbkjbbrttWmedddKRRx6Zo69ERkt57LHH0hZbbJHWWmutvM0VV1yRTWghTFWvXr3S+eefnyN0n332WTrzzDPTNttsk6666qomTWI5eP/997Px6t27d7rjjjuyUb/mmmvy5zvttNNytLIxXI+nnnoq7b777vl9fP5q4L333svGtHPnzunCCy9Mw4cPz+d50EEHpX333Tc/QPir8Hsmmn7GGWek8847L0efMazlQLMqIiIiBZjVy0JDQ51ZISJVSdnMKkaE9FGMzimnnJKjnqVg0jBm/fv3T3369Mlm7dhjj0233nprTjct5dFHH03bbbddTv995ZVXGtb+l7fffju/FyOLscUUX3TRRWMUWSWtlSgf++nbt282mey3FMzoddddl803Oumkk9LNN9+c1wNRYdYRIS2NrBIVPuecc0YbWcWkFSaQ/Q0YMCCfBwYOU1hq8AHjRSouvzfO47jjjkuXXHJJjnYWRh/T/sQTT6Snn346Ry35TOzzggsuyAaRFNxSeHBAuvLxxx+f0615uEAElcgqkfEisso1PuSQQ34TWX3ttdfyNhh1jnHllVf+5nfIQwv+FjgPriv75iHFO++8k6/Jww8/nK8bv7OmIustgWZVpGaYIDRFyKkPRaRsYFb7hgaGVmWFiFQlZTOrmAOMCSaJKGPjGkdMyl133ZUNGWmmREBJA8YsNTa2GFCMBoa2qYgeNbEcB3N1//3356jgxRdf3CyzStop54KRIhI755xzZhFRZB8fffRRrjXFAGOyOnXqlGabbbbUrl27nI684YYb5mMQEcRoYczH1KzymXjPDjvskM3gxhtvnGaZZZa0yCKLpCOOOCKb+h9//PHXOk9qW9nn3HPPnc9j1llnTcsvv3w2mZhUtuX4pBbvv//+aeutt86fie0WXnjhbIoxrKRhF5+f+l62Y38LLLBAPpedd945bbrppvl3U2pWDzvssPzQAGOMUSeK3bFjx3xdOEb79u1z9JtoLMfg2p188slp3XXXzerSpUvabbfdclo4cN343fNZX3zxxbKkAmtWRWqGBUI0WZonL4mIlAEaLC0aokB+WlaISFVSNrNaGLfDDz88m7HGqb0YGNJ2SY8lAjho0KB09dVX5ygr0cXS7QuzSjOlpmoleT/mDROG0SWq19zIKlG/2267LUcLiVJSW8p5c6yDDz44G22Oee211+Zz2GmnndJZZ52Vt6NOtnv37tlkvfDCC9kkk9I6JmYVM4dx7NGjR1p77bWzGcQUEy0l9XnLLbfMx2LfNIris9JkiuOSpstr/GQ7DCCfhQcDmM+tttoqm2muC5FLHgSwvOaaa+bPwPlgxDHqPAggXRnDj/nk+Jtttlk2lo3NKnr11Vfz5yOiynXAFJ9++unZMHNum2+++a/vYzvOYckll8zXj9/Nvffe+2tTJYw+kWH+VnjYUI4aY82qSM2wZejm0MZ5SUREROqWsphVDNibb76ZjQump3E6La+TOoopJA0YwwhE1YiQFianiLCRyorJoa4VM4uZIiJbCPOG0cL80uSI2lD+/UdmlfPABHKOGMqHHnqo4ZVfDDDnganCrGLoMGOk7BZguDHbRDB5nRpVTOCYmFU+I5+PqGaHDh1ylBmjzrlhPIlu8vk4LmaVulHOg89VCmm1GEKOQ3ottcK8l/1yDgVEi4luYgy5VnQfpuZ3o402yueOqQPOCQNLZJWHCKVmFVPP74q0YbbBLPP7LuB47A8Tz0MIzodrQvQVo1r8vguILmOuMdSkWXPdWhrNqkjNcFDokxDzrYqIiEgdUxazSrSOaCqRPAwphrAUpqehTpFoJsaLCBsGE7OIwcGMYmaL6CpRS4wnabczzDDDr2m4hVZaaaWcZoop5j2kymLaiFb+nlnlPDBlRBMxUxiwAgwU72NfmET+TbQYc0ckEBER5bh0/8VsYczG1KxyvpwDnw9jWaTGAtcQU4lBx6QCxyU1megxBoxljkOdK9FNTDqmGZNN0yk+W2laNZFiUnw5b647RhKzvuOOO2bzWfDJJ5/kqC3rSecmpbfoBoxhxczzoIHoK+aVmlSuZxGpLlKauaZMH8T7qH8lQt14Ch/SlqlL5hoRYW2qLvmvolkVqRn2DQ0K7ZqXREREpG4pi1nFGGA8MUrsu7FZxfgQQVx11VVzXSappkTiqHWkXhLTxrypmBjAFBJZ5XUMB82IMHGFaBpEWirRSOD4zTGrRAuJiBK5pA6TfYwOTCsGFOPIuSIioRhljlPMFTqmZpXPyOcjlXavvfbKpg8wy5g2Is2YYQxtAdvwEIB0W86DOtoVVlghp/hiIIn4Ug/M/jD+1PQWcF6YWM4TU8uDANKdMZelRplrSN0p596UWWUOVtKVSSleeuml8zlwLtTb8nudffbZc7SbCC81t0RNifRyXsXvtYBlDDVRciKvpQ8NWgrNqkjNsG3onlDXvCQiUgaoWeVmYPEQHd1EpDopi1nFHGJ8MEGkmBa1iUDaK6YHQ7fMMsvkhj+LL754WmyxxdISSyyRf6633nrZ3BVNmYjiYTQwWRi7PwJT2ByzyhQ3dB/GKP6eWSVaSC0lNaHLLbdcPkfOeaGFFsrnj9HDnP8Zs4op5XpggnkfUUggmktklQ67mPMiDRjjSXo10/gsuuii+Vz4SbMl0qQxq6T3Ygr5XHRjLn1YQGSV88HEElVlv0RkaS6FsSzgmhGt/T2zSpo0dbYLLrjgr79DRLOnNdZYI587vy8+E5FcUoZLDXFBqVklTbmpuuS/imZVpGZYOtQjtFheEhEpA3QDPjR0S2gFVohIVVIWs0pqKpFA0ksbpwEToSQSSlQQg0jqKduS5oqxKaKX1F9iUomW8hNDiNkprRkdHc01q5zLI488kk01KqKapRTderlGRAapUeUcMG6ktGIkMXuk3WJO/6xZpe51dGaVdGkioKT/Yhwx7URbMdC8lyg0BpapfYhMctw/MqukX7PdG2+8kaeb4VqVmlWizhhf1jc2q6Rq0/QKM0v0lN8zJpTrgjhvzpf985kxxZwf5z06s4r5Je2YYzb1e/iraFZFagamrvlnyKlrRKRsYFYHhIaFnGdVpHopi1mlDpOa02LOTmo5CzBOGDxSf2+66aaGtf+F92IISfvFDFLLStQNo4jJoraR2sjfo7lmFZNEFA+jyPFKU21pGETtJXOvYso4Z8xgaWSX8yKFmHRbjN5fiawW08xw3aDUrGLqC/OHycS4U9tZgLEs0myJTHIehVnlwUBpZBuzSn0s17ioweXc+PzMj1rUCZO6y/lQZ9q4GzCGFVPK9aFr8tlnn53NbAH1rlx3DDwGu9SsMu1OY/g9YLiZvoZjNW7I1RJoVkVERKQAs9o/NDi0LitEpCopi1kFTCkGiihc0TAHk0lkDfNGRG7gwIF5fSmk3FILifGiHpWIKym2bI/Z4N9/ZFYxuJg63kMn26ZMIpCSzHkS/WVbUpYxwxhNzBUGkqloMM1sg0lkPSYV48bno0aTFFpMIKYMw4VJLBouFVPecD6cV2Mwq5hkjDCmt0hFxqxyDIwqkWb+jfHDzHFt2JZjYhr5jBxjgw02yOfLeWAkSVvGiGJyC0h73m677fJnpUkTx8dUcgw+L8aciC0mt1u3bmn99dfPJhYzyu+CCDSRXqKfGFo+F4ad49I0q4hUU8OK0cb0k7pM9BVDjCltDJF4joEJxmSTnt3SaFZFagbuIccNjZ2XRETKAF80F4TeCq3NChGpSspmVjFmRP/oFIspxRRRg8o6TAsRuiLltRSibJge0oCJ6rE95hGjwft4rTmRVWoyeQ8prKOLrAKdaTGIRIGpR6UGlVpUpnfhuhB5JQLJ3K9M4zLPPPPk2lrODSPJ5yNiyHyjmDfMKueO6cKsMhULHXU5n9FFVjGrvXv3ziaXfUBhVjH7GEkiuqyj+RD7p06VZlQ0ecK40oiJn6T0cs5EhEmbJrW21KwWnXoxq9S2AuYQU81novZ1qaWWylFp3s81JwLONpwnTbOIMmNW+T3wE1PKeVC7yrVjPlU+C8Yfk8h1YBtMNka4MURiMbvsm2PwN9DSaFZFaoYZQ0uEps9LIiJlgKdhTObcJzQPK0SkKimbWcWEUWtKWizTqRBhwzAQGcUYYWSaijQCEUTMHumlRTdZTCfvo4Mt+/49iNQR4eM9pM82niqlKTCGmEIM2xZbbJEjqEQtCzBc1H9i3nid6CHRU1J1MYDUXGJq+XxEL0nnJRqJueS8OR/OqzGk3RLdxVzyPj57sf7999/PRp39F3Wn1NlybTCsm2++eerZs2eORHOupNjyGtsSzcZkcl6k8BZgzLkuRLhLzTPv4fe01VZb5Sgzn5Vjc05cfyLebMP+iegWRpfz5HfJwweuHcLM8rsvTCe/Z6K3GPfS+VgBw4sRxzxjWEtTllsSzapIzUBG3smh1fOSiEiZGCdkGodIdVM2swqYNYwW6Z3UMGJaiA5iYoppZkYHJghTWmzLT0TqbnPg/c05TgH7xUxiBjFmnGfpsfg354O5Yhu25Ris52fjf3NclotzZ93oaLyPgtGtZ5njc56I8yqOxWv8LP136XtLz6d0PbCf0n2W7gNGdz68zgMBrgvi36WvF+9r/PtgHdF1ouc81MBAYyrLgWZVpGbYO0RmHh2BRUREpI4pq1nFpBCVo26S2kaifJhAEf42eHjBwwxSnYm68nCj1My2JJpVkZrhoNDHoT3ykoiIiNQtZTWrQL0oKbakj1KPWK7ImdQWmFXSkEkhJk16dHPcthSaVZGaYdfQ06Ft8pKISJlgnqxJQqQCi0h1UnazCqSUkrZKemi5ImdSexTpw6QdkyJcTjSrIjVDx1C/0Gp5SUSkDFCnumXo6NCCrBCRqqQiZlWktdGsitQM04UWDk2Tl0REygBT11wcGhRynlWR6kWzKnWBZlVEREQKCrM6OKRZFaleNKtSF2hWRUREpACzelloaKgzK0SkKtGsSl2gWRWpGSYLzRii74mISFmgZnW/0FWhZVkhIlWJZlXqAs2qSM2wTGiX0OJ5SUSkDIwV4qnY3CGfjIlUL5pVqQs0qyI1w86hR0I06hQREZE6RrMqdYFmVaRmOCQ0PNQ7L4mIiEjdolmVukCzKlIzYFJfD+2Ul0RERKRu0axKXaBZFakZuoauDnXJSyIiZYCa1eVDG4aoXRWR6kSzKnWBZlWkZpgvtH5orrwkIlIGmLrm5NCTodVZISJViWZV6gLNqkjNwIwS3EfyU0SkLPAlc2nog1AnVohIVaJZlbpAsyoiIiIFhVl9P6RZFaleNKtSF2hWRWqG8UMTh8bLSyIiZQCzemromdAarBCRqkSzKnWBZlWkZqBWda1Qu7wkIlIGaLC0YmiT0EysEJGqRLMqdYFmVaRm2Cx0eWi9vCQiIiJ1i2ZV6gLNqkjNcEBoWKhXXhIREZG6RbMqdYFmVaRm6BOi58lueUlERETqFs2q1AWaVZGaYYfQv0Ob5yURkTJAzeoMoTlDdHQTkepEsyp1gWZVpGag58k+oaXzkohIGWAiZ75oKJBfhhUiUpVoVqUu0KyK1AyThAh4GOwQkbLB1DWXhYaGOrNCRKoSzarUBZpVERERKcCsXhwaFFqXFSJSlWSzetpppzXc0ou0TX788ce08847a1ZFagPKyUREygZmtX9oSEizKlK9YFYHn3nmmQ239CJtl1122UWzKlL9TBOaPzRVXhIRKQPUrG4b6htaiBUiUpWs+7e//e3L7t27p8svv1ypNqsLL7wwrbrqqpjVp0Nz579+EalG1ggdEVopL4mIlIkJQ5OFxs1LIlKNtA+9OOGEE34x5ZRTqgrpn//85/ehUaFvm3pdtbziWn/x97///Yv4e78l1I4/fhGpSvYIvRLaMS+JiIhI3ULHxQ1CW6qK6ubQh6GzStapymjNEN1GRaQ6OTj0WWjPvCQiIiIiFYWbsddC6+UlEREp6BV6IbRdXhIRKRM0WRonZEc3EZHfcmjo9RBRbRER+S88xCPrZK28JCJSBmiwtGFo75CNLEREfstRoTdCm+UlEREpmDm0bOhfeUlEpAwQVT0/9GZobVaIiMivaFZFREREWgnnWRURGT2aVREREZFWArM6IDQs1JkVIiLyK5pVEZGmmSg0TYgpEEVEygJmlQmd7wg5qbOIyG/RrIqINM2iIaaZWjAviYiUAToA01hp6dA/WSEiIr+iWRURaZptQ/eEuuYlEREREakomlURkaZhHurPQnvmJRERERGpKJpVEZGmYdrDt0M98pKIiIiIVBTNqohI01Cvekto47wkIlIGqFldOLRaiI5uIiLyXzSrIiJNQ4OlLUIL5CURkTJAN+DjQg+EVmWFiIj8imZVRKRpxgsxbc24eUlEpAxgVi8LDQ05z6qIyG/RrIqIiIi0EpjVS0JDQp1YISIiv6JZFRFpGiKqfw+Nk5dERMoAZvWc0KuhtVghIiK/olkVEWmaWUMrhmbKSyIiZYAGS2uHaDs+OytERORXNKsiIk3TJXRuqGNeEhEREZGKolkVEWma/UKUkfXMSyIiIiJSUTSrIiJNc0Dow9DueUlEREREKopmVUSkaSgheyy0VV4SESkTk4emDdHRTURE/otmVUSkaVYPHR6iyZKISFkYO7RL6IzQYqwQEZFf0ayKiDTNlKE5Q1PkJRGRMsDUNZeG3g85z6qIyG/RrIqIiIi0EpjVi0ODQuuyQkREfkWzKiIiItJKFJHVD0JGVkVEfotmVUSkaf4ZYo5+ep+IiJQFalZ7hc4PLcEKERH5Fc2qiEjTrBTaJ7RMXhIRKRMUyM8YmiAviYhIgWZVRKRpeoaeCW2bl0RERESkomhWRUSa5pDQ8FDvvCQiIlXFP0L/Ci0cWjZEOswqjURqzCwhtpX/+7+xQtS2tAvNFqLdPXXTjaEOZtHQyiGuKynqRP/HDYlUEs2qiEjT7BF6JbRjXhIRkaoCw7Vb6PbQ86EXQy810j2hHUKYWvnFmLYP9Q0dE1oj1Dj9fKpQ19DNIa4pejB0UGieEIZXpFJoVkVEmmbj0CUhG3SKSNngxn/NEPUGRLqk+RD5Oy00OMTN7LWhCxupX4gpgTBg8n//N06oW+juECZ/i9AkoYKJQ1yvc0O3hhgEbwy9FnoitFdojpBIpdCsiog0DeMx95DeP4pI2SDSdVaIKGAHVkizwaweF7ovdGxoztB4jUTaKteYhwJ/D00XIp11soZ1wPqZQ0RqSZFle6KN04bYHqPL6/OF5g01bobFMUinnaZBM4SKNNuinTz7nD40f2iB0FyhqUOsbwyGcdYQ27E9acwYysYRzYlCnFexz7lDnMfvRT4xqxuFrg9dHdo0xPEKONbxoYdD+4b4/DOFSDW6KnRkaKmQSKXQrIqIiIi0EpgVolfvhUzjGDMWCZHKSoTwgNAfzTOGgdw9dGpouxCpwVz/5UMXhC4PdQxhDBcPHRzCBDO1EBFaopH/DvFwYa3QhCHAnHYPkSa7f4iGB0QmzwitHWI7jDRG79HQ46FbQnuGMKWl0Bl6kxBz77ItuihEqg91pAWYZc6V4zwUeix0f2inECZ4dGBWNwwRhb4yxLEwvYDJxZBzHYaFTg9hhgHjTt3qQiGj1FJJNKsiIiIirQRm6bLQ0FBnVkizKTWrfUKThn4PIoSksWIWMXjbh2ggxD64GSZCS3Qb87ZO6K7Qy6GLQyeH+D09FSLteECI5k1EVUnD4YYaw0ht59khakKPCFEfivGlUx/1s0+G7gyxHYaR9G8MIX8HNIHqEiLqiUm9IXRv6IXQdSEeZmCkMb8cm6gy+yRd947QoIafm4eI8DbFH5lVrinHT6FXQ4eFMKgirYVmVUSkabhvIKOKDDERkbKASSHtEvO0Giuk2dAFGKNJRPGUEB2BSdEtROSUSCVf4hgxrjUNgs4MvR/CjPYPkfJKM6EtQ0Qv2ZbIKdFPjCLGk6gir/FAge1fD2FAiTiS7ntg6OkQ+6QmlOgjxpKfdOnDRJ4fwhyTDozxPC9E1BTziAFlXyeFPgwR3VwxRMrt4SFScHcO8V4+F3Orcc7sE2O9WIioMVF6IsKkBDfFH5nV4vqMDGFYMeZEolcIFZFkkUqiWRURaRpKgBjTRzfmi4j8ZTAIRN4wR9QHSvPhS5o0XSKAb4cGhjCLhW4KYdyobcWkAT/pdMvDAaLZH4feDHFDPHuogN8H78cIYzaLFGPM79EhDCvNnTCxpPgS2SXKeU5oyVABUVPOkUgpKcJjh4DIJ8s0L8Jk8mQUE0qKMSbxP6HCdFJHunSIetmiThVzjJF+NkR6MZ8RI4tpReyvKZoyq6U1q0SnqWMl8st5IIw9EV7Oh3MQqSSaVRGRpqFJIvcR9KIQEZEqA7NKKizGjggg6b3UlBYi3ZZUXB4GlM4PivnbLzQk9HOIqCfRyfFDgKGj1hSzyiCwQYiGTEB0kQgsacBERpn6BQOHWSVVlygodZ9AJJdIKmnEGOorQhhfBpd9Qmz/TIibcSLBGGKm4sEcYhJHhKh7XT/EZyjSnNkOw01KMdt9GyJFmXVEm0dnVOGPzCoUNbjXhIjylppWjDWmmocsIpVAsyoi0jT0yuChO00QRUSkyijSgB8I0QxopRDR0UKk55JaSzOiUnOF4cSkMZH2NyGioeyrgC7CozOrRDa3ChVmdfUQqbOYVWo9Mcd05wUMMk2QMKVfhBhQ3gpx481PmmoxPywRSww0UVeiskRXMd/fhXgP/ybCyzlz7mzH5zsxxH4xtZ+G2I76VepgidJz/KIjchHRxazyeQqz2rgbcAGp0xhkzDJmGLP6dYjrwbUpjL1IudGsiog0DQ/eGft3zUsiIlJVNG6wVDpf6O9RdObF4GHCiG5SZ0qjAiAiWphVDOh6oWLfmEUaGNGtl3pR5jcrzCoNkbixXjAEGEPqkIl6Yk6J9JISjDklskoNKqk7pPAW+8dUMq0N0U8GIfb5Q4jz5FxWDbFfYDuitERjOQafZ1SI64GxJepLFJjPRpOkwrASqWXaGupgMQC/d904N+pjMfTPhWgwxfH+qPOySEuhWRURaRoeTlOCRGaViEhZIOJHlAxToAEYMxpPXfN76a/AtWZaF0wiNZk0SXon9FUI80ldaJEuTM0qUUS244ll0V2X3xFpN0Q6aUREV15MY1NmleMRZT0hVNSsFs2MgNRfOgnTuAkDSpovNaqkERfNjNgXTZiIsBKF5dxJw8Vwk35cREWL2lg+CxFbzpFpbEhBphHTDiFMOBBZJQJLmi+muDgWUVjOiZpXzrt0Llmi1kRinwhhtKndFakEmlURkabhHmSXEOO2iEhZwEAwLyeGgo6r0nww+MX0LdzQkvZL9LBUGMYiBRhjRxdeTNdDIepL9w1hPOnkyzLmke2JShLJ5CaZuUwZEEh9pUMvzZswuhhkzB0PG/g3v0PMc+lUL5g6IpEcg4ZMmECMKY2ZaJJ0aIi6VqKbmFRMJhFbIq78bWBgMZq3hTgf0nZJWWYKHlKfuYHHpLNPOhW/GCKKi6llv1wXGk9hmDlP0pl7hDgf5pZlG0wqYJo5LuaY14guFzClD9FbHgxsEyo1siLlRLMqItI0jMWM3UVmmIhIi4Mhof5xWMh5VscMzCoGkPlFabLEdC9EO0tFtBGD1y6EicTgUavKNV8uRESSxgR0E6YJEkaM6Cu1qEQeSXulNhUzyr5I5cWo8v7lQxhYIqtF7SzzsXJeBZhInnhihOmoi9kj2klkk32REoz5ZMBhHliiuJhhIrocl/MlwotRxaASecUg0wAJ083csDRu4rik9tJ0CaNJvSkDGCaTcyWyS50qx+a4bEvtLc2UivRgzDwPTLhupEbzefg3Zp2UaK4H50Bjq+I9IuVGsyoiIiLSSmBWmeuTAvl1WSHNhkjhniEiqxhQzGZjEUHFEGIgmbOUOVMxtZhSmi8BZhETR7SR1FmaHWHyMGcYRdJeaZyE2aRuk8hn+1ARkcTwEslkPlKiqKTolsLvmOPTOKn0vDCwRTOmAgwr+8LUsh2fCwPK/KukKRcmkQgpJhwD+lKI7fiJseTci6esGO+tQ5jd4tjsm8+J6W0M5pr5avuF6K5cvIepeogCk3pcRKpFKoFmVUSkabgnKG2iKCLS4mBkLgwR2WP6FGk+RCMxinTQXSVEsyNqTUtFQyLSa6k1JV0Ws0UdKDWoXHug8y3bkOo7a4jUW1JgMaqIhkoYXeo2aZjEPoo6T8AYYvyIemI2S18rIALLMYjYYiZJJybaWxjeAowgnXwxpmyHSNVl3433S4oxEVRSlvms7Lu0jhXYH5+V6C7Xh/2xb44xusGNz0M6NJ+X/fIe/s35FjW9IpVCsyoi0jT0sKCsyHn6RaRsYBjo3ErzHYyGtD5EF+mYSyou87XSZc8aTZHWQbMqItI0BDnIvOJhtYhI2SBaReTNNI7qgN8HEVQi3jQbYjBo7rQ4ItKyaFZFRJpm79CbIRoniohIncBDA1JnSS9G04cap+uKSGXQrIqINA0zCHwSolGkiIiIiJQJ5iCmYzeZDHTqLpqEUSJBA7FiKiWahtHgjFpqaqvJShERqUd6hujeT9NIEZGyQYMfbtSolRQRqUfozk10gDmPmSqJxmE0RSOy+lqI6ZpolMZNGd2p6c7dJURDNBGReoSHeCeGeIAnIlIWSDndInRkiPkrRUTqEbpYbxf6IvR9iLmImWeYOYI/a1hmXuXHQinEVE101eZhn4hIPUKZ0iIhSpdERMoC06cwx+egkPOsikg9w1RM94UwqxjSUaGfG/7NT5b591eh80KkBIuIiIhImSjM6uCQZlVE6hmiBHuFngthSpvSj6F7QjRcckopERERkTKCWR0QGhbqzAoRkTqFZklzhXiA15RRRd+GDg7NEOL7U0SkXqFmf8aQ0+uJSNmgZrVP6OrQsqwQEalzaLT0aYgoaqlR/SH0aoiOwSIi9c4yIeZYXSwviYiUgbFCM4XmDflkTETk//5vldCVIeYPLDWrb4dODs0TEhGpd3YK0R2dRp0iIiIiUgFonLR56M1QqVml+RJG1gd7IiL/93+HhIaHeuclEREREakIRE/vDP0UwqjSIZipbDSqIiK/QEO6N0I75yURERERqQiTh/YLcSM2IsT8qt1ClE6IiMgv34nXhjbISyIiZYAbLxorrR/6FytERCRDl8vjQqT/7hqaLCQiIr8wf2jD0Nx5SUSkDDD1Ag1DngitzgoRqUrGC00RmlJVRFOFpgnRQOTs0Hohalmb2laVR0yL4fRAItULM0qM0/BTRKQscCNwaeiDUCdWiEhVslDotBBdalX5dUWof4io6vOhW0N8V7K+qe1Vy+ug0LQhERERqVMKs/p+SLMqUr2sM/bYYw+fb775UqdOnVQF1LlBTb2myqeOHTummWeemaZWT4bmyn/9IlKNjB+aOETmj4hIWcCsEq15NrQmK0SkKuk4zjjjfHjIIYek999/X6k2q9dffz117doVs8r8jXPmv34RqUb4/9khNFteEhEpAzRYWjm0WWhmVohIVdJh3HHHHXTOOeckkbZOz549Mav3h+bIf/0iUo1sGhoQoqZfRERE6phsVk866aSG23mRtsk333yTdthhB82qSPVzQGhoqFdeEhERkbolm9UTTzyx4ZZepG3y9ddfp+23316zKlL97B+iQedueUlERETqFs2q1AWaVZGaYcfQwNDmeUlEpExMF2oXmigviUg1olmVukCzKlIzrBTaL7RMXhIRKQNM5LxXiOlrlmaFiFQlmlWpCzSrIjXDpKEZQ5PkJRGRMsDUNZeFKJDvzAoRqUo0q1IXaFZFRESkALN6cWhQaF1WiEhVolmVukCzKiIiIgWY1f6hISHNqkj1olmVukCzKlIzTBOaLzRVXhIRKQPUrG4X6hdamBUiUpVoVqUu0KyK1Ayrhw4PrZiXRETKBF2AJw+Nl5dEpBrRrEpdoFkVqRn2CL0c2iEviYiISN2iWZW6QLMqUjMcHPostGdeEhERkbpFsyp1gWZVpGboFXohtH1eEhEpE2OFqF3lp4hUJ23ArP7cIJHRo1kVqRnWD50T6piXRETKACaVLxtSOOZihYhUJZpVqQs0qyI1wyyhFUIz5iURkTLA1DXnhd4Irc0KEalKTAOWukCzKiIiIgXOsypSG2hWpXWocDBcsyoiIiIFmNUBoWGhzqwQkapEsyqtg2ZVRJqGqQ+nDk2Yl0REygBm9cjQnaGVWCEiVYlmVeoCzapIzbBoaIvQAnlJRKQM0AF4ntAyoSlZISJViWZV6gLNqkjNsG3o7lDXvCQiIiJ1i2ZV6gLNqkjNcHDosxAzSoiIiEgdo1mVukCzKlIz7BN6O7RLXhIREZG6RbMqdYFmVaRm2DJ0a2jjvCQiUgaoWaUwfuUQHd1EpDrRrEpdoFkVqRkWC20dWjAviYiUAboBHxO6L7QKK0SkKtGsSl2gWRWpGcYLMX0NP0VEygJm9bLQ0JDzrIpUL5pVqQs0qyIiIlKAWb0kNCTUiRUiUpVoVqUu0KyK1AzjhP7e8FNEpCxgVs8J/SfUkRUiUpVoVqUu0KyK1AyzhFYIzZiXRETKwNihdUO0HfemQKR60axKXaBZFakZuoQIeBjsEBERqXM0q1IXaFZFaob9QoNDu+YlERERqVs0q1IXaFZFaoYDQh+Gds9LIiIiUrdoVqUu0KyK1Aw9Qo+HtspLIiJlYrLQNCE6uolIdaJZlbpAsypSM6weOiK0Ul4SESkDNFjaKXRqaFFWiEhVolmVukCzKlIzTBWaO/TPvCQiUgaKeVbfCznPqkj1olmVukCzKiIiIgWY1YtDg0JMYSMi1UldmNXvv/8+DR8+PH366adZn332Wfr222/Tzz//3LBF+fjpp5/y8X/44Yc0atSohrV/Dc575MiR6bvvvks//vhjXuY4HINjtdRx2hKaVRERESnArF4W+iDUmRUiUpW0ebP6zTffpCuvvDJtuummqXPnzlkbbbRROvPMM9OgQYMatiof//nPf9Lll1+e7rzzzmyUW8Ig85keeeSRdNlll6Wnn346G+/BgwenW2+9Nd10003pvffea9hSCjSrIjUD6b/tQpPnJRGRMkDNKi3HLwgtyQoRqUratFn9+OOP0w033JC23HLLtOCCC6allloqa8kll8zrMHsYViKS5eLf//532nXXXRPXeNiwYQ1r/xqY3vPPPz9tu+226YorrsiRYkzrwQcfnPr06ZOef/75hi2lQLMqUjOsGNo7tHReEhEpExTIzxSaIC+JSDXSZs3ql19+mW6++ebUvXv3tNVWW6Vrr702vfDCC1lEJY8//vjUu3fvdPHFF6c333yz4V3/pUirRfy7MURIESm3pOSyHT9LU3D59x133JFN0hFHHJGPw75K30saL+9rfIzS/bJNKZjVCy64IG233XY5alyY1UMOOSTtv//+/2NWef8ffRaOx2tsi0o/R1tAsypSM+waejq0TV4SERGRuqVNmlXM1zPPPJMOO+ywbFbPPvvsbNRK4fVDDz007bzzzumaa67JtZ4Fb731VjazRC5Rv379shksDNxHH32U7r333mxEidwSzdxmm23SLrvski655JKchks96XPPPZf23HPPHNUlmnvMMcdkI/nyyy/ndN0BAwbkc+jZs2e66qqrsqECjn/uueemHj165P2y/yeffDK/Bl988UXq379/fp1zpx732WefTUceeWQ2rC+++GLejvN94oknUt++ffN+is/y9ttv59cBU//www/nSO3JJ5+cz/Gss87K++A61hSc7mhOWbMqUjMcEhoe6p2XREREpG5pk2aVmk7MHObkhBNOSK+++mrDK/9lxIgR6YEHHkhHHXVUNnzUfRJRfPfdd9Npp52WVlxxxTT33HNntW/fPps46k8xva+99lo2mTvuuGM2u2w733zzpVlnnTWtvfba2YS+//776f77709du3ZN0003XZp++umzmeWYN954Y37fJptskpZffvm07LLLZhM5dOjQNGTIkGwc11tvvTT//POneeedN5tdUnxfeumlbKoxmKMzqxh0zDDbcZ6Y7rXWWivvh8/CuZ5xxhm5xpXPi7E++uij08orr5zWXHPNtPHGG+eI80MPPVR70VXNqkhbYI/Qq6Ed85KIiIjULW3SrH7wwQfZXGIUMY6Yu6b46quvsjmllpQU2E8++SQ3XurSpUvabbfdctQUHXjggTkqickj6vn6669n89ipU6e0++6759rXu+66K5vFNdZYI5tIzCM1s5hKGjphTh988MEclSU9mUjn5ptvno477ri8nv1yLpdeemnedo899sjnTvSWY62//vrZiLId5pTtML+NzSrmG3POORIh3XvvvdMpp5yS7r777hzN5XNtuOGG6bzzzsvpxNTs7rvvvmmZZZZJ++yzT/4cmN2WagZVLWhWRWqGjUOXhpz6UETKxlih1UNbh2ZlhYhUJW3OrGKw3nnnnVwjisGkC29zIoS8j/TYAw44IJvV66+/vuGVlNNkMaXUiN5+++05wokx7NatWzr99NPT559/nrd75ZVXsiGiRvaxxx7L60jf3W+//bJxLEwz+8BoYiQfffTRvA7YL8aUhkxEX4v60qeeeiptscUWuSkUppOoKB2G2a6xWSVKSvrxLbfckk0vkVUitgX33XdfNslcHz4vwoyvs846OYWZOtm2iGZVpGaYM9QhNFteEhEpA0xdc2boxRBfOCJSnbRJs0qEksgqZo1U3OZA2mxh+IgwPv744w2vpGz2MKXUv9KQiTpQzB7pskwXQ4QWMMkHHXRQNqEYTNJsBw4cmKOkXGMiuKzjPZhfzhFjWUDqLftkPdHNwmSTGkwElv3Q/ZfX+Emta6lZJarK+XPunCcRVOpdqa8l2oowpJhVTDF1u6QKczzWXXfddbnWti2iWRUREZECzOolofdCpnGIVC9tMg0Ys4qZJBJJym3j5kpNgZkh6khklUgjRq4AM0okE7NDWi/R0MMPPzyn5WIMqX8Fjss6DCINmYhSkuLbq1evXJNKejLrOCdMKY2fSpsdEXHdeuut875J4y3MKim5F154YW6exHnQ0fiPzCqvr7766rlWdYkllsh1sWiBBRbI9bNEfzHy1OHSWIlIL1HbproFtwU0qyIiIlKAWb0s9EGoMytEpCppk2aVulDSX0nTJcKI2WsKuupi8t544428DcaSiCPR0cZmlfpR0orZX2FWMYe8v+gkTD0p76cG9I/M6l577ZUuuuii3IipgPpUjoHh5JwKs0otLVPVcF6cx++ZVUw6Kch0F+7cuXNaaaWV0rrrrpvTfNGmm26adthhh2x+ibRyHMwqkV7mhG2raFZFaoZ/hCYP/T0viYiUAczqCaFHQu1ZISJVSZs0q5hHUlqp6STSWdSPlkK0lfRYopUYPswqNafUfBL1ZC7WAtJwuUaYX9JoiVxiCjGVmNoidbYps0r3X8zqSSedlE00kcvCrGIY2XcBxySFmP0yxU3R4KiIFBdT3HCev2dWOT/mX6VbMQ2jMKQYc0RKM9FcftI1mdRljD2NlzDWbRXNqkjNMF9o/dBceUlEpAzQYGmJ0Nqh6VkhIlVJmzSrQBot09bQLAkTVzRBKsAYkq6LoaNLLoaTKCcpwHT5xQwW3HPPPTlNlhpYDC6RzcIYYkp/z6ySaosRPPXUU389B5ofYVaJltKNt4BaVCK2O+20Uz5+kV5MgycioqQ1YyiZboYIa1MNljgvzo/zxPhikksNMdeFqXkwvewH48p1wvhirNsqmlWRmmHz0A2hDfOSiIiI1C1t1qwSXcXkYRQxephAoqKIWlHSXjGfTOFC5BFI9yXNd7PNNsu1o5g6hJEjdZbXMH507aW2FdFsqTCV7AeDyPasp5kS58BUNqT3XnvttdkcYhQxv3QIJrJZQOSViDDvx1iROsz5sS3Nkvg9cXzMKUaXc8S0fvbZZ7mhE0YbcX5EY6mvxRSTPkwUl7Rj9stcsBhUjo3BJppMp2NMeVtFsypSMxwY+jjEfKsiIiJSx7RZswqYSKaOIQ23Xbt2afbZZ/9VzFuKgSvqSIEaUTr2YvJWXXXVNOuss2YxdyqRUaaMIY2XNFyiqnTRLU0Dxohiivfff/+8njRe6kIxi6ussko2S0ylQzSUqC7GmX0W6b7sm7lZMaCY07nnnjuf90ILLZT69u2bDSgGGFPN3K4Yccwt5pWuwscee2yOrnJ+bMe+MdsdOnTI+0FLLyFC++wAAGYBSURBVL103o7GSqRCE13l90+nYWtWRaQK2C80ONQzL4mIiEjd0qbNKmDamBKG9FhSdNGhhx6ao5uYv6bAwGJYqWdFmErMXQH1rdSFYoSLOlSgJpT1pBizvnQdUVnqSDGvpOISceXfGM/CrBZgIDGhRDw5X4wy2xZgMjkf0nbffPPNHEXG5BJd5VilDaUwrhy7+OxEapmupoC6VYw1RrW02VNbQ7MqUjNsF7o31DUviYiUAWpW24UWCdHRTUSqkzZvVkVAsypSMywT2jW0eF4SESkDY4cODt0UWoEVIlKVaFalLtCsitQME4amDE2Ql0REygBT1wwIDQs5z6pI9VKfZvW3Wbf1B5+/zq6BZlVEREQKMKv9QxTIr8sKEalKNKtSF2hWRWoGsvPGafgpIlIWMKsXht4JrcMKEalKTANuSTTBVYtmVaRmmCG0WGjavCQiUgZ4GkYXN+pW52OFiFQlmtWWRLNatWhWRWqGtUP9Qu3zkohImRgv9PcQUVYRqU40q1IXaFZFaoa9Qm+Gds5LIiIiUrdoVqUu0KyK1AwHhT4J7ZGXREREpG7RrEpdoFkVqRl6hp4JbZuXRETKBCnAzJVFRzcRqU40q1IXaFZFagYac54UWj0viYiUARosbR46PLQAK0SkKtGsSl2gWRWpGaYPLRqyG7CIlA2aKl0UejfkPKsi1YtmVeoCzaqIiIgUYFYvDg0OaVZFqhfNqtQFmlUREREpwKwOCA0LdWaFiFQlmlWpCzSrIjXDpKF/hSbOSyIiZYCa1QNC14WWY4WIVCWaVakLNKsiNcNSoZ1C1K2KiJSFsUKzhOYP8YRMRKoTzarUBZpVkZphx9DA0BZ5SUREROoWzarUBZpVkZrhkNDwUO+8JCIiInWLZlXqAs2qSM2wV+iN0M55SUREROoWzarUBZpVkZqhW4ieJxvkJRGRMkDN6jIhOgHPwAoRqUo0q1IXaFZFaoYFQhuF5slLIiJlgKlrTgo9HlqdFSJSlWhWpS7QrIrUDMwoMW7DTxGRsoBZvTT0QagTK0SkKimDWf25QSLVg2ZVRERECgqz+n5IsypSvWhWpS7QrIrUDOOHJgqNl5dERMoAZvX00POhNVkhIlWJacBSF2hWRWoG/n+uEZotL4mIlAEaLK0a6h6ahRUiUpVoVqUu0KyK1AybhMjOo0mniIiI1DGaVakLNKsiNcP+oaGhXnlJRERE6hbNqtQFmlWRmgGzSoPO3fKSiIiI1C2aVakLNKsiNcOOoYdCW+QlEZEyMW2I4ng6uolIdaJZlbpAsypSM6wc6hNaNi+JiJQBJnLuHeofWooVIlKVaFalLtCsitQMk4VmCk2Sl0REygBT11wWokDebm4i1YtmVeoCzaqIiIgUYFYvDg0KrcsKEalKNKtSF2hWRUREpACzekloSKgTK0SkKtGsSl2gWRWpGaYJzRuaMi+JiJQBala3D50YWoQVIlKVaFalLtCsitQMq4cOC62Yl0REygSF8f8MjZ+XRKQa0axKXaBZFakZdg+9FNohL4mIiEjdolmVukCzKlIzHBz6LLRnXhIREZG6RbMqdYFmVaRm6BV6MUQ5mYhI2RirQSJSvWSzevLJJzfc0ou0TUaMGJF22GEHzapI9dMldG6oY14SESkDNFhaL0TdwZysEJGqJJvVc889t+GWXqTt0rNnT82qSPUza4jmSjPlJRGRMsDUNeeFXg/5ZEykellnnHHG+aR3797pueeeU6rN6pFHHkldunTBrD4Wmiv/9YuIiEhdglntH2Ke1XVZISJVScexxhpr6EwzzZSWWGIJpdqsFltssTTVVFNhVh8KmfEjIiJSx2BWLwsNC3VmhYhUJXOHDgj1qzEdHbo89EhoQMNyU9upltVJIaaU+DR0TcO6WtPOoSlDIlKdTBSaOjRBXhIRKQOY1SNDd4dWZoWIVCU0QRunxjRuaMJQt9AFoa4Ny6xvanvVcvpH6MLQK6E1GtbVmhifbP4nUr0sEuoemj8viYiUAW4E5g0tF/IJtoi0NLOHiJI93fCTZakMZ4ZeCC2Vl0REWpZtQneFNstLIiIiIjUEqWH7hN4M/djwc++QKWPlh+j1+aGXQ6uxQkSkhTk4RKnBnnlJREREpEYga4NpDW4IjQrRMIef14dYb3pnedGsiki54WHkO6Fd8pKIiIhIjTBNiBpV0lAxqoWeD1HDOm1IyodmVUTKzVah20Ob5CURkTJAdIPCeCZ1nooVIiItwPKha0MfhkrNKsvXhXhdyodmVUTKzeIh6lYXyksiImWAbotMJXFvyG7AItJS7Bj6JFSkABdimRqnnUJSPjSrIlJuxg9NHBovL4mIlIFintWhIedZFZG/Cjcv84XODpWa1MY6J0RWB9tLy6NZFRERkZoHs9o/NCTUiRUiIn8BpsCi4y+1qU2Z1EK8znZOmVUeNKsiUm6YD/nvDT9FRMoCZvXc0GuhjqwQEfkLMG/znaEfGvRlaETop4afLBevsR3bS8ujWRWRcjNLiP4DM+YlEZEyMHaIiGrP0BysEBH5k0wUoiskZQXfh64O7ReiodJHIRouscx6Xme7TUPUPEnLolkVkXKzfoiSj7XykoiIiEgVM0WIaWluCV0eomkbD8R6hF4P0VSJZdYPCLEd2/8zJC2LZlVEys2+ocGhXfOSiIiISBVDR8iZQkuEFgj9IwQ7hDCr2+WlX9bzOtvNHLLJUsujWRWRcnNgiKyZ3fOSiIiISA2yR+itUK+8JJVAsyoi5WaX0BOhrfOSiEiZmDRER06jGyJSDnjqjlndLS9JJdCsiki5WSN0VMh5+kWkbFA/xuT9p4QWZYWISAujWa08mlURKTdTheYJ2XdARMoGU9dcEnov5DyrIlIONKuVR7MqIiIiNQ9m9eLQoNC6rBARaWE0q5VHsyoiIiI1D2b1stAHoc6sEBFpYTSrlUezKiLlhunKZgtNlpdERMoANat06rwwtCQrRERamEqbVZrFzRhaJrR2iAdxTF5faKUQr48V+jOME5omNGdo2hAP/aoNzaqIlJsVQ3uFls5LIiJlYuoQcx1OmJdERFqWSptVDCRTKdwcYn5X9FqJbg/RWG6G0J9hotBaoUNCGOG/h6oNzaqIlJtdQ0+FtslLIiIiIjVIpc1qu9ABoX+HBobODZ1YIur0zw5haImOkmEyJvwjtGGI/XYL/dkIbTnRrIpIueGB3fBQ77wkIiIiUoNU2qzOHtozdGpo2xDZI6WQHnx0CDOHYaXuqoAU31lCy4aWC7HtIiHmogZM4NyhfUM3hg4NzRvCwAJR1/lDvBeRHjdXaIJQJdGsiki54Xv21RCZKiIiIiI1SWuYVWrxiaIS+WxsFFlmqq6LQv1CC4QK5ggdGXou9HzDz7tDXUOUSjCvIAb4odAnIbbBuNJkBKOLMbwyxHr0bOi8EKaV1yuFZlVEys0moQEhG3SKSNkgfY0bmS1CRBNERFqa1jKrp4QwljRDagypwkRXTwutHJo4hGndO3Rt6KbQpSHqXjGmmFoM53QhjO41oaL+dcsQ0dXVQxhk3nN5g+4L3RHqFeK8KoVmVUTKDVkjHUOV/G4TkTqDLpZnhF4IrckKEZEWphrNKk2Y2OaoECZz+hDfgX1DPULFe2YK0TyElOLtQ6QDY2y7h84J8RrTNmBidwrx/g4hoqgYxiVCB4YwsZX8jtWsioiISM2DWb0k9H6IaIGISEtTjWaVOtaeIVJ+12hY/ldo4YZ/l7JK6PgQ5//PEA2Z+L48KbRRiO/R8ULUslKvWpruO2mIczg5VMnvWM2qiIiI1DzcZF0W+iBkzYGIlINqNKsYUzoGsw0Rz6JBEkaVyChGlvPuEyL7hPpWoqiTh9iWWq0zQ6QAM68rYGJJi6O+lffSfOTwEPNYE5mtpGnUrIpIueG7kMySapy+S0TaCJjVE0KPhtqzQkSkhalGs8o21KFeECKyiuFkOwzpraG3Q5wzP98J3RYi9ZdIaWOzijHEqBKVJVL7RIj3ondDL4WYKmf5UKXQrIpIuZkvtF6Ih3QiImWBBktLhtYJUbMlItLSVKNZJV2XiCmGjgZLdPmlUQimkkgojZY4371CpPtiahtHVnk/BpbpaojUMkE+nTHZnveyTL0q87FyLpV8IKhZFZFys3no+hDzTouIiIjUJJU2q0w/g1kla2SzUOMUtUlCG4dI7SVNl06+mE3Oj07AmNICIqkYUszmDiHmZGXqm01Dp4e6hDCvC4ZI9e0fIsJawL5JJeZcbLAkIm0JHsZ9HOL7VkRERKQmaY3Iau8Qabq7hGYNMUcqIgpK918aJvH6BiHMKyZ05xBT0nDjxbZA6i7bEjEtzCrmFLNKFHarEJHbhUJsRw8A0opJC6aWC6N7ceisEOsrhWZVRMrNfqEhIWr8RURERGqSSpvV2UI0T6IW//nQDSHMJmLu0+tCpPASXSWiSjkE3XyJfBJtfSB0VYg5WA8OHRu6MrRviClq6Pa7foj9sO/tQkxRw9Q2zM96ZwjTyjQ2RB4wqnRdJ1UOE1kJNKsiUm747mMu6W55SUSkDHCTRtSBFDaiACIiLU2lzSodfUn/xZg+E3ouhGktRKovtVbUqZYyY2jHEIaT7e4Kce5rh3qFtggV71k8RDMlTC11raT7LhI6IjQwxDGJqHIeTG9DDSw1q0Xn4HKjWRWRcrNsiO9GHtaJiJQFUtV48k+BfCU7VYpI/VBps4pRw1TOE6KBHDdUy5WIh3NThhpDxJSUXl5nO27AMLDUrRJR5bUiMkqa8MwhGjXNEqKOldpY1mFkef8CIc6DpkwzNPzkO7cSaFZFpNxQVsHDQb7/RETKAlPXkBo3LOQ8qyJSDiptVkWzKiIiIm0AzCqpaoND67JCRKSF0axWHs2qiJQbMkW4j6xUxoiI1CF8ydBQhEnvmWtVRKSl0axWHs2qiJQbyhsWDU2bl0REygBPw+jidkiI2isRkZZGs1p5NKsiUm46hpiyy+8YESkrTNnAvIFEWUVEWhrNauXRrIpIuaET+hsh5qgWERERqUk0q5VHsyoi5eag0CehPfKSiIiISA2iWa08mlURKTc9Q8+Gts1LIiJlgknqmSPLNGARKQea1cqjWRWRckNjzpNDq+clEZEyYIMlESk3mtXKo1kVkXJDN+DFQ9PlJalL/h6aLERL6JlDs4fmCS0SWjq0TGjJ0FKhFUIrh5ZvWOY11rG8bIjt2XaJEO+fL9QuNFNo6tAkIRrtSH3h1DUiUm40q5VHsyoiImWBSNfkoTlDGM0uoR4TTDDBIdNNN12/WWed9dxpp532pkknnfThKaaY4tFYvm/GGWf89/jjj/9ibPfaRBNN9OxMM8304JRTTvnoOOOM88Lf//7352LdE5NMMsnDk0022QOTTz75PVNNNdVN//rXvy6K/R0f+z0g3rd9aN0QhnbW0KQhU0LrA37PF4cGh/gbEBFpaTSrlUezKiIif5kJQ3OFiIBiSncNHRrqN9ZYY50yxxxznL/EEkvcuOKKKz7euXPn13fcccfBvXv3/mSPPfYYGUoHHHBAOv7449MJJ5yQjjjiiHTooYem4447Lp1++umpX79+6ZBDDkkHHnhg2n///dM+++yTeE/Pnj3TrrvuyvuH9+jRY3CXLl1eXXbZZR+affbZb5hwwgkvjGOfGjoudHBoz1D3EBHb2UJMbyJtC8zqgNCwUGdWiIi0MJrVyjNO6IKQZlVEygVZmaQCT5yXpE1AxJK023lDS4499tibTD311Ae3a9fu4sUXX/z+MKaDF1544R+XXHLJUeuvv/6Xe++99ydHHXXU1yeeeOLPAwYMSPfcc0966qmn0ssvv5zefvvt9OGHH6ZvvvkmjRw5Mv30009p1KhRqZTvvvsuffnll+mTTz5J77//fn7Pq6++ml544YX07LPPpgcffDBdfvnlqW/fvj/tueeeI7p27fp1+/btv4vj/7jooot+v8gii3y0wAILPDnzzDP3n2CCCfaJc94gRIoxqcikJU8RIhIstQu/vwND14eI5IuItDSa1fJCydC/QozN/Cw4M/RCiFIg4MZyjgYxfptBJSJ/BTzBjiHKC6UNwACyUZi+E+LnXX/7298eD2P69MYbb/zG7rvv/tlpp5024rrrrssG8sknn0wvvvhieuutt9KQIUPSsGHD0vDhw9O3336bfvjhh/8xpWMC78XYYnBHjBiR9/vBBx9kI/vKK69kE4shHjhwYLr++uuJ2o7s0aPH0BVXXPGlMNZPxLk/HLpt3HHHJQK7dYja17FCUpvwuyP1e8EQ9dEiIi2NZrV88B0+Y4hrfGPo6NAsISKrp4WYVgKzynYbhq4MnRtaJUQXeBGRPwtG9d+hzfOS1BzUi9DAiDrAnpNMMkm/lVZa6daNNtrog2233Tb16dMnnXHGGemmm25KTzzxRHrvvffSjz/+2GApqwOMLWYZ43rRRRelo446KvXu3Tttv/32acMNN/w4Ps990047LYNh79DGoQVCTIMiIiJSoFktH5jQaUKHh34KvReilKdX6P4Q/Qj6hZgP8a5QCj0ZWi5ERFZE5M/CTBLDQ/gAqREYNMjb5qnm6jPMMEOfmWaa6f7ZZ5/9q/XWW29k3759v8Wcvvvuu6NN3a1Gfv7553yumGnSjonC3n777enEE08c0b17968XWmihr6affvpnpphiimPjc3cMUd9KlI4nuyIiUt9oVssL9x7rhbjGGNYvQp+Evg2NDHEz+XHDvxGRVRo5ioj8FfYKvRHaOS9JTUAklYZEp08++eR3b7bZZq+eeuqp39x66605tXfQoEG5hrQt8PXXX6fBgwfntOHbbruNxk4/dunS5a1//vOfA+PzMxUKT3EXCxlpFRGpbzSr5YeSnHNCH4SInjYljOwjoS1DPkwWkb8KnoeeJ/S0kSoHk7reuOOOe8Sqq656X9euXT+j+y41qDQ3qgeGDh2arrnmmrTvvvum7t27f7/uuus+PcMMM5wR14VBcdGQc7hWJzyRp0C+U4iObiIiLY1mtfzQwHGN0H2hpowq+ixEp3/mbLc5ooj8VSj/owyQ5m5ShXCTT3OC+aaddtoDp59++oGrrLLK0FNPPfV7uvV+8cUX6fvvv2+wcvUBn5fIMRHkMK4jN9tss89mmWWWF8K0njXhhBOuGteKFGm7D1YX/D5o+vVoqD0rRERaGM1q+eGeBMN6eujHUGOj+nPo1VCHkEZVRFoC7iEJRnlvX6XQ+n2PCSaY4IYtt9zydUzqHXfckVNjJeUuww899FA6//zzacr0wZxzznlPXK8jQotz8aRq4AvmshCpY86zKiLlQLNaOchmejz0TajUqNJo6bwQ9y4iItKGmSgM6mLt2rU7YJlllnmNzr4333xzbjwkTUO9Lt2PV1hhhU9mn3324+MaMp/nVPlqSmuDWb0k9H6IVGARkZZGs1oZiK7OHTo0REOl0sjqnSEaIDpFmYi0FERVJwwxA4pUCeNPOumkq80///xnbLXVVv+58sorRzFHKfOfyuih8/HHH3+c7rnnntSrV683F1hggUsnnHDCrnE9p/zlskorglmltpiJ49dkhYhIC6NZrRzcNPJd/kqo1KxS7jFJyBRgEWkpyNRYPcR8/dLabLPNNhMvscQSa84777wXbLnllu8TTW0rnX0rBdP0PProo2n33Xf/dM4557zuH//4B3PQUscqrQdP4lcLbRFiyiURkZZGs1pZaPp4YYgpa6hffTHULSQi0pLQXInsPDPzqoCJl1lmmdU22mijC3fZZZehV199dd01T2pJHnzwQSKsH6211loXL7TQQmtPMskkU8Q1xjSJiEjbY6cQc/HtkJek3BA95SHkjaFnQvuF7PYuIi3N/iF6nvggspX5e6j98ssvf9Zhhx32FkaLTr/y5xkxYkSen7Vfv37vd+jQ4cqpp556s7jG1rCKiLRNuJF5M7RrXpJKQG1q7xBlHsuFTP8VkZYGszo01CsvSavAl/vc44477ondunUbNHDgwB9/+OGHBsslf5UXX3wx7bPPPp9OO+20V8d1XinkJOUiIk1Daidm74Aa1G0h5vi8tWSdKp/6hPYJDQjRWKlvw3JT21azSF0m80pEqhOyZh4KUUomrcRM44033h7LLbfcc+ecc46pv2WA6X46der03hRTTHFcXG8mF5bKM02IelU6uolIddJhrLHGGjT11FOnueaaS6nf08+hUQ0q/s3PpratOs0xxxxp0kknpSnU/SGn2hGpXlYOEV0le0NaiS6zzDLLU8cff/x3Q4cObbBX0pKQUn311VePWm211Wi+sWfoH/nKS6Uge4DrfnFoKVaISFWyzjjjjPPZLrvskh544AGl2qxuv/32tM4662BWnwjNlf/6RaQaodxg5tCkeUkqzjRTTz31IR07dvz28ccfb7BWUg4++ugjGi6laaed9rK47vOGnK+pcjB1DdedAvnOrBCRqqTDuOOOO4gsH5G2Ts+ePY2sioj8ARutsMIK/Y8++uivBg8e3PD1KeXgm2++SRdccMHItdZa64EJJphg67j20/7yK5AKgFklqjooxFRCIlKdZLN6yimnNHxzirRNKLnacccdNasiIr/H3/72t/O7d+/+5M033/zDV1991fAVKuVg5MiRaeDAgT/16NHj/Wmmmea8uPyL/fJbkAqAWWWOrPdCzpMlUr1ks3riiSc2fHOKtE2+/vrrtP3222tWRaqfqUPzhKbMS1JZxh577Fd23nnnj59//vn0448/NnyFSjn4+eef05AhQ9Jhhx3204wzzvh4XP61f/ktSAWgZnXH0CmhRVkhIlWJZlXqAs2qSM3AfM4Hh1bIS1Jxhu+5554jPvzww4avTyknpP2cffbZaeaZZ34nrv0mv/wKpEJQGM9TsfHzkohUI5pVqQs0qyI1w+6hF0Pb5yWpOF8ddNBB3zuvauW4+uqr0+yzz/5+XPuuv/wKRESkAc2q1AWaVZGagagqc2gzq4S0AtmsmgJcOTCrs80227C49t1/+RWIiEgDmlWpCzSrIjWDkdVW5qddd931508//bTh61PKCQ8FSAOeeuqpP49rv9UvvwIREWlAsyp1gWZVpGboEqIxqr1mWonUrVu39Morr6Sffvqp4StUysXHH3+cDj/88DTJJJN8Fdd+m19+BVIBaLDE/Kq9QnOyQkSqEs2q1AWaVZGaYdbQSqGZ8pJUnNSxY8d01113pREjRjR8hUo5GDVqVKLrco8ePdKEE074ZVx75lqVysDUNeeGXgt1ZIWIVCWaVakLNKsiIs0jLb744umss87KUT8pH3QCvvnmm1OnTp3S+OOPr1mtLJjV/qEhoXVZISJViWZV6gLNqohI80iTTz552mKLLdLLL7/c8BUq5eCzzz5jjtU0yyyzpLHGGkuzWlkwq5eFhoZIBxaR6kSzKnWBZlWkZpgwNFVogrwkFSdNPPHEqUOHDunKK69Mn3/+ecPXqLQk3377bXrggQfywDTDDDOkscceW7NaWTCrR4fuDa3MChGpSjSrUhdoVkVqhoVDTDc5X16SipNWWWWVdOCBB6bevXunAQMG5I610rJgVPfaa6908MEH5yj2xBNPrFmtLGOF5g+tGOLpmIhUJzVgVn9ukMifR7MqUjNwv35HaNO8JBUnm9SHHnoo9enTJ/Xq1Ss9++yzaeTIkQ1fp/JXGTx4cDrmmGPSdtttlxtZXXjhhWmaaabRrIqI/C+aVakLNKsiNcPBoU9De+YlqTg52sc8q3feeWc69NBD0znnnJNeeOGF3BBI/jxEqIcMGZKuuOKKfF379++fm1hdf/31abrpptOsioj8L6YBS12gWRWpGfYJvRvaJS9JxUn7779/+vnnn3MDoPvuuy+dcsop6eijj0633XabKcF/gaeeeipxw3XsscemG264Ib333nt5/bXXXmtkVUSkaTSrf4RB3TaBZlWkZuB+/faQacCtRNp7770bvjpT+uqrr9K9996bU4NZP3DgwLxOms9PP/2UXnvttWxSmVOVOuBhw4Y1vJrS5ZdfnqaaairNamWhZpXC+BVC1qyKVC+a1T9Cs9om0KyK1AyLh7YNLZSXpOJkUzpq1KiGr8+Uhg8fniOB++23X04Rvvvuu9OIESOyCZPRQ3Sa1OnnnnsuHX/88WnPPfdMF110UXr33Xd/c33/hFnFaI3TIP4tYw7dgI8K3ROyG7BI9bJ6mNV3NavSHGq5elizKlIzjB+apOGntALZrDY2oh999FGOsBId3GqrrXKkFdOqYR09L774Yjr88MNzt1+aVVGbOmjQoGxiSxlDszpuiGjgbiHSD6YOyZjjPKsitcEyYVbf1qxKc9Csioi0fZo0q8C6J598Mu2www5p1VVXzdPb3Hzzzblb8IcfftiwVX3zxRdfpJdeeikb+ZNPPjmtu+66qUuXLtmofvPNNw1b/ZZmmtVpQwuGMKgXh14JnRuaLSRjDma1f2hIaF1WyK8wyXW70HKh1ZVqZfUJs/qhZlXaOppVkZqBzEaiqtxLSiswWrMK3377bXrllVfSLbfckqOGG264YY4cXnrppb+pw6xHGGjuueee1LNnz9S5c+df56nFzNOsanQ0w6zOGiKSekvotRDtst8MHRqaMiRjztghzD7Xcy1WyK9Qy3t86LHQy0q1sgaFWR2pWZW2jmZVpGaYObRs6F95SSrO75rVUpiLFcO60047pb322ivXsxJNZO7Qzz//vGGrtg3dkYk2n3XWWemwww7L6b4777xz2meffXKd75dfftmw5egpMaub//IryPwjtFKoR+iM0FMhBjE0KnR+aJGQ/HnWCO0Q8svmt3QIvRB6PsTfmVKtqTvDrH6tWZW2jmZVpGZYL3RmiPslaQWabVaBzsCYNaa3Icq65ppr5vdfd911ef1bb72VPvnkkxyRbQvQMImGU4MHD07PP/98nov2uOOOy5HUtdZaKx1yyCE5ukqNb2kTpd+jxKzuFPpnaJbQhiFqKoeFCoNamNX3QkRapwlNEeI96s+JyHRT6+tR/C1NHtojxN/dESFqpJVqTa0dZnWwZlXaOppVkZph3xDzrO6al6TijJFZhR9++CG988472aSdd955eU7W7t27p1VWWSV/8V544YXpwQcfzKa1lsFwM1fqFVdckfbdd9+0xhprZJNK7e6ZZ56ZbrrpppwiPaZT+zSY1a/i2h8d2iZ0eYio1iehwqAW+i70YohOthuHuoe2VH9KG4XWD3UtWVfP4m9ps9BVoS9CvUMirc0KYVbf0axKW0ezKlIzHBj6KLR7XpKKM8ZmtRSM2uOPP54N6+abb5622267nBKL9t9//8QNx9VXX53+/e9/58jkBx98kFNpq41PP/00vfrqq+nRRx/N9bmYUdKcuTZ8ll122SV169YtL99+++05kvpnwaxOOeWUX8e1Py90Nr+D3xHbkRJMk6UTQieHTlN/SseEDg+dWLKunnVKiL+na0PXheySLNWA86xKXaBZFakZdgk9EWrulJPSwvwlswqYTzrf0lTo6aefTueff37adddd09JLL50WWWSRtMkmm+RjMA0ORu3hhx/OEUlSa+kqTJottZ4YX6KZRG7ZZ3PTakcHU8bwudgf88QyMHAc6ms//vjj9N5776XXX389py/feOONuf4Wg83gsdxyy6VFF100G/CTTjop3X///Wno0KH5HNnfX6HErGIUDggRVWX5h1BjszoixOunhniis1eIdAQ15iI63Td0cMm6elaf0P4hvoSp5yXNXKS10axKXaBZFakZ1gwR8HCe/lbiL5vVUtjPu+++mw0p6bPnnHNOjq4edNBBqVevXjlCScpwx44dU6dOnXInXUwi6cQXX3xxnhqH6CZmlv1gZjGIzY3GYnAxvJhRzDBmlFReak0vu+yybKRpjkRjpI022ih16NAh/6RpFOfC+hNOOCFvQ8dj5pp97bXX8qDSUpSkAVMrSCdWutMeFBoYKq1VRT+F3gphVBnM5g7Nq8ZY84d4OHBXqFvDunoXf3tcF7rcTRgSqQY0q1IXaFZFaoapQ9w3OSNHK9GiZrUpSP0lDRiThjHdbbfdcu0nNaCbbbZZ2mOPPdLuu++eu+ry7yOPPDJHM/v27ZuOOeaY3MwJo8n7Mb9nnHFGuuSSS3I09Morr8zGkrRd1mGQWSaKi9gPDZGoOe3Ro0c2pHQy3mabbXKDJMS/SWOm1hZT++abbzaceXloMKs0WNril19BZrrQViFSgx8IDQ4VhpXoKvWtM4Xkz8PUNUwBxFyOIlKdaFalLtCsiog0j7KbVdJxv/vuuxwhJeWX+VkHDRqUXnzxxTRw4MDcqIiIJ4YRU4kwrZtuumladdVVU/v27fO/11tvvbTQQgul2WabLacYd+nSJa222mppjjnmSHPPPU/uTNy1a9cctV1ppZXy9qQjEy3db7/90qGHHppN7TXXXJPTepkP9e23385mmppVUoRJFy7ntYASs0qTm1KIbk0VIs2AKODrIRosfR8iV37HkBGwPw/TYhCldp5VkepFsyp1gWZVRKR5lN2s/h6k99I1GNNIA6ZHHnkkR2HvvvvubCovuOCCbGQHDBiQLrroopyie9RRR+UILcuYT0wu0dNzzz03G0HWk1bMv++44468P9KSqad94403slnGPLcWJWZ1dIXaY4cWCm0SoiEQkdb3Q5gtprmRMedvIaYGGhqykZBI9aJZlbbDzw1qAs2qSM3AVH+zhibLS1JxWtWs1iPNMKulkCe/eYiuwXuHZgzJmMMDAKZm6R9aihUiUpVoVqXtoFkVaQssH6LPzJJ5SSqOZrXCjKFZhUlDNMGZPjQ+K+RPMW1ottBEeUlEqhHNqtQFmlWRmsGpa1qZNmJWf+fxZZXxJ8yqiEi9oFmVukCzKlIzHBIaHiJDT1oBI6sVRrMqIjJaNKtSF2hWRWqGPUP/CdHoVFoBzWqF0ayKiIwWzarUBZpVkZph09DlofXyklQczWqF0ay2CmOFVg11D9lRWaR60aw2gq75r732Wu50f/bZZ6cnnngiG53GMI6/+uqr6dprr81zjj/55JPp22+/bXj1z8M+OCbd9TkPpnhrLryXLvxMU/fKK6+kkSNHNrwimlWRmmHu0Nqh2fOSVBzNaoXRrLYKTF1zeuj50JqsEJGqRLPaCAwfBnSppZZKs8wySzrwwAPT66+/3vDqf/niiy/yFG7MT7788svnqd4+/PDDhlf/PMyPfuyxx6Ytttgij19MN9dcPvroo3zu++yzT7r44oubNNn1imZVRKR5aFYrjGa1VcCsXhpivtpOrBCRqkSz2ghMKPOOt2/fPs0444ype/fuef7wUaNGNWzxS1SV+coPP/zwtMgii6RFF100zz8+dOjQhi3+PJ9//nk6+OCDU+fOndOFF16YDWhz4fiXXXZZ6tGjR44Kf/XVVw2viGZVRKR5aFYrjGa1VcCsXhb6INSZFSJSlWhWG0FkkxTcPfbYI62xxhppm222STfeeONvjB/G57777kuHHXZY2nTTTbOxPPXUU38TWWX7u+++O5122mn5tauuuiqn5pJmXAr7euyxx9IFF1yQzj///HT11Ven3r17p6222ipdeeWV6dNPP23YMqW33nor7+eUU05JZ511Vrrzzjt/Y2Y5fvF+jK6R1f+iWRWpGf4emqzhp7QCmtUKo1ltFTCrJ4YeC7VnhYhUJZrVRnz22WfprrvuSgcddFBOxd1rr73SpZdemmtBi+jqe++9l1OAjznmmHTkkUdmQ8s1LMwqqcT33ntv2mSTTXIq8WyzzZZWXnnlvD0pxcV+MK6PPvpo6tWrV1pwwQXTMssskw3VBhtskE0wxpRIK9sTNT3nnHPSmmuumfc355xzpo033jhdf/31+Xhsg3HVrDaNZlWkZpg3RKBjzrwkFUezWmE0q60CDZaWCfFlMwMrRKQq0aw2ojCrpOL27Nkzm9GTTz45R0m/++67vM3LL7+cjjjiiFyneskll6Tddtst9evXL5vVH374IW9LKu6GG26Y9t1333TUUUelnXbaKW299dY5PXfQoEF5X88991zef7du3fKxiJbyu1hhhRXSYostlg0nRvT999/PUVdM7QEHHJCOP/74tN9++2UzjTElwsp5I1KYMdia1d+iWRWpGbqFrg1tkJek4mhWK4xmVURktGhWG4HhIw14//33z82ViKAeeuih2Uh+/PHHefx+5JFH0iGHHJIjnTfffHM2hxhXop9EQkn7XXvttbOp/Oabb/J+eQ/GcrvttsvvwYBSX7rjjjvmiCuRWyDyutlmm6Ull1wypwaTBvzQQw9lo8X7eV8B6cmYYAwvKcIcmwZLmtX/RbMqUjMcGPootHtekoqjWa0wmlURkdGiWW0EZvX222/PkUuipbfddls2pjRTevPNN7NhveWWW3JDJYwh6b5ETzGrQ4YMyTr99NNzZPWGG25o2OsvnXqJjnbt2jWb2WeffTaddNJJ2VhyjMJY8pNILu8npZdjkurL+7h/ICoLRHAxwERbWf/iiy9mY6tZbRrNqkjNsF/ovVDPvCQVpwXN6s8NP+X30KyKiIwWzWojMKuYRwwo0dSnn346m0pSeZ9//vn01FNP5VReDOf999+fHnjggbwt1/Ddd9/N2/Tt2zdPH4ORLSDtl3RdDBMm+MEHH8zRW8zmww8//GuK8ffff58GDBiQ05Axu//5z3/y8korrZTrWqlTJf13yy23TOutt15aaKGFcsdioq9EdjGr3GdoVn+LZlWkZtg+xP9T0oGlFdCsVhjNaqtAzeosoflDk7JCRKoSzWojSs3qeeedl9NziXCeccYZ2ZxedNFF2Ugyj+kLL7yQzSqRTAztO++8k83t0Ucfncf6e+65p2Gvv5hQall33nnnbGzZF+9jmalxCrPKTxo6kYKMWX3ttdfSFVdckc3qzDPPnA0rwqQuscQSueESx+NcSBGmZlWz+r9oVkVqhuVCpAAvmZek4rSgWZXmoFltFcYOHRC6LsSXjohUJ5rVRmBWb7311hwZxazS+ZepZUjhPfPMM3MktGhqNGzYsBwhZZlrOHjw4Jy2S9QVI0rta0ExfytRUSKr7BOTyXHYB42UYMSIEdlokoZ83XXX5WZOpAFT28q2NH8iEksKMPugSRPHxYxxPnYDbhrNqkjNMFFomtCEeUkqjma1wmhWWwWmrhkQGhZynlWR6kWz2ohSs0pzJWpNqROlJrVDhw5pqaWWylFXakSJlmI0mZMVA/rBBx+kTz75JM+DSidgDG4BEVLqXun8S1SWlGHmUcWU0kiJWligozDdhYmY9u/fP5tl5nRlHQ2bSudppXkTkV2itByXfWCINav/i2ZVRKR5aFYrjGa1VcCsXhwaHFqXFSJSlWhWG0GToptuuintvvvu6bTTTsvLX331Ve7YO+2006Z27dr92vn3559/zkaSZkhESVlHhJQuv5hV1pNSzFyqRFu33Xbb3KyJulciqKTuUgu766675vRilunwu9pqq6X5558/dxvm2NSt0pGY6W2Ye5Vo6sCBA3MjJqbDoRswXYQxrBhgjC1GW7P6XzSrIjUD2XncR1JSJq2AZrXCaFZbBb5kLgq9G1qHFSJSlWhWG4E5xTBiVomQEmkdNWpUNqDLLrtsWmuttXITI0wk0ESJ6WOYdxWzyrZEYkkhZltM56KLLppWXHHFHIGlPrUwkRhbOguTGsw2RFPZ16abbpq22mqrnNI7fPjwvB0Gl8gs+1x88cVzzSp1rER5SQsmzRizSn0rprYwuvILmlWRmmH60CKhafOSVBzNaoXRrLYKPBXrHjosRJMlEalONKuNILWWFF8MKSm2RS0p0U3Scols0nRp5MiRObJKei/RTOpTMYwFpO8Sgd1ggw1Sly5dcg0rU+I0jnbSFIn9EnUlSkq0lFpVTPArr7ySvvzyy7wdxyKaSnry+uuvn/fbp0+fbFR5Ddg3DZ4wuawnTVl+QbMqUjN0DPUNrZqXpOJoViuMZrXV+HuI4vhx8pKIVCOa1UZg/KgLxegVhhQYt1nH/KZETwtK1xfbFmB0icwSrcV0sk1jeA8dgD///PMcRcUssx3nwL5L98k69sP+2C+R09Ia1tGdu2hWRWqI3qHXQzvlJak4mtUKo1kVERktmlWpCzSrIjXDQaFPQ3vmJak4mtUKo1kVERktmlWpCzSrIjXDbqFnQ9vmJak4uRmCVA7NaqsxXohUYJotiUh1olmVukCzKlIzMIvEqaE18pJUnHTQQQc1fHVKJdCstgo0WOoaOjg0HytEpCrRrEpdoFkVqRn+FVoiNF1ekoqTunfvnp588sn06quv5gm8Sxs1FNBsgdb3zzzzTJ53bXTblQuaMnBMuh8OHjw4zwdXjkYNNIFg/4899li68847cwv/m2+++VcxN92wYcMatv4vdFzk+tGpkTnsiu15P+veeeedX68Xbfw1qxWHaOqFoXdCTl0jUr1oVqUu0KyKiDSPNOuss6b11lsvT9rNXG58gTYGs0X7etrTb7fddtnIYWArCcfs3bt3OvPMM7NxLkedLa39zz777NSxY8c099xz/4/4/Jdcckk2zgWYZswt89UtueSS//OeVVZZ5dcJ24FpBqaZZhrNamXBrPYPDQ6RziEi1YlmVeoCzaqISPNIk046aZpzzjnzZN59+/bNc6yVginEjGFSZ5lllmy+mMONdvaVhGOus846ab/99ssR1nKYVaKjpEUz0ToTpjOQMJk52mWXXXIUetddd82pvO+++27Du1K66aabssFlYnQmT2cb3rPDDjvk5R49eqTrr78+T5DOfHPTTjttc80qJmup0Pah9UNThWTM4ToOCA0LdWaFiFQlmlWpCzSrIjXDJKHpQxPnJak4aeaZZ07t27dPG2+8cTrmmGPSc889l9NhC5hn7dZbb80GbPnll8+GjfTWUrPK3GoYSEztE088kV5//fW8roB51vhiJiJJ9JIJzJko/PHHH88GkWM0Tutl3raXXnop74+f55xzTtpss83S0Ucfnd9fpNWSgsuE6Rz7qaeeymm8H330UU7XbWyo2fb555/P6bzs96233vrNNhzn2GOPzVFmIqicVwHm+L777svR3R133DFHSElHBiLSnBtGl89TGGlef+ihh9IBBxyQRQo1pnu66ab7I7P6z9CcoU6hc0IvhM4OzRaSMYeaVVqP3xBanhUiUpVoVqUu0KyK1AxLhnYILZKXpOKk2WefPUf/6Ap80kknZWOK2St45ZVX0qWXXpoOP/zw1K1bt7TzzjvnukwmFweM7R133JG23HLLtPDCC+dUWL6A77nnnl8NKJOGY0xPO+20bOh23333tMYaa6RFF100H/vaa6/NRrKAycUHDBiQNthgg7Tccsvl/RGd3GijjXJK7dtvv533zSTjGOdOnTrlYxMd5jxJFT7jjDOyMS3gfIlurrXWWnnbpZdeOp/Hgw8++Ot5vvzyy+m4447LhpRzKp3cHDhHak4333zz/Dk4D4wpkVVM/FFHHZXNeCmk//br1y/16tUrPfLII/lz/UFkdcYQEw9fG3ox9FGIWssjQ1OH5M8xa2jB0KR5SUSqEc2q1AWaVZGaAaP6YGjzvCQVJ7Vr1y5tu+226dRTT02nnHJKNpSYNiB6edddd+XXzj///GxoSW/FrGJSMW9333132muvvVLnzp1zTSf1r+uuu2468MADs0Elwkr0kkjkqquums0sUVrMJ8tLLbVUrvckKso+iajSnAhT3KFDh2wC999//xz5XWSRRfK/hwwZkn744YccIeXYRIYxtptssknaZptt8rY77bRTNqLw+eef5+gnAwNpzJhezpdzPfTQQ3M0mSgoEeHjjz8+G0sMemlktYDo65577pnPmcZUvA/DjIElMt24ARP1tRhsIquYZ65DQ2S19I+eKVWWCWFg+4UeDf0cYiAbFbo4RCcyEZG2jGZV6gLNqkjNcEhoeKh3XpKKkxsskdZ62WWXZVOKISXdlWgjJpP11LJiIDFyGE2irzRYwtz16dMnR1wvvvjiHFUktZao5lZbbZWOPPLI9Nprr2UTSkRxgQUWyKnEGFxM7MMPP5z22WefXA9LeixGlfRgDClmk/d8+OGHeb9sRxSYFF1SfTGF3NBsscUWqX///nn5zTffzGYb01pEMvkcnAPvw6BiQqkdJW2ZiOfWW2+d90MTKc4dY/l7ZpVaVUwpZpzzx7Dffvvt2VRzDKLM7JtUZUww9a1sz0+OS3S3wazuGCLKRytsOtReEKIB0MjQjyEGMfR+qFeIelXy5tWf0z9C44cmCnHdm9qmnsQ1QBOESJMWqQY0q1IXaFZFaoa9Qm+GeuQlqTi5ZpXmQURQL7roovxvon+YMCKY1Ipy44Dxo1MukVUiibyOscSgYe6IOBYQcSRySsT2/vvvz2m911xzTY6Usq5oTsR6TC5ptxhOmjth9tgfx8TwFWBmMaGk2pKaTJTysMMOyxFOTGEB50kUc++9985mkggs58k+OfciagwDBw7M6zDr/BuTiVklPXh0ZhWjjGk/5JBDcj0q14HPSM3qvPPOmxZbbLFsyFdYYYWcwkxTKExx0biK6zDNNNN8FdeetN7uofNDj4do/lMY1ELfhV4KHR5aL7RxaDM1RmJ+VX5uFNogtEnJunpWtxDR/Y4hbpQw8yKtjWZV6gLNqkjNwL0SPU82zEtScdKMM86YDScNhzChmDwimkQaSePFvBEppTkQZpZt2Y6IJyYNs3fwwQdnY1tAnSamkogpKcO8Rl0nRpiaUCKMQG3sDTfckOtMMYfUgPKTqGoRiSzAeHKcc889N58X0UyWid4WppYoKvvgfIn4YkAxk9TPssyxS7v4cl40VMJAY5Jp1ISx/D2zyrE4LteJ/VOPSyQas7rQQgtlo0o97pprrpnWXnvtPBhxDTHRH3zwQW7cNPXUU38d1/7c0Jn8Dn5HbPdUiDTg40Mnhk5VY6STGn5eEeLLhocDXMdTQo23rTdxDc4KHRGi67RIa6NZlbpAsypSMywU2jQ0b16SipP+9a9/5agj0UkioqQCYxQxokUKK6nApPwSBS3MKpFCDCNfthhBajMLSOflZgNzignkNVKHSTGm+RE1pEDqLo2MiJBiDjGCRG9JqSXSWjqfKcaQpkaYVSKaRChJDS41q9TYksp7+umn53NiOwwv9arUmWJMS80qx6dOlygwqcnNMatsQyo0NbWcEwMOhpxzJkJMnSzRV4wppp3uwDSuIgLMdmeddVZhVjEKh4ZeCzVO/S30bei50Bkh0hD2Cx2oxkj7hOgE/FiIlOqLQtQd7B9qavt6EX9Le4duDr0bMr1FqoHVwqy+q1mVto5mVaRmGCdEGRnTIEorkM0q0dFnn302Rxoxouedd16OQhJBxGgR1aRu9IILLshmlfrV34usYgKJrPJFjEktzCoGEjNKtBMwc5hOmhxhiImKYlJ5H9Hd34usYvwwr01FVjHEhVltHFktNdV8JtaNSWQVQ8/2RH/5N/W4XDMaLDGtDp+pMXwWzC0/qf+dcsopSQPGfNIGm9TUo0OYqcZmFQNLnvweIZ7o0M12YTVGWiC0aOim0Aeh3ULzhXhS1tT29SL+luYPEbGnhhrzKtLaLBdm9R3NqrR1NKsiIs0jm1UihdR10lAJI4gpZIoXakTpAowBo76U+lW2xaxiAungS1QWc1daC8p6oqqYOlJkMa9NRVYbm1WitWyPsaRRUmFCgZpVuvwWNatEgkkfJmJaOkUN6bY0PyqtWeV8OEeMNu8t4HXW7bDDDjlKShSUlF06DF933XW/zuVawDUgjRdjSjQY48s2pVPXFLWppRA95jhEqjHHYVYxB1v88ivIzBRiupoBIepXMVWFYf0mdFhohpD8eYioDgmtlZekgBqMN0LXh6jnVao1dXSY1U80q9LW0ayK1AzjhSYMjZuXpOKkGWaYIafBEiVkzlBMIFHAOeaYI62++urZJGL46N5LLSivkVZLN2C67O633365GzCRSEwpBo7oKfOuYiZpWoSxxaxiAknRLTWrNHMiQooJpIaVNF5SkUmbLaKrbIfRpRswkVyOwTqMJd2AMbpsR/otx+7atWt+P1PbFN2AMdl0A8YwcnyMMDdEdC0mmkpElm7CNE/CaBcmnc+JinRfTC/7otaWqCpwPZgvlmtBhJpti/dxThyHJk5sxzWceuqpMatb/vIr+JXJQsyx2iFEHSGpmT+FSBF+OMS0NjbB+fOcFnoh1D4vScHSoRtDg0KYVqVaU++HWR2pWZW2jmZVpGaYPcS9I/P1SyuQpppqqmwsMXZAYyWikgsvvHCOrJJCC3yxFubw6quvzkYM03fnnXfm6CZzrG644YZ5vtNOnTrljryPPfZYNrlsx5QtmGL2UaTXEoXE5GJiMZnUqDJvKXWfRCLpHkwUk6lsMMR018XYco4cn8gophRTTdQVQ0uXXgw150QaMHB8IqU0fFpttdVyM6QuXbrkcyaKjMH89ttvs1Hm/cwFu/jii+d98nkRkVM+H5FkPktpBJVIc8eOHdOCCy6YmyqxbfE+5nLFyFKrihnm804zzTSYVcxnU5Abz5yq24ROCD0SItJ6XmjmkIw5Y4X4otkq5JfNb2FKJDoC7xs6VqlW1lVhVr/QrEpbR7MqUjMwE0f/UKe8JBUnd7Cl8VCRHou5xIyR5krtKo2VABNJyi5prJjJIqqIaSTiiKnErGHySP+lYVGRRkvHXIwjEVNSYjkGEA299957cx0qhq+IuNKgCVOHmVxqqaXSNttskyOeGFrMMbWmBbwf80kXXkwqZhhDi+EuzCqQ4syx6dLLeWJIidJSd0v0FWiKdOGFF2bDvcgii+Rrw7aFOA6R4OI8gfeSZkzq8korrfQ/72EZ44xRBYz+H5jVUqYPbRsihZWGQKQLi4i0VdrbYEnqAc2qSM3A/XfR80RagRxtJK2WyCJgMIl8Ejkk0lmYUtZjLjGKpPWW1nOyTM0q5pCaUWo/C0MKP/74YzasmEH2QboxjBw5Mhs/0ocxqGwHGECOTS0q+6PxEcflveynOCdgmWl12I7oMAabrrw0XiqdfxU41jPPPJPPk21JBWbAKCDdmcZRzBlLVJjtqGUtxHlwno1hH3QZpu6XaG/pe9gHRrX4bKRVTzXVVM01qzBFiIGMqOrfWSEi0kZZyQZLUg9oVkVqBszq0FCvvCQVJzcjqkUwjXfddVeuB6ULL9FhIqqkGpPaS2S3dOqbaoGa2TE0qyIi9YLzrEpdoFkVqRlogEpJXuNeM1Ih8lylRRpsLUHjIuZIbd++fZpnnnnSvPPOm1NuaZhEI6PSyG41oVltNajNJI16grwkItWIZlXqAs2qSM2waoj56ZfPS1Jxcm1nkZZbS1CDSp0t86NSi4owqUy9U40R1QLNaqswdmj30AWhJVkhIlWJZlXqAs2qSM0weYjmnMzaIa1AzZrVWkWz2ir8LXRZiAL5zqwQkapEsyp1gWZVRKR5aFYrjGa1VcCsXhxiLtF1WSEiVYlmVeoCzaqISPPQrFYYzWqrgFm9JPReyHmyRKoXzarUBZpVkZqBnidzh/6Zl6TiaFYrjGa1VaBmlW5up4YWZYWIVCWaVakLNKsiNcNqoYNCNlhqJTSrFUaz2mpMGpo6NH5eEpFqRLMqdYFmVaRmYH7VF0Lb5yWpOJrVCqNZFREZLdVjVpnRrfZmdZMaQbMqUjMcHBoe6p2XpOKkvfbaS7NaQQYMGJCmmGKKr+Pab/PLr0BERBrQrEpdoFkVqRmY+vClkJHVVsLIaoUxsioiMlpMA5a6QLMqUjNsEGKe/rXzklSWf/zjH58eeeSRI37+2cfHleKGG25Ic88995C4/Jv98luQCkCDJaas2SXkTYFI9aJZlbpAsypSM8wWWiU0c16SyjLxxBMP6du375cjR45s+PqUcnPjjTemxRZb7PW4/Bv+8luQCsDUNeeE/hPqyAoRqUo0q1IXaFZFRJrBOOOM82mfPn2+HT58eMPXp5STUaNGpYsvvjjNMcccg+Lyb/rLb0EqQDHPKhFt51kVqV40q1IXaFZFRJrHB7vssstXb7zxRjZSUl54KNCvX78088wzvxHXfqNffgVSATCrl4WGhjqzQkSqEs2q1AWaVZGaYcLQlKEJ8pJUlrHGGuu2rbfe+vX77rvvp2+//bbhK1TKAU2sXnjhhbTffvt9Ndtss90Sl3/lX34LUgEwq8eE7gtRdyAi1YlmVeoCzapIzbBwqFtovrwklWXsscfes2PHjjede+65Xw8bNqzhK1TKwXfffUdzpVGbb775C1NPPfUBcfnb/fJbkAowVmiBEA8IpmaFiFQlmlWpC7755hvNqkhtwFSTd4Qs32sl5p999tn7bbPNNt+8/PLLDV+hUg4+//zzdNhhh6UFF1zw1nHGGWfFuPamE4iI/JZsVs8555yGb06Rtsuuu+6qWRWpfvYK0aBzx7wkFedvY4899vaLLrrooMsvv/xnuwKXB1KAH3nkkbTeeut9EzdiJ8Z1J/ddRER+S8f4jhx61FFHpS+++EKpNqv3338/bbnllpjVh0Jz5r9+EalGiKzeFLLXTCuy4KSTTnrqpptuOuSuu+5qsFfSklCruttuu30566yzXhfXe80QaakiIvJb1h177LG/XGKJJfKNvFJtVd26dUtzzjknZvXp0Nz5r19Eqg3u15lq8pRQe1ZI6zB+aIXJJpvsyp49e3715ptvNlgsaQk++eSTdNJJJ33Xrl07np6S7z4JF10qCl82C4VWC83IChGpSpYI0bn7bqXqRMeHZgiJSPUxdmix0MYhHyq1MpOFtmzfvv3t55xzzsdvv/12g9WSvwJT1Vx77bUjunXr9vgkk0zSJ67xbPlqS6Xhy4aag2tC64aMbItUJ9TyzxTiu1KpetD0oXFDIlKd/D1EoGm8vCStyozzzjtv+KpuNxx33HFfPvnkkw2WS/4M77zzTgrj/9MOO+zw2FJLLdV7vPHGmyeusQNS64BZ3T90Z2izENkEIiIiIiJSK0w77bRTLbDAAl2XWWaZO/r06fMtHYJtujTmfPjhh+mMM84Yueaaaz4333zz7T3PPPPY6a91IZK6XejCEHNl/TMkIiIiIjI6uH8kwPGP0DiskOpg6imnnHLblVde+e4DDzzwi6eeeqrBgklzGDRoUDr55JNHdurU6enZZpvtwLie5Lj/LV9ZaS34stkidF5o29C/QiIiIiIiTUFW3qSh+UP0U5gmJFXEv6aZZppNllhiif7bbbfdZ+eff3568cUXG+yYNMWQIUPS1VdfnXr27DlqlVVWuXvmmWfuMdFEE5H6K60PZnXREB3dlg5NHhIRERERaQoiqguGtg/tGlogJFUGjS5WGmussS6cY445Bh100EFfDhw4cBRzg3377bcNFq2++eGHH3LK7zPPPEPa7zcrrrjiB3G97ojrttn0009vqml1gWEtJCIiIiIyOmiqtF7o5NAxIaKrUoWQo034u+tiiy12Sfv27YfsvPPO6eabb05ff/11g2WrT0aNGpUee+yxdMABB6S11lpr+HLLLXfnZJNN1jOuFX/MU4RERERERKT24F5+69CZIZp04oekylk5dPCUU055w5ZbbvlGv379frjmmmvSs88+m7777rsGC9f2eeutt9Itt9ySTjvttNSrV68h8847771xXU4IkWJqemn1YkRVRERERJrDlCGacx4Z2ijENFNS5dAkiNTWlaaaaqrDwrTet+CCCw7ac889v7jrrrtGDh48OH3xxRfZuP70008N1q62IXr6/fffp6+++iqn+z766KM/9+3b9+sVVlhh2NRTT/1k6LTxxhuPFAEa9jgtTXVDofzEIb5seFqmeRURERGRppgsxNz8zCJB7eqEIakRmBR39tAaod0WXnjhC9dcc803Nt5443TIIYeka6+9Ntdw1npd688//5xee+21HEXt169f2nrrrVPHjh0/XW655W4Ig3pAfHZMKsXW5LRL9YNZpbkST8joCOzkziIiIiLSFAShZgjNGJooxH2k1CBEqFYMMUXLVe3atXuwW7duL/Xp0+ers88+O912221EI9Mrr7yS3nvvvRyhrEZGjBiRI6dvvPFGYqqeu+++O/Xv3z8dfPDBP2677bZvLb744gPj890cIt23c8ipT2oPIqlrhu4PnRqigZiIiIiIiLRhiFBRq8nThxVnmGGGPnPNNddtM8888/tzzz331506dfp8r732+urkk08eRZTy5ZdfTh999FGOvJJiO3LkyPTjjz/m1GGimeWA/ZLSyzE4Fl18MajDhw/PNaj3339/Ovfcc38+6KCDRmy++ebDF1100a/j/D+ZY445Hpl11ln7jjfeeJ3is7ULTRWi6ZTUJguHLgkdGyKl3VRgEREREZE6AlO3emirUK+JJ5746Pnmm+/SlVZaaeCmm276xjbbbDNixx13pDlROvzww9N5553301VXXZVuvfXW9Mgjj6T//Oc/OQr78ccfpy+//DKb2TEBQ0qn4k8++SQNHTo0vfnmm+nJJ59Md911V6IhVP/+/Ucdd9xxqXfv3mmnnXZKcT4pDOp7a6655pNhUq+bbrrpiJ7uHaKoGpNKqq9RuLYB6eu0IO8X4vfKHFoiIiIiIgWk/BLUmDs0c4i+PdKG4Ze8amir8cYb7+C//e1vF8e/7w49NM000zwYJvbf66+//nNdu3Ydsttuuw0/5phjvjrzzDO/P+ecc9JFF12Ua2BJy33wwQfTvffem+6777700EMPZQPK1DFERXmdn7x24403pksuuYRIaTrrrLNGnnDCCV/vvffen2+xxRZDu3Tp8kqY0kdmn332B+L4pPby8+pxxx2XSFuP0NqheUI2S2qbTBeiDfmOIczq30MiIiIiIgVkUjILCoG3VUIGN+oAUmfpqjVtaNYQTyqWCnWYcMIJu08++eR7hXE9qV27dgOWXHLJmzGwSy+99GuLLLLIx7H86RprrPHBaqut9tGCCy44cu65506LL774iDCdHy2//PJfzjvvvGm++eb7eYUVVhi+1lprvb/ccst9HO/7dIkllnhnxRVXfCyWb4ttrppuuunOnGKKKQ6caKKJaK5Dd6/lQsyZRCSYFGaeoNDpywLqtgsPIWhFPnXI37WIiIiINGbJ0H4hmnKuFbIpZx0zTgiTOFtokdBKIf4oNghhKnuF9gjtEtotxKS8h4T4A2J5r9BBDdozxHbFe4iebRLqGCKyyx/enCEMsxE1ERERERFpTNfQNaFjQouHTAMWkYpCRJUHJSIiIiIipRAwu6rhJxl5IiIVhTTgOUKT5iURERERkV8CGmR5krG5WMioqohUnGVCpIzTtZq5gp3CRkRERES4J5wpNF9oYlaIiFQanpidGTo0RKMvuz+LiIiISIGBDBFpNWjmRbOu00KbhZxHV0RERERERFodplFi3izM6r4NyyIiIiJSvzCtIQGNuUJObygirQapHdOHMKpMdaRZFREREalfuDekTvXw0DYhS8REpFVh6poFGzQ+K0RERESkLmGmiC6hs0M7hJziUERERERERFoVoqodQv1CR4RWCpkGLCJVgx3fREREROoToqg9Q1eFtg9RKiYiUhX8K8S8qzPnJRERERGpJ8YLMa0h6b8LhEwBFpGqYaHQLqENQjxJM+1DREREpH74W2iSEA03+beISNUwe2i7EN3fNg7ZGVhERERERERaHZ6kLRe6JnR5aO6QiIiIiNQHTFNj6q+IVC1ThE4NUVi/aMhUYBEREZG2zQShmULMrzoNK0REqhHM6VIhiutnDf09JCIiIiJtE6Kpq4T2DNEBGMMqIlL1/CPEF5iIiIiItE0oAzs4dG1o69AsIRGRqscUYBEREZG2Cx1/abB5YujMEP1K7AIsIlXPWCEiq0jTKiIiItL2oD61fWjX0HohaldFRKqeYp6tVUOdQtOFRERERKTtgFldOsRc+zTZNEAhIjUBkdXxQ3uFmMZmg9BEIRERERFpGxCcIJpqjxIRqTl4urZ26IzQKaHVQyIiIiIiIiKtzoShNUMU3u8QIjXYwnsRERGR2oQo6j9Ds4Uo8/K+TkRqGuoZOjaIdubOvSoiIiJSm8wU6hLaLdQhRDNNEZGahfrVyUMzhKYKjRMSERERkdpjrRDlXXuGFg2NFxIRaRNgXEVERESktiD9l6gq09T0Cy0T8r5ORNoURFWpY/UpnIiIiEjtMGWI2R0wqzTNnDQkItJm4OkbX2zLhtYNLRJyOhsRERGR6oeSrlVCRFQJPEgbgJtzmsnQMetfoVlDs5eIZWr4WmJuIvZBgfOY7ovt6dDKOU4csp5QyslkofVDfUMHhxYP+TcnImMK3xs8/Jo+ROO2dqHS8ZV1U4eY77mcFOfBWM5YWi3fZ8X9B5P0Ew1hHkTT9UTkr8B3CL7B7r9tCAYtCo/3C10fuif0YOjfDbo9dFiIG/a/AoPRwqHlQjOyYgzAMG8R2j+0SYgW1CLlgvRfWp3TQe6S0I4hHuQwJ6uISHPhe2Ob0MWhu0L3h4qxFd0R4qHY8qFy3lgxZm4dOia0WYjzqgZ4eM29xT6hQ0Mrhspt3EVEpMZgYFgvdGvo89AboXtDDKzo0dADoSNCmNo/E1InjXKd0N6hPzNQLhaioxfnxXlQOC1SbuYP7RJi7lX+9p3ORkTGhAVD54TeCw0JMZ4WYyt6KvRYiAfC84bKZdTmCp0Zej50XIjvtmqAB4Brh24LcW22Cpm2JyJjChkqlG4tlZekzcENOGb1ytB9IVo8E1XCUKLVQgxyGEUGucYR1tIUHtJ0STEqTfPldZ4aXxRiH/uGGChLm9fwdJUc82IfpPqW7oO6weNDGOrDQwuF2J5tSW1qaoBnECSlqDg3fmKam0p/4v2kfpZ+hqa2I7WAfbAN2/IenwK3Xfgb4HfNwxJuOr2JEpExgWyis0JEURk/VwgVYyvTZG0Yujx0XYgILPM9FxBpZbxhrEGMeXwHNZXhUZTKFNs2HofnCJ0cejx0ZGieEDAOM96ixg3leH/puMixS6O//JvxHTEOMt6yPWPt6Mp1irTfYvzmOjAP4g0hos7dQ+xHRKS58J2xUYjsUDyMpQRtEAaOTqH+oWtDDBylMCB1DvEU+MUQkaZiYl0GJdJySZW8KcSAe2KoY6i4sV8idGro/dDXoZdCRStpBkMGws1DmNliH6RFrRHi3ABzenTomtDpoQNDp4X4wzw7xB8p+ymF1GHSNy8Lsd+rQxhd0oxKB3Het3GIGwoGTI5/QoinM41vCqgxIhWZ494Y4j18fq6DtF34W+bGqqmbLxGR0cHYxVjFg1Y6U/I9Ugo1rMeGKLchDRZTWcB7ebjLeMMYxlhGdhIPzkphnFw1xH4Yl9BJIeYYxLQC4yHj7sDQISEeSGMYGfsZWzlOaUSC7zzGccZXjn1VqPGxGQ8ZOzHZ/KRUh7GTsfaoEMa88cNcjsu4zP0G++TYB4T4jHeGNg1pVkWkueBRuoXOD/HdRnBM2iCFWS0MJ8ax8QBDjekZocEhzChpuAx0HUKkODEAUuv6RIg0IyKx/MHwlJUaVQY8UqC+DL3TsMzgSh0NA+IFIVKN2ceToedCHI/Bk4GLSCxPgxnMMJPsn6fRL4fY7xWhNUPFU2fMI3+8A0I80Wa/T4dIucIILxDiczOQ8xnOC5GKRRrSK6G3QmxHRBdjy1Mabip6htjff0LPhtgfJpsUZ0yvT3PaNvy/IPLR+IZTRKQpSs0qNfA0OCqFsYiI590hzCoGkJsvxli25wHqQyHGMMZW/o1pnDnEwzPGxyVDjI9kLjHOMTa9Gbo5xINmorM0ciI7iewp3j93iAe3jPuMeec2LAPb02COMZaHy4xzjMmcI7WlnCPjJ+Mzn431F4Z4GHxpiGO/GqJkp/g8wBjZK8R9QpESzdjPWM95Mb5jejWrItIc+B6ieR0P2/gO5KGctFEam1WejrKuFHLB6YrKIMPASiow9TUMPDwZxaxh7Kg3YXClQVOf0Jwh0oF4wst6UpAYwIi2YigZMDGArGNQZR/bhmg6waBMOJ9BmXobtmHQ5KkxRpR1vIfBEQPJefDUl3PnZ9GwATPKfhn4STNiUNw+xB84Jpj98rl5P9FcampphsHTYT4PhhbxHgZ/XmP+JiLD7BNDTD0t7y2N2Erbg5utlUI8aMGw+nBCRH6PwqxixIggFnWpiIe5ZOYwrvA6YwxjLem4RCUZvxjH+DeGFDPIQ1XGUsY+SmBI56U5IqZvr9DSIUwn5hHTSOoxxreI4GJoGcvJRmL/PCSmBIhxknGO7zTKHshiwqgeFGL8pBaMB9Os5zx5gE2KM5+NjCvGS8qJMN9EkBlnebBMPSrmF/juxNi+G8I480Cbz8bn4iE1r2lWRaS5cE/G9xNTDWJUmyqRkDZCc8wq0SSeXGD2SC9iQGQdTWcQxrFriH3wRPX1EBHYookDppQntwzIRG6L1CQMKwMeAzo/MaGkOjHIIjoX8mSW/TOgEcElqlqkImEOeQ+DPWLgxxxzbvwBs18GXgwwgyyRYaKxfBZMMKaZQZ0nywzYDMgMwpw3/+YGgf1xQ8DnfjiEQS/gPwfnyKBMEx4H2bYLN3H8LfA3QVdNUt8ap+OJiJQyX4ixA0PHw1bGIcYcxFjHmMZDXMY3UoD5nkEYTMZWzB/j7R4hxs8PQ4+EeJA6bQgzSEotpTZkMRVw89Y7RISUB2uYVY5B5JVj8kCY/TAul5btkDFF3ShjHanJjMsFjKOk7hLB4LsPMc4T8eUhLuMt8B6WMZ+Mi0ST2e9OIa4Bn6OI4lJStGUIE832pgGLSHPhnox79uL7S9owzTWrPL0lYkpkFZPHHwkDIIMOgxBm77XQ0BBPZIlUYlKBQZfBiwGJbYlqAn9gmFH2wWBc7IMBGQNJ/jmGELPIQEtUlXpV6l6A9CIGZdJ4ia4WNUGYYQxu+xDGlPdhoD8OPRPaPURjB/ZDbc2noRQiLYloKYMtzS8wwzwBp8kUEVRSobjxYL88FeZaEdklCsz14SmPtG14wEImAX+P3Lzxd1TUcIuIlEIkFUPHw9dhIcYhxsdCPDzFpBEVZVvGrqKxG0aXsRlzSBow5SnDG/7NQ1rG351Dt4SIkrL96GCsI0pKGQ5jHRoRogsx32EFjMdEgBlPGTf5jiP6SXYUD2bpXUEZD8aYB8HUwRKdpWyGTCpgvOehMoaY8ZRyH8Zxxm6MKtsWYzjGlH1jgtk3D701qyIyOvh+wKCSWSJ1RHPNKmm9mFUGXlJgiTDxb4waKUhEm3hCykDGoINZLSKrDGo8/SU1CLPK/kh1KmpeGOzYB+8vmi1xLAZXnjYXZpUmDDQ4KvLSGdR56kx6EtvT/Ikn0qRp8sSY/VIPwwBIJIwBEcOMMeaPHSNKOhUpSAzeP4YYzNmGwZ+n2qRqcX14yvxFiCkIXmgQtavcgGCsGYhLB31pm5Bmwt8vf2OksPP/hb85EZHGMIZQJkI0kzGJqOUqDVq5YbmoaS1SY3lQSpou4xVjJmMpXYPJ6sEAkgbMWEkkk3GZcY7xEbM7Opoyqz+HiPSuHipKWDC8pA6TIcVDYx4eM9ZhrMlMQtSycu6MvZwz9w08rC2+BxnvaT7ImIlZ5eF0cXzOn3TkYgzngTX9JnhQrVkVkT8C79Ej1HhmEmnjNMeskm7EoIQ5o9sfAy0d/YhEMpjxVJioIsaO9TQ8KmpIoTCrRWSVtCD2yVNhUqBoCEF9KlErnizvHeJcGNyIkBZmlYGV10jhBSKr/OFikDGr/AGzzMBJuhHnx5NhBkSOV9Snkh5FwwkgQkwHZCKs3EyQrsVAjiklsouhpkaVVF/WkTpF+hZpXBhhnjYT0eXpM6lOUh9wQ0VUnxstzKuISGOKmlWin4wTjHGlMDYxRlGLyhhGGixjCeMsUVfMHWm6pAZjfBlzMHakATO+MvYWD5G5eWO7psAsMv4xviEinKT6Yko5v8I8kg3FWMiYzHYYYx4ek71EFJWHxRhntuf7j3XMIsADYEw2cB6MyZhVHugx9nJ8xlOMNR39iygw36OYZe4ZNKsiMjoILhEk4DuP75XfezgnbZBSs0rkksGyMQy4PE0llYm0WlKAMIQMLgyeRbovaUA8lWU9A14xIDF4YfAwq0Q4MaQMdphRBjQMX9Gyn58MZkVklbQk9o9ZJf2JwbH4IyXKxUBHKi6vEd3FSJNmxM0B6UylA2iRioxZ5fg0fuB1nvySysmNAw0eGMR56sxTbZZpnsTnZH1hzAGjSzSVKC1G3eLu+oLfNw9MuEEkU4CbrNHdLIpI/VGY1dtClJ9g3Eph3OFhKK8TXeXfjMc8OGU8Lu2FQB8FzCP9GUgD5qEt5o6xjvGbdNoC9svYRAou4xrjKhFNHraSokvklkgtEVMaJ1LaQKYS22Oq6U+BgSymgSDyyrkzbtIEihtHHuRiqjlPxtQis6gps8oYy70DJpgHxhhy4P6D7CZSjrlvoMGhZlVESuH7jKAVGYyI79XG80JLG6cYLAqzSpOiUjCWmEAGxKtDRJKIShLFZHBhUOKPiJt0ugESzSTVCANamFhqXKn5xPxhVotIJ9FUBumihoUbfwZrnjK/HaKehsERw0rdzqAQrxVzwTJoYh7ZL5FbjCpPm3mCy8BP10MGXz7jdiHSmUjZ5bjslzQmDDHLRHCBc+O4TLPDwM7n5TW2o46HfWNMgc/HdWBwZ19Fi36pP7hRo6lX45tREalfuKni4SvGjehj0a+hgO8LTCzmkAe6jGH0cCB1GFNHphLmjRpWSlMYFxkDeahMlJYHx0Q92T+ZSkVWFOMWRhKDyPcSD3jJdirGMMYuzCbjMgaSsZIaWEwoppftMLHsB7gx5Jg8AOZ+gbGX2lQeHmOgG5tVSnOICmOIeSDMefF+orVEc8ngwhyTZYWh5b6BB87cf2hWRaQUAl98N+BFyOjwO6IOYRDB/GFGMZkMPKT6kG6LGOAYRBlwMZKkPPIewvE8eaW7IPWmvAfDSw0ntZ2kDmFSgYgrjYnoGsgAjLmj5oXBi31jCjG9DJjs84MG0eGQ1CcGWgZe1hHdpckTAzP7JALLPkmL4kaAVFyioTypJRLKPhjk2eajEG3zMb7sk8EWU01KFOfBE5ui0RPNlDDRPL3GwBJd5RwZgImyEukloosp5t+YVQZfqU94KEIUgocxPLRhWUTqG5r1MVk9jZUwpJTTFGMrYizjoS/jEyUyjDeYO/ovkAWEyFZiHGaso8EShg+Dh2HE7FK/yrhJqQoZTYxj/JuUW/5N7wjGOwww4xpjHsYUA0wkk4e9lM0wpjLWUXvKfujlwH4wqJwn4yQZVqQBcx+A2aU2FZPJcYqaVcZCxlPGX2pqi5IbHvoyHnP+jKOYZj4H4ykpz5hwelZwDiIiBIDIYOO7g3twvIRBoTqFJ6Z0u6UGE7PKZN08vaXzIOIpaDFAEWUt0hwxhjw1ZUDifTydZQAq5ozD3DJoAV27SFvidcwmr1OnQ31p8VSVqCmDGIMzxpn6VGpsMJREbnlCjBlm4GeApIMi58fxMZg81eXcEH/YREcZmDGn/GRALaLDDL48qeGz89SZmwG6BPO53whhqhmceYJTpPaSMkztEGaec+UzM8DzXs7RlIT6hi9QovWk2vF3ylNAbiZFpH7h5oqHmYwv9Dxg3CjGVsQyzZeITGJUGW8QYycmjp4QbINxZNzE1GIEeeBbjHn8ZBnTy7ZF9BUzyDhHCi+lKjy0ZXzGJBcGkvcSHSUdmIe4RDqLm0MeHjOuF+MiYyfmlswivu/oRcFno7yGDKMiaoxBZ58YaAxwEXHlPURdefDMfQU9MIjsMobygJiGUjzos7u6SH1DQIzAU9Ednftr7sENCNUxDExFVIiBCBPJAMPgg1jGzDZuIsMfDU9nqaMhxZbwPP8mhYmoKR2Di/dwDAYs6kt5CsyNPOm6DHrsgwGK2hyiUqQYMXk46U2YQAZPtuPpMOaWwY5jEJVlcnLeSwpxKfyhsz11OaRREXUtzo39MpgWjS4YyEnV4rMXn5s6INY1TjXgPPgMnCvbcg7mzksBN1nFJPc8UOH/jYjUL9xsMd4w3yljJONRMbYixhLGMEpdSuF9ZCbxkJf3EHHsEOL7hYeomFBu3gp4UEbdKdFZxiYeLpPqW9zcMZbxYJbvJMbG4r2YXc6PbKTG6XUYbcY49scYTzZV6QO4YkJ+7h0wt8V7GVuLcZr1pZFSxluypfhcjN+cM5+TfbA90VkjJyL1C/fZfNcRScU3aFBFRMoAN3BEL3joIiIiIiKjh4dUPMjiIRYZagSNCHgR7BIRkRaG6AEZAXSLLlLTibqyzGsiIiIi8ss9EuWClENQ6kBdPTXxRlVFRCoAX8I8GaS+i/R3un06H6+IiIjILw/zKQmkjIGeMpQceJ8kIlJBMKvUStOQjPmJqT+j1pkniSIiIiL1BDXuRbYZde3U3dO1nEZtpv6KiFQYoqs0DcCgMqfitaHTGpZFRERE6gEakmJMacJGoziayVGvSmNUm5WKiLQyxdQNB4WYRoKniCIiIiJtnTlCzPpxYogH99wDNZ51Q0REqgCmimJaCJ4oApFX/j1DiEn+fbooIiIibQEaJTGlFX07mIf+ttBuDetERKRKIcqKSQVqNpj7cIsQDQaYd7B4TURERKRWoT8H8zgzt/QeoXVDNFRyTmURkRqBp458cW8WOiF0TogvdSb198tcREREaoGJQjxwp+SpSPGlkRI9OlYMkVUmIiI1CKaUNGDqOW4PXR/i6WNpPQem1nlaRUREpFqgey+lTDOGVgsdEtol9M8QkCnG/Qsya0xEpIbhS3zmUIdQlxBPJkvnGpsptHCIJ5ciIiIirQ1Gdb3QkaFTQyeHyBQr+nKIiEgbhS960mcKlgntFdouRNSVGpCpQiIiIiLlZsoQEVSaIxEpBR6qM398v1Cf0EYhOv8Wr4uISBuFSGvp5NiY1eNCV4SuCR0fojakgO1JJ6abMOnCptuIiIjIn4V7kPFDNElaMETW1/ohmkL+IwTMkcqcqdSl8gB9wpBGVUSkDmFam5VDG4f2DO0XIlW4AJM6e2itEHUjPP3UsIqIiMifgajpGqEjQleHLgrtECJyWvTQwNBiWL3fEBGRXyEFh/rV6fPSL2BWlwwdGCICy4CyTggDW0Ro+UnTJp5+Yn4nC/HUtDSCKyIiIm0LzGSpoeSegfsA7iV4EL5qiPKi0gfdvN41dF7ohtCxIR6GW48qIiJ/CANNaaoNgwvGlGlvTgmdG7ow1C3EtsCT0KKJEw0QVg+RukMn4mIbYF+kFCOMbKHSgQ5YLn39z24DLbUvlhtv13gbaO6+/mgbaKl9NWcbaKl9sdx4u8bbQHP39UfbQEvtqznbQEvti+XG2zXeBpq7rz/aBlpqX83ZBlpqXyw33q7xNtDcff3RNtBS+2rONtBS+2rONlCN+2rONtBS+2rONlCN+2rONtBS+2Id0U4io9OFMKDThIrUXaBbL5lYfUM3h65r+PcqId4PpP/OEyIFeK4Q+6GXRvG6iIjIGEGn4AVCa4Y2CW0d4klpYWr5iaGlSRM1r4eH9g5Rh1I0a2LQY3DjSetOoaNCpABtGeK9BTxZXS7E+3nainqFOF6pOWaA2ypUbHNAiM6BDJwF/LtjiJb3bENXQc6ROpgC6mBIe94tVOyLhlM8DeY1wFzPGsKIF9scHOJaMMgWEJnm6fD+IbY5OrRzaNFQMQgzqDNAcw2KfZF6zeBedGnmWv0rxPXjOrHNYSGaTYzpteInc+vyOyu2Gd21Wjt0aIhtims1b6hgdNeKm5DSazVbiKfmxTZNXStuaLhWnAvbNPda7RviociYXitujpYP/Zlr1Tk0daigOdeqmBeQYxT7au61IiWfz1Twe9equJnkWvGAqDnXaoNQ42vFnMwFTV0rfufUt4/ptSKC8meuVe8Q3xXFteI7prnXqn3oz14rskJgTK7VCqF9QsW+RnetmEKs2Ka4VqXN7Jq6VtuGGl8rMl2ac614oFhs09xrxTVZJDSm14r/26XXis/Q3Gu1dKhI/RyTa0WGD78Ttvm9a7V7qNhXca2K6dvG5FrxEJYMI7b5vWvF31uxL64V4+YfXavuIc6jgO2ZP/SPrhWGb0yvFeMu7+G9Bc25VhyX3w3jLllWiNIh/mY5RgHjPM0a+Vw84D4oxP9bjldcK6578f9DRESk7DAAEVndMXRx6MrQtSEGx2IAxoCQFsTA9XwoNeiBEEatgIGcAf7jULHNOyFu9IsuxtyUdQr9O1Rs812ofwhzU8C/Tw8V26AnQhinAowHNxdvh4ptPgxx81OYOQZVzMItoWKbUSHmrcXsFGCOuIn5NlRs91Jo+xDGBDAO3JiUXoMvQrTmL64V15ObkstCxTbonhA3iQW/d624+QB+cvPyUKjYZnTX6sxQsQ16PEQHxoLRXStufkqvFTfAt4aKbZq6VkzifkxoRKjY7sXQH12rz0PcAPHwAPi7whj80bViiiYeCnwSKrZp7rWinorGHwXNuVbcvJGNwDGKbZp7rYhE8JkKRnetMH2FsedaYQ5eCBXbjO5aXR4qtkF3h6gfK2jqWvE758a09FrxwOOPrhU372eFim1Qc67VsBDfH8VNN9Gc5lwrHmJxo825FNs151oNDzE1xiwhGJNrxcOpT0PFNqO7Vg+Him34XZKhUvrgrKlr9Whow1AB12rX0B9dK4wVc2sX2/wU4jv5j64V1wQjU1wrHsA151rxf5smfcU2qDnX6q3QHqHCaDf3WjGWnB0qtkGju1aDQsU2Q0OYKLrPwu9dK76DC7hWRAe/DxXbNXWttgjxnV9sw7U6MfRH1+quEOdRwHiK8fy9a8V4yEO6R0LFNs29VrwHw1yAwRzdtcKoA8fl+/HOEP/3vgk9GKJTL7WmBVx3rh3/XzHzPKQQaUX+7//+HwUsetUQ4CDoAAAAAElFTkSuQmCC;" vertex="1" parent="1">
          <mxGeometry x="-10" y="40" width="939" height="908" as="geometry" />
        </mxCell>
        <mxCell id="n_tlWCho_spEM-IAygcJ-2" value="&lt;font style=&quot;font-size: 14px;&quot;&gt;&lt;b&gt;Open AI&lt;/b&gt;&lt;/font&gt;" style="shape=cylinder3;whiteSpace=wrap;html=1;boundedLbl=1;backgroundOutline=1;size=15;strokeWidth=2;" vertex="1" parent="1">
          <mxGeometry x="980" y="620" width="150" height="80" as="geometry" />
        </mxCell>
        <mxCell id="n_tlWCho_spEM-IAygcJ-5" value="" style="endArrow=classic;html=1;rounded=0;entryX=0;entryY=0;entryDx=0;entryDy=27.5;entryPerimeter=0;" edge="1" parent="1" target="n_tlWCho_spEM-IAygcJ-2">
          <mxGeometry width="50" height="50" relative="1" as="geometry">
            <mxPoint x="600" y="650" as="sourcePoint" />
            <mxPoint x="1040" y="650" as="targetPoint" />
          </mxGeometry>
        </mxCell>
        <mxCell id="n_tlWCho_spEM-IAygcJ-6" value="" style="endArrow=none;html=1;rounded=0;startArrow=classic;startFill=1;endFill=0;entryX=0;entryY=0.759;entryDx=0;entryDy=0;entryPerimeter=0;" edge="1" parent="1" target="n_tlWCho_spEM-IAygcJ-2">
          <mxGeometry width="50" height="50" relative="1" as="geometry">
            <mxPoint x="600" y="680" as="sourcePoint" />
            <mxPoint x="1050" y="680" as="targetPoint" />
          </mxGeometry>
        </mxCell>
        <mxCell id="n_tlWCho_spEM-IAygcJ-8" value="Content" style="text;html=1;strokeColor=none;fillColor=none;align=center;verticalAlign=middle;whiteSpace=wrap;rounded=0;" vertex="1" parent="1">
          <mxGeometry x="880" y="650" width="60" height="30" as="geometry" />
        </mxCell>
      </root>
    </mxGraphModel>
  </diagram>
</mxfile>
